<svg xmlns="http://www.w3.org/2000/svg" viewBox="0 0 999 393.54"><defs><style>.cls-1{fill:#fff;}</style></defs><g id="Слой_2" data-name="Слой 2"><g id="Слой_1-2" data-name="Слой 1"><g id="layer1"><path id="path2998" class="cls-1" d="M0,393.54,206.44,187.1a41.11,41.11,0,0,0,12-28.86,41.88,41.88,0,0,0-42.31-41.81c-20.18,0-41.58,17-41.58,44.87H18.43v-5.53C18.43,76.89,84.15,0,176.71,0c86.65,0,157.53,71,157.53,158,0,43.4-15.88,80.86-43.94,109.24L164,393.54Z"/><path id="path3002" class="cls-1" d="M218.42,393.54,566.78,45.18V161.3H682.9V277.42H566.78V393.54H450.66V277.42H334.54V393.54Z"/><path id="path3004" class="cls-1" d="M882.88,393.54,999,277.42V393.54Z"/><path id="path3006" class="cls-1" d="M664.46,393.54,870.9,187.1a41.11,41.11,0,0,0,12-28.86,41.88,41.88,0,0,0-42.3-41.81c-20.19,0-41.58,17-41.58,44.87H682.9v-5.53C682.9,76.89,748.62,0,841.18,0c86.65,0,157.53,71,157.53,158,0,43.4-15.89,80.86-44,109.24L828.51,393.54Z"/></g></g></g></svg>