<svg xmlns="http://www.w3.org/2000/svg" viewBox="0 0 1316.95 1316.95"><defs><style>.cls-1{fill:#fff;fill-rule:evenodd;}</style></defs><g id="Слой_2" data-name="Слой 2"><g id="Слой_1-2" data-name="Слой 1"><path class="cls-1" d="M418.74,0,0,418.8V1317H1317V0ZM654.25,1138.69c-184.72-3.82-348.38-77.79-377.51-281.13H539.27c6.81,64.85,50.39,101.29,116.24,103,94.25,0,131.63-68.34,131.63-138,0-80-43.89-138.07-135.5-138.07-72.14,0-92.81,33.39-108.33,56.65H322.22V385L472.84,234H989.06V418.79l-441.92-.08,0,125.09c51.95-29.64,112.52-37.73,171.68-38.73,192.27,0,338.1,120,338.1,298.14C1043.55,1059.78,871.38,1145.64,654.25,1138.69Z"/></g></g></svg>