<svg xmlns="http://www.w3.org/2000/svg" viewBox="0 0 405.3 39"><defs><style>.cls-1{fill:#fff;}</style></defs><g id="Слой_2" data-name="Слой 2"><g id="Слой_1-2" data-name="Слой 1"><g id="Слой_1-3" data-name="Слой_1"><path class="cls-1" d="M26.8,34.1a17.87,17.87,0,0,1-8.6,2A17.46,17.46,0,0,1,5.5,31.3,17,17,0,0,1,0,18.1,18.06,18.06,0,0,1,5.5,4.6C9,1.3,13.3,0,18.2,0a17.62,17.62,0,0,1,8.5,2.1V10a11.3,11.3,0,0,0-8.3-3.9c-6.9,0-11.5,5.7-11.5,12.1A11.41,11.41,0,0,0,18.6,30a10.45,10.45,0,0,0,8.1-3.8v7.9Z"/><path class="cls-1" d="M50.9,24.5,46.8,13.9,42.6,24.5Zm1.7,4.7H40.7l-2.6,6.2H31.9L44.7,5.3H49L61.4,35.4H55.2l-2.6-6.2Z"/><polygon class="cls-1" points="73.4 17.3 85.8 17.3 85.8 5.9 91.6 5.9 91.6 35.3 85.8 35.3 85.8 22.2 73.4 22.2 73.4 35.3 67.6 35.3 67.6 5.9 73.4 5.9 73.4 17.3"/><polygon class="cls-1" points="107.2 18.3 118 5.9 125.2 5.9 112.8 19.5 125.9 35.3 118.3 35.3 107.8 22.1 107.2 22.8 107.2 35.3 101.4 35.3 101.4 5.9 107.2 5.9 107.2 18.3"/><polygon class="cls-1" points="142.9 10.8 142.9 35.3 137.2 35.3 137.2 10.8 130.6 10.8 130.6 5.9 149.6 5.9 149.6 10.8 142.9 10.8"/><polygon class="cls-1" points="152.1 27.7 163.5 27.7 163.5 22.7 152.1 22.7 152.1 27.7"/><polygon class="cls-1" points="198.8 0.8 198.8 35.3 192.1 35.3 192.1 6.6 178.2 6.6 178.2 35.3 171.5 35.3 171.5 0.8 198.8 0.8"/><polygon class="cls-1" points="225.1 10.8 214.5 10.8 214.5 17.4 224.6 17.4 224.6 22.4 214.5 22.4 214.5 30.4 225.1 30.4 225.1 35.3 208.7 35.3 208.7 5.9 225.1 5.9 225.1 10.8"/><polygon class="cls-1" points="244 10.8 244 35.3 238.3 35.3 238.3 10.8 231.6 10.8 231.6 5.9 250.6 5.9 250.6 10.8 244 10.8"/><polygon class="cls-1" points="273.7 10.8 263.1 10.8 263.1 17.4 273.2 17.4 273.2 22.4 263.1 22.4 263.1 30.4 273.7 30.4 273.7 35.3 257.3 35.3 257.3 5.9 273.7 5.9 273.7 10.8"/><path class="cls-1" d="M288,19.5h2.3a6.25,6.25,0,0,0,3.8-.9,4.25,4.25,0,0,0,1.6-3.4,4.42,4.42,0,0,0-1.6-3.4,7.28,7.28,0,0,0-4.1-.9h-2v8.6Zm2.9-13.6c3.3,0,5.6.4,7.8,2.3a9.3,9.3,0,0,1,3,7.1,9.86,9.86,0,0,1-2.4,6.6c-1.6,1.6-4.1,2.6-7.5,2.6H288V35.4h-5.7V5.9Z"/><path class="cls-1" d="M314.7,30.4h2.7c4.6,0,5.5-2.2,5.5-3.8,0-1.9-1-4-5.4-4h-2.8v7.8ZM308.9,5.9h17v4.9H314.6v6.8h4A11.08,11.08,0,0,1,326,20a8.57,8.57,0,0,1,2.8,6.5,9.47,9.47,0,0,1-1.6,5.3c-2.3,3.2-5.9,3.6-8.5,3.6h-9.8V5.9Z"/><polygon class="cls-1" points="338 39 342.2 29 331.8 5.9 337.9 5.9 345.2 23 351.7 5.9 357.9 5.9 344.2 38.9 338 39"/><path class="cls-1" d="M369.1,19.5h2.3a6.25,6.25,0,0,0,3.8-.9,4.25,4.25,0,0,0,1.6-3.4,4.42,4.42,0,0,0-1.6-3.4,7.28,7.28,0,0,0-4.1-.9h-2v8.6Zm2.8-13.6c3.3,0,5.6.4,7.8,2.3a9.3,9.3,0,0,1,3,7.1,9.86,9.86,0,0,1-2.4,6.6c-1.6,1.6-4.1,2.6-7.5,2.6h-3.7V35.4h-5.7V5.9Z"/><polygon class="cls-1" points="405.3 10.8 395.4 10.8 395.4 35.3 389.7 35.3 389.7 5.9 405.3 5.9 405.3 10.8"/></g></g></g></svg>