<svg xmlns="http://www.w3.org/2000/svg" viewBox="0 0 598.39 598.39"><defs><style>.cls-1{fill:#fff;}</style></defs><g id="Слой_2" data-name="Слой 2"><g id="Слой_1-2" data-name="Слой 1"><g id="g9"><path class="cls-1" d="M159.24,299.29a36.11,36.11,0,1,1-36.11-36.11A36.11,36.11,0,0,1,159.24,299.29Z"/><path class="cls-1" d="M298.82,263.19a36.11,36.11,0,1,0,36.11,36.11A36.11,36.11,0,0,0,298.82,263.19Zm0,0a36.11,36.11,0,1,0,36.11,36.11A36.11,36.11,0,0,0,298.82,263.19ZM299.19,0C134,0,0,134,0,299.2S134,598.39,299.19,598.39s299.2-134,299.2-299.19S464.43,0,299.19,0ZM205.24,380H160.16V366.25a54.77,54.77,0,0,1-37,15.15,82.11,82.11,0,1,1,82.11-82.1Zm93.58,1.39a82.11,82.11,0,0,1-82.11-82.1V176.78h46v51.61a65.62,65.62,0,0,1,36.11-11.2,82.11,82.11,0,1,1,0,164.21Zm176.05,0a82.11,82.11,0,1,1,81.28-93H509.29a36.11,36.11,0,1,0,0,21.88h46.85A82.09,82.09,0,0,1,474.87,381.4Zm-176-118.21a36.11,36.11,0,1,0,36.11,36.11A36.11,36.11,0,0,0,298.82,263.19Z"/></g></g></g></svg>