<svg xmlns="http://www.w3.org/2000/svg" viewBox="0 0 512.39 512.28"><defs><style>.cls-1{fill:none;}.cls-2{fill:#fff;}</style></defs><g id="Слой_2" data-name="Слой 2"><g id="Слой_1-2" data-name="Слой 1"><rect class="cls-1" width="512.39" height="512.28"/><path id="path3297" class="cls-2" d="M237.33,510.5c-15.4-5.07-30-19.44-40.37-39.67a85.84,85.84,0,0,1-4.36-9.28c0-1.19,7.22-5.16,7.55-4.15.16.47,2.2,3.92,4.53,7.66,17.53,28,41.52,31.12,52.89,6.79,3.19-6.82,4.71-13.12,6.55-27.05,2.62-19.95,6.67-44.39,8.48-51.23,5.08-19.15,16-34.27,43.23-60,23.72-22.42,35.16-39.86,36.49-55.68.27-3.19.24-5.8-.07-5.8s-2.88,2-5.72,4.54-9.45,7.75-14.7,11.68c-13.47,10.08-19.29,15.27-23.28,20.76-1.9,2.61-3.71,4.76-4,4.76s-2-4.44-3.84-9.86c-2.58-7.76-3.29-11-3.3-15.26,0-6.39,1.11-8.93,7.61-17,8.44-10.48,12.77-22.14,12.78-34.4,0-13-5.73-24.41-22.46-44.53-7.46-9-29.06-32-30-32-.31,0-.48,5.13-.37,11.4.45,26.05-4.55,45.93-18.75,74.52-9.06,18.26-11,22.66-14.59,33.65-3.81,11.59-5,18-5.52,29.34l-.46,10.19-3.35,3.29c-1.85,1.81-3.56,3.09-3.8,2.85-1.08-1.08-2-16.62-1.63-26.51.75-18.2,5-34.5,15.6-59.13,20-46.61,25.15-63.92,24.08-80.46-.44-6.85-1.06-9-7.9-27.35-5.83-15.66-4.19-30.95,4.87-45.2,2.3-3.61,2.58-4.52,1.89-6.18-.45-1.07-2.22-5.14-3.94-9-5.28-12-6.59-18.19-6.63-31.55,0-12.4.89-17.62,4.54-25.6,3.17-6.93,12-15,16.39-15,3.13,0,2.66,1.32-1.62,4.55-9.1,6.87-12.36,18.8-9.25,33.86,3.24,15.64,9.66,26.71,31,53.29,50.32,62.8,75.63,99.63,95.48,138.93,12.62,25,17.71,38.07,22.95,58.94,5.39,21.47,7.11,39.29,5.56,57.45-3.39,39.51-19.22,67.07-46.41,80.78-18.69,9.42-43.21,11-65.19,4.22-8-2.46-7.71-1.91-5.86-13s3.17-15.26,4.68-15.1c.58.07,4.36.72,8.4,1.45,17.87,3.22,37.15-.76,51.78-10.7,4.73-3.21,13.35-11.55,17.52-16.93,7.14-9.25,12.84-21.48,16.18-34.76,2.47-9.79,3.4-29.77,1.89-40.16-1.17-8-5.24-21.53-9.82-32.72-16.05-39.21-44-81.21-104.5-156.89-2.72-3.41-7.72-9.93-11.12-14.5s-6.44-8.3-6.75-8.3c-1,0-4.54,6-5.86,10a25.37,25.37,0,0,0-.95,9.95c.67,11.57,5.54,18.78,29.95,44.37,14.89,15.61,23.31,25.77,30.74,37.09,13.8,21,18.79,42.06,14.09,59.49-.46,1.71-.69,3.26-.5,3.45,1,1,15.92-12.46,20.4-18.51,1.53-2.06,3.05-3.43,3.42-3.07.93.94,5.79,20.57,7.59,30.71,2.51,14.1,3.38,24.19,2.9,33.75-.52,10.26-1.94,15.3-7.16,25.41-5.34,10.31-12.41,19-32.89,40.25-20.26,21.05-27.41,29.78-30,36.61s-5.6,23.79-7.37,41c-2.6,25.29-5.08,42.82-7,49.14-2.79,9.44-7.72,15.86-14.88,19.39-4.55,2.24-6,2.55-12.54,2.75-6.22.18-8.35-.09-13.3-1.72Z"/><path id="path3295" class="cls-2" d="M314.93,478.35c-5.86-2.9-10.08-9.24-14.54-21.8-1.56-4.41-1.9-6.26-1.28-6.89,1.34-1.33,2.83.38,4.69,5.39,2.32,6.28,4.83,10.39,7.11,11.67,1.69.95,2.28,1,4.24,0s2.32-1.65,2.51-4c.45-5.45,3.45-2.61,5.86,5.56,1.7,5.75,1.59,6.78-1,9.39s-3.32,2.74-7.57.64Z"/><path id="path3291" class="cls-2" d="M205.31,129.22A15.54,15.54,0,0,0,231,141l2-1.45-.31,5.38c-.4,7.08-3.06,12.48-9.64,19.59-7.11,7.68-14,12.66-36.61,26.3-30.85,18.65-41.33,26-52.44,36.71-14.27,13.8-24.23,30.51-28.59,48-6,23.91-4,46.9,6.06,73.37,2.89,7.57,2.94,8,3.38,20.87,1.16,34.2,9.74,57.73,27.49,75.38,9,9,17.25,13.23,28,14.56a51,51,0,0,0,8.75.29c25.77-2.17,37-23.49,42.55-80.57.72-7.44,1.7-14.63,2.18-16,.58-1.66,5.67-6.85,15.65-16,15.7-14.35,18.83-18.43,18.84-24.42,0-3.7-3.16-25.8-3.8-26.52-.27-.31-2.06,1.57-4,4.18-3.17,4.36-13.29,14.19-26.52,25.77-8.67,7.59-10.29,11.58-13.23,32.51-5.13,36.47-11.64,55.7-22.56,66.64-10.09,10.09-26.51,12.65-39.42,6.11-13.12-6.65-22.83-26.58-24-49.23l-.46-8.88,6,5.57c7.94,7.42,14.4,10.65,21.31,10.66,6.5,0,8.64-.64,12-3.6,5-4.37,7.32-11.36,7.32-21.84,0-20.93-11.23-46-23.5-52.46a17,17,0,0,0-16.28.61c-4.57,2.84-9.08,9.09-11.42,15.84-1,2.77-2.09,5.2-2.51,5.41-1.43.7-2.78-8.8-2.81-19.71a84,84,0,0,1,1.6-18.69c4.47-21.81,13.09-37.36,30.14-54.37,11.53-11.5,23.44-20.56,50.12-38.13,20.62-13.59,29.43-20.92,34.32-28.55,2.15-3.37,2.59-3.72,2.8-2.27.74,5.16-5.49,21.13-19.81,50.81-11.72,24.33-15.4,32.82-21.3,49.13a278.93,278.93,0,0,0-14.76,58.69c-1.72,12.65-2.34,38.72-1.28,55.33.95,14.79,4.22,38,5.54,39.28.53.52,1.61-.08,3.38-1.89l2.63-2.68-1.4-8.5c-5.18-31.35-3.21-64.81,5.82-99.15,6.39-24.28,14-43.63,32.24-81.32,16-33.2,18.9-44.42,18.14-71.1-.63-22.13-3.57-35.06-9.47-41.62-3.22-3.58-6.63-5.46-11.13-5.46-10.94,0-16.71,7.11-16.71,15.53ZM147.44,337.85a9.89,9.89,0,0,1,4.27,1.11c2.79,1.45,6.9,7.59,6.89,10.34,0,1.09-1,3.76-2.3,5.94a12.68,12.68,0,0,1-6.33,6,20,20,0,0,1-17.27.22c-5.92-2.76-6.12-3.27-3.5-8.82C133.56,343.41,141,337.68,147.44,337.85Z"/><path id="path3285" class="cls-2" d="M258.22,406.84c-9.81-9.42-19.59-23.2-26.68-37.58l-2.95-6,3.42-3.48c1.88-1.92,3.81-3.48,4.29-3.48s2.23,2,3.9,4.44c3.72,5.47,16.6,18.88,23.73,24.72,4.7,3.84,5.23,4.55,4.76,6.32-.28,1.1-1.33,5.95-2.33,10.79a78.8,78.8,0,0,1-2.2,9.18C263.94,412,261.27,409.76,258.22,406.84Z"/><path id="path3279" class="cls-2" d="M153.65,286.06c-2.8-2.92-3.56-6.64-2.72-13.3a30.13,30.13,0,0,1,3.51-10.83c5.1-9.71,21.16-23.82,21.16-18.59,0,.3-3.26,3.91-7.25,8-10.78,11.07-14.31,19.2-10.47,24.09,2.68,3.41,7.67,2.43,7.67-1.51,0-2.19,2.57-5.38,3.74-4.65s1.13,3.3-.2,7.75c-3,9.86-10.45,14.24-15.44,9Z"/><path id="path3277" class="cls-2" d="M260.66,275.35c-2-7.07-1.37-8,17.64-28.54,7.81-8.43,15.2-16.67,16.41-18.32,2.36-3.21,2.47-3.14,3.66,2.34a8.21,8.21,0,0,1-.56,6c-.69,1.51-7.69,9.77-15.55,18.34s-15.52,17.25-17,19.3-2.95,3.73-3.25,3.75S261.1,276.94,260.66,275.35Z"/><path id="path3326" class="cls-2" d="M216.24,155.71a15.56,15.56,0,1,1-15.55-15.56A15.55,15.55,0,0,1,216.24,155.71Z"/><rect id="rect3340" class="cls-2" x="268.96" y="319.66" width="25.62" height="22.16" transform="translate(-138.65 440.43) rotate(-64.19)"/><rect id="rect3344" class="cls-2" x="334.37" y="361.5" width="25.62" height="22.16" transform="translate(-139.38 522.94) rotate(-64.19)"/><rect id="rect3346" class="cls-2" x="227.37" y="414.59" width="25.93" height="22.16" transform="translate(-241.32 342.23) rotate(-50.72)"/><rect id="rect3348" class="cls-2" x="223.48" y="449.51" width="25.93" height="22.16" transform="translate(-269.78 352.03) rotate(-50.72)"/></g></g></svg>