<svg xmlns="http://www.w3.org/2000/svg" viewBox="0 0 368.69 63.06"><defs><style>.cls-1{fill:#fff;}</style></defs><g id="Слой_2" data-name="Слой 2"><g id="Слой_1-2" data-name="Слой 1"><path class="cls-1" d="M16,.07,0,45.56H11.78l2.77-8.14H29.76l2.29,8.14H44.5L28.83.07ZM22.2,13.38l4.3,13.49H17.87Z"/><path class="cls-1" d="M124.14.07l-16,45.49H120l2.77-8.14H138l2.29,8.14h12.45L137,.07Zm6.25,13.31,4.3,13.49h-8.63Z"/><path class="cls-1" d="M340.14.07,324.19,45.56H336l2.76-8.14H354l2.29,8.14h12.45L353,.07Zm6.24,13.31,4.3,13.49h-8.62Z"/><path class="cls-1" d="M52.48,45.46H78.36V35.89H63.79V.11H52.58Z"/><path class="cls-1" d="M203.52.11V45.78h30.56V36.43H214.62V27.84h15.22V18.6H214.73V9.68h17.94V.11Z"/><path class="cls-1" d="M244.2.11V45.78h30.55V36.43H255.29V27.84h15.22V18.6H255.4V9.68h17.94V.11Z"/><path class="cls-1" d="M161.33.11V9.68h16.21L160.68,34.26V45.78H193V35.89H176l16.53-24.25V.11Z"/><path class="cls-1" d="M89.31,0h11.5V46.77s.75,7.2-4.19,12.61c-6.87,7.52-19.11,1.19-19.11,1.19l2.6-9.51a7,7,0,0,0,3.68,1.07c2.86,0,5.68-3.13,5.68-6.74L89.31,0Z"/><path class="cls-1" d="M284.88.11V45.56h11.41v-17c2.68,0,4.57-.3,5.75,1.1,1.39,1.65,6.85,15.84,6.85,15.84l11.76,0-7.07-18s-1.5-3.68-3.13-3.68c1.75-1.21,3.89-3,3.89-3s3.15-1.93,3.15-8.23S313.42.11,306.4.11Zm11.34,9.7h5.52a4.62,4.62,0,0,1,4.15,4.52,4.44,4.44,0,0,1-4.07,4.45h-5.6Z"/></g></g></svg>