<svg xmlns="http://www.w3.org/2000/svg" viewBox="0 0 518.28 519.57"><defs><style>.cls-1{fill:#fff;}</style></defs><g id="Слой_2" data-name="Слой 2"><g id="Слой_1-2" data-name="Слой 1"><polygon class="cls-1" points="199.64 387.99 342.06 337.3 342.06 123.67 128.43 200.91 128.43 254.02 199.64 227.47 199.64 387.99"/><path class="cls-1" d="M471.92,111.06l-1.15-1.66A261.26,261.26,0,0,0,361.49,20.54l-2.41-1A256.42,256.42,0,0,0,260.71,0,258.31,258.31,0,0,0,194,8.12h0C82.83,36.75,1,137.74,0,258.3A258.36,258.36,0,0,0,46.36,408.51h0a260.54,260.54,0,0,0,277.53,103l.39-.1c111.19-28.62,193-129.62,194-250.19A258.23,258.23,0,0,0,471.92,111.06ZM258.3,474.35A211.93,211.93,0,0,1,105.13,407q-1.06-1.12-2.1-2.28c-1.25-1.34-2.45-2.72-3.65-4.11-.56-.63-1.1-1.28-1.64-1.92a210.15,210.15,0,0,1-49.45-138v-1.21a211.59,211.59,0,0,1,66-156.28l.5-.47a208.82,208.82,0,0,1,75.45-45.62c.44-.16.87-.31,1.31-.45a208.48,208.48,0,0,1,223.74,58.19c1.81,2,3.6,4,5.33,6.1A210.16,210.16,0,0,1,470,258.86v1.19a211.65,211.65,0,0,1-65.43,155.77l-.82.77a208.77,208.77,0,0,1-75.69,45.84c-.43.17-.87.32-1.31.45A210.14,210.14,0,0,1,258.3,474.35Z"/></g></g></svg>