<svg xmlns="http://www.w3.org/2000/svg" viewBox="0 0 648.01 121.05"><defs><style>.cls-1{fill:#fff;}</style></defs><g id="Слой_2" data-name="Слой 2"><g id="Слой_1-2" data-name="Слой 1"><g id="layer1"><path id="path3032" class="cls-1" d="M541.23,0,518.8,5.89v26.8H504v17.1h15V93.88c0,20.23,6.09,27.17,25.28,27.17a76.13,76.13,0,0,0,18.05-2.28v-18a42.84,42.84,0,0,1-10.83,1.52c-7.67,0-10.26-3.28-10.26-14.45v-38h21.09V32.69H541.23V0Z"/><path id="path3030" class="cls-1" d="M38,.7c-14.48,0-28.77.6-38,1V119.09c9.94.35,20.48.76,32.69.76,38.36,0,65-21.11,65-61.57C97.68,16.94,74.45.7,38,.7ZM28.88,19.89c2.34-.09,5,0,7.61,0,26.85,0,36.67,15,36.67,40.29,0,27.9-16,40.28-38.19,40.28a82.67,82.67,0,0,1-12.36-.76V20.27C24.44,20.09,26.55,20,28.88,19.89Z"/><path id="path3028" class="cls-1" d="M304.83,1.52V119.34h64V100H327.63V68h39.15V49.6H327.63V20.52h41.24v-19Z"/><path id="path3024" class="cls-1" d="M144,30.53A95.38,95.38,0,0,0,112.88,36L115,54.67a56.19,56.19,0,0,1,25.46-6.85c12.56,0,16.92,4.81,16.92,13.88v4.75c-29.48,0-50,11-50,31.73,0,13.95,9,22.81,24.7,22.81,12.91,0,23.56-6.77,27.75-16.54l.19.19a98.75,98.75,0,0,0-.76,14.64h21.09c-.35-7.15-.57-15.45-.57-22.43V60.75C179.77,41.91,172,30.53,144,30.53Zm13.31,50.36V83c0,10.46-7.45,20.9-18.44,20.9-6.45,0-10.26-3.73-10.26-9.31C128.65,87.6,133.8,80.89,157.35,80.89Z"/><path id="path3022" class="cls-1" d="M232.62,30.6c-24.42,0-36.87,12.57-36.87,27.74,0,29.47,35,20.76,35,36.11,0,5.75-5.51,9.31-14.06,9.31A76.39,76.39,0,0,1,198,101.1l-.57,18.43a120.8,120.8,0,0,0,18.24,1.52c23.72,0,38.58-11.6,38.58-28.7,0-28.07-35.54-21.79-35.54-35.91,0-5.41,4.21-8.93,12.93-8.93a59.68,59.68,0,0,1,16,2.28l.76-17.49a99.34,99.34,0,0,0-15.77-1.71Z"/><path id="path3020" class="cls-1" d="M434.62,30.6c-15-1.23-23.37,8.39-27.55,19.38h-.38a113.1,113.1,0,0,0,1.52-17.29h-21.1v86.65h22.24V83.8c0-24.06,8.09-34.48,24.13-31.16l1.14-22Z"/><path id="path3018" class="cls-1" d="M477.57,30.6c-24.42,0-36.87,12.57-36.87,27.74,0,29.47,35.16,20.76,35.16,36.11,0,5.75-5.71,9.31-14.26,9.31A76.39,76.39,0,0,1,443,101.1l-.57,18.43a120.94,120.94,0,0,0,18.25,1.52c23.71,0,38.76-11.6,38.76-28.7,0-28.07-35.72-21.79-35.72-35.91,0-5.41,4.2-8.93,12.92-8.93a61,61,0,0,1,16.15,2.28l.57-17.49a99.34,99.34,0,0,0-15.77-1.71Z"/><path id="path3016" class="cls-1" d="M611.52,30.53c-26,0-40.66,19.67-40.66,46.18,0,30.52,15.39,44.28,42.94,44.28a85.82,85.82,0,0,0,31-5.7l-2.09-17.11a61.92,61.92,0,0,1-25.27,5.32c-16,0-24.12-7.91-23.95-24.13h53.78A72.84,72.84,0,0,0,648,69.3C648,47.85,636.81,30.53,611.52,30.53Zm-.76,16.53c9.42,0,15.36,6.48,15,17.3H593.85C595.07,53.89,601.52,47.06,610.76,47.06Z"/></g></g></g></svg>