<svg xmlns="http://www.w3.org/2000/svg" viewBox="0 0 512.51 146.5"><defs><style>.cls-1{fill:#fff;fill-rule:evenodd;}</style></defs><g id="Слой_2" data-name="Слой 2"><g id="Слой_1-2" data-name="Слой 1"><g id="Слой_2-2" data-name="Слой 2"><g id="Слой_1-2-2" data-name="Слой 1-2"><path class="cls-1" d="M0,0V146.5H146.49V0ZM101.36,103.36a23.85,23.85,0,0,1-10.67,8.11A45.25,45.25,0,0,1,74,114.32H41.15V32H72c9.11,0,16.23,1.85,21.21,5.41s7.54,8.82,7.54,15.66a18.66,18.66,0,0,1-2.7,10.25,19,19,0,0,1-8,6.83,21.24,21.24,0,0,1,11.1,7.69A20.59,20.59,0,0,1,105,90.55,20.3,20.3,0,0,1,101.36,103.36Z"/><path class="cls-1" d="M83.85,55.24a9.66,9.66,0,0,1-3.41,7.87C78.16,65,74.88,66,70.44,66H57.8V45.46H70.47C79.44,45.42,83.85,48.69,83.85,55.24Z"/><path class="cls-1" d="M87.84,90.11a9.15,9.15,0,0,1-4,8.11c-2.69,1.89-6.53,2.89-11.52,2.89H57.8V78.87H72.61C82.86,78.87,88,82.57,87.84,90.11Z"/><path class="cls-1" d="M183.08,0V146.5H329.57V0ZM284.44,103.36a23.81,23.81,0,0,1-10.68,8.11,45,45,0,0,1-16.65,2.85H224.37V32h30.89c9.11,0,16.23,1.85,21.21,5.41S284,46.27,284,53.11a18.66,18.66,0,0,1-2.7,10.25,19,19,0,0,1-8,6.83,21.24,21.24,0,0,1,11.1,7.69,20.59,20.59,0,0,1,3.85,12.67A23.57,23.57,0,0,1,284.44,103.36Z"/><path class="cls-1" d="M266.93,55.24a9.63,9.63,0,0,1-3.42,7.83c-2.27,1.85-5.55,2.85-10,2.85H240.88V45.42h12.67C262.52,45.42,266.93,48.69,266.93,55.24Z"/><path class="cls-1" d="M270.92,90.11a9.15,9.15,0,0,1-4,8.11c-2.7,1.86-6.55,2.85-11.53,2.85H240.88V78.87h14.8C265.93,78.87,271.06,82.57,270.92,90.11Z"/><path class="cls-1" d="M366,0V146.5H512.51V0ZM471.34,109.2h-.14a46.66,46.66,0,0,1-11.82,4.41,57.77,57.77,0,0,1-14.23,1.57,53.6,53.6,0,0,1-17.8-2.85A38.65,38.65,0,0,1,414,104.11a35.16,35.16,0,0,1-8.4-13.24,49.54,49.54,0,0,1-2.85-17.65,48.57,48.57,0,0,1,3-17.37,38.38,38.38,0,0,1,8.69-13.24,37.33,37.33,0,0,1,13.67-8.4,50.18,50.18,0,0,1,17.79-3,54.2,54.2,0,0,1,13,1.43,49,49,0,0,1,11.38,4.12v16a38.31,38.31,0,0,0-10.39-4.84,36.59,36.59,0,0,0-11.67-1.57c-5.7,0-10.54,1-14.52,3.13a20.86,20.86,0,0,0-9.11,9.12c-2.14,4-3.14,8.82-3.14,14.52s1,10.67,3.14,14.66a21.6,21.6,0,0,0,9,9.25,29.61,29.61,0,0,0,14.14,3.13,44.61,44.61,0,0,0,23.63-6.7Z"/></g></g></g></g></svg>