<svg xmlns="http://www.w3.org/2000/svg" viewBox="0 0 512.51 512.28"><defs><style>.cls-1{fill:none;}.cls-2{fill:#fff;fill-rule:evenodd;}</style></defs><g id="Слой_2" data-name="Слой 2"><g id="Слой_1-2" data-name="Слой 1"><rect class="cls-1" x="0.06" width="512.39" height="512.28"/><path class="cls-2" d="M0,182.89v146.5H146.49V182.89ZM101.36,286.25a23.8,23.8,0,0,1-10.67,8.11A45.12,45.12,0,0,1,74,297.21H41.15V214.93H72c9.11,0,16.23,1.85,21.21,5.41s7.54,8.82,7.54,15.66a18.71,18.71,0,0,1-2.7,10.25,19,19,0,0,1-8,6.83,21.23,21.23,0,0,1,11.1,7.69,20.6,20.6,0,0,1,3.85,12.67A20.32,20.32,0,0,1,101.36,286.25Z"/><path class="cls-2" d="M83.85,238.13A9.65,9.65,0,0,1,80.44,246c-2.28,1.85-5.56,2.85-10,2.85H57.8v-20.5H70.47C79.44,228.31,83.85,231.58,83.85,238.13Z"/><path class="cls-2" d="M87.84,273a9.14,9.14,0,0,1-4,8.11C81.15,283,77.31,284,72.32,284H57.8V261.76H72.61C82.86,261.76,88,265.46,87.84,273Z"/><path class="cls-2" d="M183.08,182.89v146.5H329.57V182.89ZM284.44,286.25a23.77,23.77,0,0,1-10.68,8.11,45.06,45.06,0,0,1-16.65,2.85H224.37V214.93h30.89c9.11,0,16.23,1.85,21.21,5.41S284,229.16,284,236a18.71,18.71,0,0,1-2.7,10.25,19,19,0,0,1-8,6.83,21.23,21.23,0,0,1,11.1,7.69,20.6,20.6,0,0,1,3.85,12.67A23.54,23.54,0,0,1,284.44,286.25Z"/><path class="cls-2" d="M266.93,238.13a9.63,9.63,0,0,1-3.42,7.83c-2.27,1.85-5.55,2.85-10,2.85H240.88v-20.5h12.67C262.52,228.31,266.93,231.58,266.93,238.13Z"/><path class="cls-2" d="M270.92,273a9.14,9.14,0,0,1-4,8.11c-2.7,1.86-6.55,2.85-11.53,2.85H240.88V261.76h14.8C265.93,261.76,271.06,265.46,270.92,273Z"/><path class="cls-2" d="M366,182.89v146.5H512.51V182.89Zm105.34,109.2h-.14a46.45,46.45,0,0,1-11.82,4.41,58.09,58.09,0,0,1-14.23,1.57,53.68,53.68,0,0,1-17.8-2.85A38.62,38.62,0,0,1,414,287a35.15,35.15,0,0,1-8.4-13.24,49.46,49.46,0,0,1-2.85-17.65,48.41,48.41,0,0,1,3-17.37,38.4,38.4,0,0,1,8.69-13.24,37.34,37.34,0,0,1,13.67-8.4,50.18,50.18,0,0,1,17.79-3,54.61,54.61,0,0,1,13,1.43,48.87,48.87,0,0,1,11.38,4.12v15.95a38.39,38.39,0,0,0-10.39-4.84,36.67,36.67,0,0,0-11.67-1.57c-5.7,0-10.54,1-14.52,3.13a20.86,20.86,0,0,0-9.11,9.12c-2.14,4-3.14,8.82-3.14,14.52s1,10.67,3.14,14.66a21.57,21.57,0,0,0,9,9.25A29.59,29.59,0,0,0,447.73,283a44.56,44.56,0,0,0,23.63-6.7Z"/></g></g></svg>