<svg xmlns="http://www.w3.org/2000/svg" viewBox="0 0 448.85 52.98"><defs><style>.cls-1{fill:#fff;fill-rule:evenodd;}</style></defs><g id="Слой_2" data-name="Слой 2"><g id="Слой_1-2" data-name="Слой 1"><path class="cls-1" d="M0,1.1H37.9V9.6H10.2V21.3H23.9a27.81,27.81,0,0,1,9.4,1.4,13.52,13.52,0,0,1,6.4,5.1,14.43,14.43,0,0,1,2.6,8.7,14.79,14.79,0,0,1-8.8,13.8c-2.3.9-5.5,1.3-9.7,1.3H0V1.1ZM10.2,43.2h10a32.75,32.75,0,0,0,6.7-.5,6.5,6.5,0,0,0,3.4-2.1,5.85,5.85,0,0,0,1.4-4.1c0-2.3-.8-4.1-2.5-5.1s-4.5-1.6-8.6-1.6H10.2V43.2Zm40.5,8.5V1H88.3V9.6H60.9V20.8H86.3v8.5H60.9V43.1H89.2v8.5H50.7ZM101.5,1.1H137V51.8H126.8V9.7H111.6V31.3a94.68,94.68,0,0,1-.6,13,8.81,8.81,0,0,1-3,5.7q-2.4,2.1-7.5,2.1c-1.2,0-3.4-.1-6.5-.3V43.9h2.3c2.1,0,3.6-.3,4.3-.9s1.1-2,1.1-4.3V1.1Zm91.8,50.6H182.2l-4.4-11.5H157.5l-4.2,11.5H142.4L162.1,1h10.8l20.4,50.7Zm-18.9-20-7-18.8-6.8,18.8Zm24.3,20V1h16.4c6.2,0,10.3.3,12.2.8a13.46,13.46,0,0,1,7.3,5c2,2.5,2.9,5.8,2.9,9.9a16.66,16.66,0,0,1-1.7,7.8,14.1,14.1,0,0,1-4.3,5,14.78,14.78,0,0,1-5.3,2.4,57.19,57.19,0,0,1-10.6.7h-6.7V51.7ZM209,9.6V24h5.6c4,0,6.7-.3,8.1-.8a6.68,6.68,0,0,0,3.2-2.5,6.45,6.45,0,0,0,1.2-3.9,6.62,6.62,0,0,0-1.6-4.6,7.2,7.2,0,0,0-4.1-2.2,56.92,56.92,0,0,0-7.4-.3h-5Zm30.9-8.5h11.4l11.8,26.3L273.2,1.1h10.7L266.8,39.6a39.42,39.42,0,0,1-5.7,9.5,9.43,9.43,0,0,1-7.5,3.3,32.82,32.82,0,0,1-7.1-.6V44.2c1.5.1,2.8.1,3.9.1,2.4,0,4.1-.4,5.1-1.3s2-2.7,3-5.6L239.9,1.1Zm81.6,32,9.9,3.1c-1.5,5.5-4,9.6-7.6,12.3s-8,4-13.5,4a21.8,21.8,0,0,1-16.6-6.9c-4.3-4.6-6.5-10.9-6.5-18.9,0-8.4,2.2-15,6.5-19.7s10.1-7,17.2-7c6.2,0,11.2,1.8,15.1,5.5a20.82,20.82,0,0,1,5.2,9.3l-10.1,2.4a10.29,10.29,0,0,0-3.8-6.2,10.83,10.83,0,0,0-6.9-2.3,11.28,11.28,0,0,0-9.1,4c-2.3,2.7-3.5,7.1-3.5,13.1,0,6.4,1.1,11,3.5,13.7a11.3,11.3,0,0,0,9,4.1,10.28,10.28,0,0,0,7-2.6c1.9-1.5,3.3-4.2,4.2-7.9Zm18.9-32h10.2V21.3h13.7c6.5,0,11.1,1.5,14,4.5a15,15,0,0,1,4.3,10.9,14.79,14.79,0,0,1-2.6,8.8,12.63,12.63,0,0,1-6,4.9c-2.2.9-5.5,1.3-9.7,1.3H340.4V1.1Zm10.2,42.1h10a32.05,32.05,0,0,0,6.7-.5,6.45,6.45,0,0,0,4.8-6.2,5.61,5.61,0,0,0-2.5-5.1c-1.7-1.1-4.5-1.6-8.6-1.6H350.6Z"/><path class="cls-1" d="M448.83,5.88c-.08.57,0,1.17,0,1.74V53h-20V19.31a8.12,8.12,0,0,0-.67.48c-.13-.09-.21.08-.33.08s0,.14.06.18c-.45.29-.9.62-1.35.93a34,34,0,0,1-5.17,2.56,37.09,37.09,0,0,1-4.46,1.5V10.76a5.68,5.68,0,0,1,0-1,36.56,36.56,0,0,0,5.44-2.09A38.79,38.79,0,0,0,432.87.54c5.31,0,10.6,0,15.9-.06a.62.62,0,0,1,.08.33C448.83,2.51,448.85,4.19,448.83,5.88Z"/></g></g></svg>