<svg xmlns="http://www.w3.org/2000/svg" viewBox="0 0 431.1 446.1"><defs><style>.cls-1{fill:#fff;fill-rule:evenodd;}</style></defs><g id="Слой_2" data-name="Слой 2"><g id="Слой_1-2" data-name="Слой 1"><path class="cls-1" d="M394,0H37.1A37.22,37.22,0,0,0,0,37.1V409a37.22,37.22,0,0,0,37.1,37.1H394A37.22,37.22,0,0,0,431.1,409V37.1A37.22,37.22,0,0,0,394,0ZM120,87.2A181.12,181.12,0,0,0,146.5,77a190.2,190.2,0,0,0,51.3-34.7c25.9-.1,51.7,0,77.5-.3a2.93,2.93,0,0,1,.4,1.6c-.1,8.3,0,16.5-.1,24.7-.4,2.8.2,5.7-.2,8.5V297.9H178V133.8a38.77,38.77,0,0,0-3.3,2.3c-.6-.4-1,.4-1.6.4.1.2.2.7.3.9-2.2,1.4-4.4,3-6.6,4.5a159.7,159.7,0,0,1-25.2,12.5,184.36,184.36,0,0,1-21.7,7.3V92.1A26.75,26.75,0,0,1,120,87.2ZM420.2,407.3a28.4,28.4,0,0,1-28.3,28.3H39.3A28.4,28.4,0,0,1,11,407.3V334.2H420.2Z"/><path class="cls-1" d="M25.8,357.8H63.7v8.5H36V378H49.7a27.81,27.81,0,0,1,9.4,1.4,13.52,13.52,0,0,1,6.4,5.1,15.77,15.77,0,0,1-.1,17.5,14.28,14.28,0,0,1-6.1,5c-2.3.9-5.5,1.3-9.7,1.3H25.8V357.8ZM36,399.9H46a32.75,32.75,0,0,0,6.7-.5,6.5,6.5,0,0,0,3.4-2.1,5.85,5.85,0,0,0,1.4-4.1c0-2.3-.8-4.1-2.5-5.1s-4.5-1.6-8.6-1.6H36v13.4Zm40.5,8.5V357.7h37.6v8.6H86.7v11.2h25.4V386H86.7v13.8H115v8.5H76.5Zm50.8-50.6h35.5v50.7H152.6V366.4H137.4V388a94.68,94.68,0,0,1-.6,13,8.81,8.81,0,0,1-3,5.7q-2.4,2.1-7.5,2.1c-1.2,0-3.4-.1-6.5-.3v-7.9h2.3c2.1,0,3.6-.3,4.3-.9s1.1-2,1.1-4.3V357.8Zm91.8,50.6H208l-4.4-11.5H183.3l-4.2,11.5H168.2l19.7-50.7h10.8l20.4,50.7Zm-18.9-20-7-18.8-6.8,18.8Zm24.3,20V357.7h16.4c6.2,0,10.3.3,12.2.8a13.46,13.46,0,0,1,7.3,5c2,2.5,2.9,5.8,2.9,9.9a16.66,16.66,0,0,1-1.7,7.8,14.1,14.1,0,0,1-4.3,5,14.78,14.78,0,0,1-5.3,2.4,57.19,57.19,0,0,1-10.6.7h-6.7v19.1Zm10.3-42.1v14.4h5.6c4,0,6.7-.3,8.1-.8a6.68,6.68,0,0,0,3.2-2.5,6.45,6.45,0,0,0,1.2-3.9,6.62,6.62,0,0,0-1.6-4.6,7.2,7.2,0,0,0-4.1-2.2,56.92,56.92,0,0,0-7.4-.3h-5Zm30.9-8.5h11.4l11.8,26.3L299,357.8h10.7l-17.1,38.5a39.42,39.42,0,0,1-5.7,9.5,9.43,9.43,0,0,1-7.5,3.3,32.82,32.82,0,0,1-7.1-.6v-7.6c1.5.1,2.8.1,3.9.1,2.4,0,4.1-.4,5.1-1.3s2-2.7,3-5.6l-18.6-36.3Zm81.6,32,9.9,3.1c-1.5,5.5-4,9.6-7.6,12.3s-8,4-13.5,4a21.8,21.8,0,0,1-16.6-6.9c-4.3-4.6-6.5-10.9-6.5-18.9,0-8.4,2.2-15,6.5-19.7s10.1-7,17.2-7c6.2,0,11.2,1.8,15.1,5.5a20.82,20.82,0,0,1,5.2,9.3l-10.1,2.4a10.29,10.29,0,0,0-3.8-6.2,10.83,10.83,0,0,0-6.9-2.3,11.28,11.28,0,0,0-9.1,4c-2.3,2.7-3.5,7.1-3.5,13.1,0,6.4,1.1,11,3.5,13.7a11.3,11.3,0,0,0,9,4.1,10.28,10.28,0,0,0,7-2.6c1.9-1.5,3.3-4.2,4.2-7.9Zm18.9-32h10.2V378h13.7c6.5,0,11.1,1.5,14,4.5a15,15,0,0,1,4.3,10.9,14.79,14.79,0,0,1-2.6,8.8,12.63,12.63,0,0,1-6,4.9c-2.2.9-5.5,1.3-9.7,1.3H366.2V357.8Zm10.2,42.1h10a32.05,32.05,0,0,0,6.7-.5,6.45,6.45,0,0,0,4.8-6.2,5.61,5.61,0,0,0-2.5-5.1c-1.7-1.1-4.5-1.6-8.6-1.6H376.4Z"/></g></g></svg>