<svg xmlns="http://www.w3.org/2000/svg" viewBox="0 0 464.3 52.87"><defs><style>.cls-1{fill:#fff;fill-rule:evenodd;}</style></defs><g id="Слой_2" data-name="Слой 2"><g id="Слой_1-2" data-name="Слой 1"><path class="cls-1" d="M464.3,38.75V52.5H417.44V38.73c14.1-5.79,31.46-19,26.43-25.18a4.59,4.59,0,0,0-3.49-1.15c-2.15.06-4.42,1.5-4.87,5.94H417.44c.24-6.19,2.49-10.57,5.9-13.47C427.46,1.36,433.26,0,439.25,0c7.93.06,17.36,1.2,21.26,6.15s5.72,12.27-.13,19.78c-3.36,4.32-9,8.72-17.42,12.82Z"/><path class="cls-1" d="M0,1.47H37.9V10H10.2v11.7H23.9a27.81,27.81,0,0,1,9.4,1.4,13.52,13.52,0,0,1,6.4,5.1,14.43,14.43,0,0,1,2.6,8.7,14.79,14.79,0,0,1-8.8,13.8c-2.3.9-5.5,1.3-9.7,1.3H0V1.47Zm10.2,42.1h10a32.75,32.75,0,0,0,6.7-.5A6.5,6.5,0,0,0,30.3,41a5.85,5.85,0,0,0,1.4-4.1c0-2.3-.8-4.1-2.5-5.1s-4.5-1.6-8.6-1.6H10.2v13.4Zm40.5,8.5V1.37H88.3V10H60.9v11.2H86.3v8.5H60.9v13.8H89.2V52H50.7Zm50.8-50.6H137v50.7H126.8V10.07H111.6v21.6a94.68,94.68,0,0,1-.6,13,8.81,8.81,0,0,1-3,5.7q-2.4,2.1-7.5,2.1c-1.2,0-3.4-.1-6.5-.3v-7.9h2.3c2.1,0,3.6-.3,4.3-.9s1.1-2,1.1-4.3V1.47Zm91.8,50.6H182.2l-4.4-11.5H157.5l-4.2,11.5H142.4l19.7-50.7h10.8l20.4,50.7Zm-18.9-20-7-18.8-6.8,18.8Zm24.3,20V1.37h16.4c6.2,0,10.3.3,12.2.8a13.46,13.46,0,0,1,7.3,5c2,2.5,2.9,5.8,2.9,9.9a16.66,16.66,0,0,1-1.7,7.8,14.1,14.1,0,0,1-4.3,5,14.78,14.78,0,0,1-5.3,2.4,57.19,57.19,0,0,1-10.6.7h-6.7v19.1ZM209,10v14.4h5.6c4,0,6.7-.3,8.1-.8a6.68,6.68,0,0,0,3.2-2.5,6.45,6.45,0,0,0,1.2-3.9,6.62,6.62,0,0,0-1.6-4.6,7.2,7.2,0,0,0-4.1-2.2,56.92,56.92,0,0,0-7.4-.3h-5Zm30.9-8.5h11.4l11.8,26.3,10.1-26.3h10.7L266.8,40a39.42,39.42,0,0,1-5.7,9.5,9.43,9.43,0,0,1-7.5,3.3,32.82,32.82,0,0,1-7.1-.6v-7.6c1.5.1,2.8.1,3.9.1,2.4,0,4.1-.4,5.1-1.3s2-2.7,3-5.6L239.9,1.47Zm81.6,32,9.9,3.1c-1.5,5.5-4,9.6-7.6,12.3s-8,4-13.5,4A21.8,21.8,0,0,1,293.7,46c-4.3-4.6-6.5-10.9-6.5-18.9,0-8.4,2.2-15,6.5-19.7s10.1-7,17.2-7c6.2,0,11.2,1.8,15.1,5.5a20.82,20.82,0,0,1,5.2,9.3l-10.1,2.4a10.29,10.29,0,0,0-3.8-6.2,10.83,10.83,0,0,0-6.9-2.3,11.28,11.28,0,0,0-9.1,4c-2.3,2.7-3.5,7.1-3.5,13.1,0,6.4,1.1,11,3.5,13.7a11.3,11.3,0,0,0,9,4.1,10.28,10.28,0,0,0,7-2.6c1.9-1.5,3.3-4.2,4.2-7.9Zm18.9-32h10.2v20.2h13.7c6.5,0,11.1,1.5,14,4.5a15,15,0,0,1,4.3,10.9,14.79,14.79,0,0,1-2.6,8.8,12.63,12.63,0,0,1-6,4.9c-2.2.9-5.5,1.3-9.7,1.3H340.4V1.47Zm10.2,42.1h10a32.05,32.05,0,0,0,6.7-.5,6.45,6.45,0,0,0,4.8-6.2,5.61,5.61,0,0,0-2.5-5.1c-1.7-1.1-4.5-1.6-8.6-1.6H350.6Z"/></g></g></svg>