<svg xmlns="http://www.w3.org/2000/svg" viewBox="0 0 459.28 52.77"><defs><style>.cls-1{fill:#fff;fill-rule:evenodd;}</style></defs><g id="Слой_2" data-name="Слой 2"><g id="Слой_1-2" data-name="Слой 1"><path class="cls-1" d="M39.7,27.8a13.52,13.52,0,0,0-6.4-5.1,27.81,27.81,0,0,0-9.4-1.4H10.2V9.6H37.9V1.1H0V51.6H23.8c4.2,0,7.4-.4,9.7-1.3a14.79,14.79,0,0,0,8.8-13.8A14.43,14.43,0,0,0,39.7,27.8ZM30.3,40.6a6.5,6.5,0,0,1-3.4,2.1,32.75,32.75,0,0,1-6.7.5h-10V29.8H20.6c4.1,0,6.9.5,8.6,1.6s2.5,2.8,2.5,5.1A5.85,5.85,0,0,1,30.3,40.6Z"/><polygon class="cls-1" points="50.7 51.7 50.7 1 88.3 1 88.3 9.6 60.9 9.6 60.9 20.8 86.3 20.8 86.3 29.3 60.9 29.3 60.9 43.1 89.2 43.1 89.2 51.6 50.7 51.6 50.7 51.7"/><path class="cls-1" d="M101.5,1.1H137V51.8H126.8V9.7H111.6V31.3a94.68,94.68,0,0,1-.6,13,8.81,8.81,0,0,1-3,5.7q-2.4,2.1-7.5,2.1c-1.2,0-3.4-.1-6.5-.3V43.9h2.3c2.1,0,3.6-.3,4.3-.9s1.1-2,1.1-4.3V1.1Z"/><path class="cls-1" d="M172.9,1H162.1L142.4,51.7h10.9l4.2-11.5h20.3l4.4,11.5h11.1ZM160.6,31.7l6.8-18.8,7,18.8Z"/><path class="cls-1" d="M234.6,6.8a13.46,13.46,0,0,0-7.3-5c-1.9-.5-6-.8-12.2-.8H198.7V51.7h10.2V32.6h6.7a57.19,57.19,0,0,0,10.6-.7,14.78,14.78,0,0,0,5.3-2.4,14.1,14.1,0,0,0,4.3-5,16.66,16.66,0,0,0,1.7-7.8C237.5,12.6,236.6,9.3,234.6,6.8Zm-8.7,13.9a6.68,6.68,0,0,1-3.2,2.5c-1.4.5-4.1.8-8.1.8H209V9.7h5a56.92,56.92,0,0,1,7.4.3,7.2,7.2,0,0,1,4.1,2.2,6.62,6.62,0,0,1,1.6,4.6A6.45,6.45,0,0,1,225.9,20.7Z"/><path class="cls-1" d="M239.9,1.1h11.4l11.8,26.3L273.2,1.1h10.7L266.8,39.6a39.42,39.42,0,0,1-5.7,9.5,9.43,9.43,0,0,1-7.5,3.3,32.82,32.82,0,0,1-7.1-.6V44.2c1.5.1,2.8.1,3.9.1,2.4,0,4.1-.4,5.1-1.3s2-2.7,3-5.6L239.9,1.1Z"/><path class="cls-1" d="M321.5,33.1l9.9,3.1c-1.5,5.5-4,9.6-7.6,12.3s-8,4-13.5,4a21.8,21.8,0,0,1-16.6-6.9c-4.3-4.6-6.5-10.9-6.5-18.9,0-8.4,2.2-15,6.5-19.7s10.1-7,17.2-7c6.2,0,11.2,1.8,15.1,5.5a20.82,20.82,0,0,1,5.2,9.3l-10.1,2.4a10.29,10.29,0,0,0-3.8-6.2,10.83,10.83,0,0,0-6.9-2.3,11.28,11.28,0,0,0-9.1,4c-2.3,2.7-3.5,7.1-3.5,13.1,0,6.4,1.1,11,3.5,13.7a11.3,11.3,0,0,0,9,4.1,10.28,10.28,0,0,0,7-2.6c1.9-1.5,3.3-4.2,4.2-7.9Z"/><path class="cls-1" d="M378.3,25.8c-2.9-3-7.5-4.5-14-4.5H350.6V1.1H340.4V51.7h23.9c4.2,0,7.5-.4,9.7-1.3a12.63,12.63,0,0,0,6-4.9,14.79,14.79,0,0,0,2.6-8.8A15,15,0,0,0,378.3,25.8Zm-7.7,14.8a5.9,5.9,0,0,1-3.3,2.1,32.05,32.05,0,0,1-6.7.5h-10V29.8H361c4.1,0,6.9.5,8.6,1.6a5.61,5.61,0,0,1,2.5,5.1A5.92,5.92,0,0,1,370.6,40.6Z"/><path class="cls-1" d="M459.27,34.38a19.5,19.5,0,0,1-3.86,11.34c-4.39,5.73-12.17,7.24-19,7a29.05,29.05,0,0,1-11.75-2A14,14,0,0,1,418.48,46,15.45,15.45,0,0,1,416,37l17.17-.08a4,4,0,0,0,.63,2.18,4.05,4.05,0,0,0,6.21,0,9.3,9.3,0,0,0,1.12-9.15,4.41,4.41,0,0,0-5.67-2.81,4.58,4.58,0,0,0-2.65,3.57H416.49l.45-14.58.5-15.78L456.9.27l-.15,12-23.76,0-.34,7.23,0,.3.35-.21a18.54,18.54,0,0,1,17.94-.31,15,15,0,0,1,6.78,6.72,12.5,12.5,0,0,1,1.32,4A23.05,23.05,0,0,1,459.27,34.38Z"/></g></g></svg>