<svg xmlns="http://www.w3.org/2000/svg" viewBox="0 0 1339.28 1255.94"><defs><style>.cls-1{fill:#fff;}</style></defs><g id="Слой_2" data-name="Слой 2"><g id="Слой_1-2" data-name="Слой 1"><path class="cls-1" d="M378.92,1090.82c0,51.41-16.74,91.52-50.23,120.73s-77.5,44-131.24,44c-74,0-138.26-23.36-193.56-69.71l50.24-91.12c48.29,37.77,95,56.85,140.59,56.85,22.2,0,39.33-4.67,51.8-13.63s18.69-22.19,18.69-39.33c0-15.58-5.84-28.43-17.92-39.33q-18.1-15.78-74.77-40.89c-22.59-9.74-40.5-17.92-54.13-24.93a318.61,318.61,0,0,1-42.06-26.09c-14.41-10.52-25.31-21-33.1-31.55s-14-23.75-18.7-39.33c-5.06-15.58-7.39-33.1-7.39-53,0-48.68,16.35-87.63,49.06-117.22s74.78-44.4,126.18-44.4c64.65,0,120.73,18.3,168.24,54.52l-44,95.41q-68.34-45.55-122.67-45.56c-19.86,0-35.44,4.67-46.73,13.63s-16.75,21-16.75,36.22q0,24.52,17.53,38.55c11.68,9,38.55,23.37,80.61,42.45q81.2,36.81,115.66,73.6C367.24,1015.27,378.92,1048.76,378.92,1090.82Z"/><path class="cls-1" d="M930.76,1255.94H813.54l-40.89-123.06H583.77l-40.89,123.06H428.77L625.44,685.8H734.09ZM738,1029.29,678.4,844.69,618,1029.29Z"/><path class="cls-1" d="M1338.12,794.85h-136.7v461.09h-114.1V794.85H949.84V685.8H1338.5V794.85Z"/><path class="cls-1" d="M408.13,412.81c0,50.62-17.91,89.18-53.74,116.44s-84.12,40.89-145.26,40.89H0V0H203.68c54.52,0,98.14,12.85,131.24,38.94s49.46,62.7,49.46,109.83c0,56.46-24.93,98.13-74.78,124.62,31.94,13.63,56.47,30.76,73.22,51.79s25.31,49.07,25.31,84.12ZM272.22,168.24q0-64.26-77.11-64.26H111V233.27h78.67C244.57,233.66,272.22,211.86,272.22,168.24Zm22.59,231.33c0-45.57-28.43-68.55-85.68-68.55H111V465.38H212.24c26.1,0,46.35-5.45,60.76-16.75C287.8,437.73,294.81,421.37,294.81,399.57Z"/><path class="cls-1" d="M1338.89,569.75H994.24V0h113.33V453.7h231.71V569.75Z"/><rect class="cls-1" x="482.91" width="387.1" height="116.44"/><rect class="cls-1" x="482.91" y="226.65" width="387.1" height="116.44"/><rect class="cls-1" x="482.91" y="453.31" width="387.1" height="116.44"/></g></g></svg>