<?xml version="1.0" encoding="utf-8"?>
<!-- Generator: Adobe Illustrator 26.3.1, SVG Export Plug-In . SVG Version: 6.00 Build 0)  -->
<svg version="1.1" id="Шар_1" xmlns="http://www.w3.org/2000/svg" xmlns:xlink="http://www.w3.org/1999/xlink" x="0px" y="0px"
	 viewBox="0 0 1082.1 217.1" style="enable-background:new 0 0 1082.1 217.1;" xml:space="preserve">
<style type="text/css">
	.st0{fill:#FFF;}
	.st1{fill:#FFF;}
</style>
<g>
	<g>
		<g>
			<path class="st0" d="M704.4,154.6c0,19.4-6.4,34.7-19.1,45.8c-12.7,11.1-29.3,16.7-49.7,16.7c-28,0-52.4-8.8-73.3-26.4l19.1-34.6
				c18.3,14.4,36,21.5,53.3,21.5c8.3,0,14.9-1.7,19.7-5.2c4.8-3.4,7.1-8.4,7.1-14.9c0-5.9-2.3-10.8-6.8-14.9
				c-4.6-4-14-9.2-28.3-15.5c-8.5-3.6-15.4-6.8-20.5-9.4c-5.2-2.6-10.5-5.9-15.9-9.9c-5.5-3.9-9.6-7.9-12.5-12
				c-2.9-4-5.3-9-7.1-14.9c-1.9-5.9-2.8-12.5-2.8-20c0-18.4,6.2-33.2,18.6-44.4C598.4,5.6,614.4,0,633.8,0
				c24.4,0,45.7,6.9,63.7,20.6l-16.7,36.1c-17.3-11.5-32.8-17.3-46.5-17.3c-7.5,0-13.5,1.7-17.7,5.2c-4.3,3.4-6.4,8-6.4,13.6
				c0,6.3,2.2,11.1,6.7,14.6c4.5,3.4,14.6,8.8,30.5,16.1c20.4,9.3,35,18.6,43.8,27.9C700,126,704.4,138.7,704.4,154.6z"/>
			<path class="st0" d="M927.7,214.3h-43.2l-15.1-45.4h-69.6l-15.1,45.4h-42.1L815.1,4h40L927.7,214.3z M856.6,130.6l-22.1-68.1
				l-22.3,68.1H856.6z"/>
			<path class="st0" d="M1082.1,44.2h-50.5v170h-42.1v-170h-50.8V4h143.3V44.2z"/>
		</g>
	</g>
	<g>
		<path class="st0" d="M150.6,156.3c0,18.6-6.6,32.9-19.9,43c-13.3,10-31.1,15-53.5,15H0V4h75.1c20.1,0,36.3,4.8,48.4,14.4
			s18.3,23.1,18.3,40.6c0,20.8-9.2,36.2-27.6,46c11.8,5,20.8,11.4,27,19.1c6.2,7.7,9.3,18.1,9.3,31.1V156.3z M100.4,66.2
			c0-15.8-9.5-23.7-28.4-23.7h-31v47.8h29C90.2,90.2,100.4,82.2,100.4,66.2z M108.8,151.5c0-16.8-10.5-25.2-31.6-25.2H40.9v49.6
			h37.4c9.7,0,17.2-2.1,22.5-6.2C106.1,165.6,108.8,159.5,108.8,151.5z"/>
		<path class="st0" d="M526.2,214.3H399V4h41.8v167.5h85.4V214.3z"/>
		<g>
			<rect x="199.9" y="4" class="st0" width="142.9" height="43"/>
			<rect x="199.9" y="87.6" class="st1" width="142.9" height="43"/>
			<rect x="199.9" y="171.3" class="st0" width="142.9" height="43"/>
		</g>
	</g>
</g>
</svg>
