<svg xmlns="http://www.w3.org/2000/svg" viewBox="0 0 373.63 300"><defs><style>.cls-1{fill:#fff;}</style></defs><g id="Слой_2" data-name="Слой 2"><g id="Слой_1-2" data-name="Слой 1"><path id="path2" class="cls-1" d="M373.63,298.63V300H317.78L210.18,147.49v-1.37H241c37.84,0,60-23.7,60-54s-22.11-52-60-52H213.83L180.09,1.37V0H243c65.65,0,105.77,33.74,105.77,89.82,0,44.45-25.76,73.63-67,81.84ZM133.81,137.92c32.83-8,49.93-31.92,49.93-62.69C183.74,30.32,148,.46,81.84.46H0V300H89.82c72,0,111.93-36.25,111.93-88.45-.23-39.44-23-66.34-67.94-73.63ZM88,259.88H46.05V40.35H79.79c37.84,0,55.85,17.78,55.85,43.31,0,26.9-20.06,46.51-60,48.56v22.11c51.52,2,77.74,17.78,77.74,52.66s-24.16,52.89-65.65,52.89Z"/></g></g></svg>