<svg xmlns="http://www.w3.org/2000/svg" viewBox="0 0 999 265.92"><defs><style>.cls-1{fill:#000;}</style></defs><g id="Слой_2" data-name="Слой 2"><g id="Слой_1-2" data-name="Слой 1"><g id="layer1"><path id="path5526" class="cls-1" d="M217,190.54l18,49.8s-41.19,25.58-94.15,25.58C48.27,265.92,0,201.83,0,134.08c0-68,49.56-134,143.35-134,51.56,0,89.88,23.33,89.88,23.33l-24.52,47s-28.21-16.3-62.14-16.3c-52.57,0-85.25,34-85.25,79.34,0,42.26,30.09,78.13,83.84,78.13C183.6,211.61,217,190.54,217,190.54Z"/><path id="path5548" class="cls-1" d="M242.35,133.78C242.35,59.66,298.78,0,386,0c52.64,0,94.69,22.77,94.69,22.77L456.45,69.25s-31.07-15-67.45-15c-56.44,0-85.21,35.81-85.21,80.67,0,43.54,29.65,76.77,83.75,76.77a104.75,104.75,0,0,0,42.63-9.34V131.09h53.18a2.79,2.79,0,0,1,2.85,2.85V235.55s-35.14,30.21-102.51,30.21c-81.51,0-141.34-54.81-141.34-132Z"/><path id="path5550" class="cls-1" d="M584,262.14V53.22H499.5V3.37H727.41V53.22h-83.1V262.14Z"/><path id="path5552" class="cls-1" d="M753.05,262.14V3.37h45.26c5.91,0,7.25,3.09,9.81,6.17l132,154.66V3.37H999V262.14H953.46c-5.37,0-6.92-2.74-10.49-6.65L811.35,98.81V262.14Z"/></g></g></g></svg>