<svg xmlns="http://www.w3.org/2000/svg" viewBox="0 0 571.04 548.33"><defs><style>.cls-1{fill:#fff;}</style></defs><g id="Слой_2" data-name="Слой 2"><g id="Слой_1-2" data-name="Слой 1"><path class="cls-1" d="M446.67,0H124.37A124.37,124.37,0,0,0,0,124.37V424A124.36,124.36,0,0,0,124.37,548.33h322.3A124.35,124.35,0,0,0,571,424V124.37A124.36,124.36,0,0,0,446.67,0ZM188.18,468.25H16.27l171.91-71.38Zm109.23,0c1.13,1.13-97.35-1.06-97.35-1.06V371l-44.28,12.94V313.61l141.63-62.68Zm165.46,1.13H314.74v-239L153.58,297.41V199L462.87,63.81Z"/></g></g></svg>