<svg xmlns="http://www.w3.org/2000/svg" viewBox="0 0 1332.68 1110.87"><defs><style>.cls-1{fill:#fff;}</style></defs><g id="Слой_2" data-name="Слой 2"><g id="Слой_1-2" data-name="Слой 1"><path id="_24tv" data-name=" 24tv" class="cls-1" d="M1268.44,470a286.1,286.1,0,0,0,10.38-221C1196.92,48,853.21,1.06,511.28,144.37,182.06,282.52-25.49,546.49,32.64,745.5l-17.71,1.33c-75.29-200.5,141.2-486,491.8-644.11A1092.39,1092.39,0,0,1,946.22,0c177,0,316.5,59.75,367,174.58C1351.4,261.64,1331.85,366.42,1268.44,470ZM271.57,591a1735.56,1735.56,0,0,1,172.64-111.5q94.37-56.55,106.44-108.55a38.49,38.49,0,0,0-10-39.32,57.75,57.75,0,0,0-41.42-14.93,85.68,85.68,0,0,0-68.47,32.09,167.82,167.82,0,0,0-32.2,71.08H257.69C277.07,284.46,398,187.24,534.32,197.4a210.81,210.81,0,0,1,138.54,39.7q55.07,46,34.43,134.59a212.29,212.29,0,0,1-94.84,126.94q-20.66,14.58-87.07,50.47-24.15,13.67-65.63,34.71C432.1,598,413.39,607.9,403.5,614H649.65l-29.87,130.1H173a251.38,251.38,0,0,1,34.42-82.13A341,341,0,0,1,271.57,591Zm436.05-87,316.84-299H1170.6l-71.13,308.18h66.58l-27.37,118.43h-66.47L1046.33,744H897.13L923,631.67H678.14Zm242.76,9.16,38-164.36L823.84,513.12ZM358.31,1099.37a14.68,14.68,0,0,0,3.6,6.33,13.54,13.54,0,0,0,8.11,1.78h30.37c4.61,0,6.22-2.28,4.78-6.78l-16.27-52.53a138.81,138.81,0,0,0-8.77-21.26,26.45,26.45,0,0,0-13.88-12.33,28,28,0,0,0,13-12.05,107.53,107.53,0,0,0,9.61-21.82l14.16-45.81c1.44-4.5-.17-6.77-4.78-6.77H370a12.79,12.79,0,0,0-8.16,1.77,15.16,15.16,0,0,0-3.61,6.33L345.2,977.71a33.63,33.63,0,0,1-4.55,9.66,21.14,21.14,0,0,1-5.72,5.56,19.75,19.75,0,0,1-6.28,2.6,30.38,30.38,0,0,1-6.38.67H307.61V933.62a10.21,10.21,0,0,0-.94-4.22,4.54,4.54,0,0,0-4.67-2.11H270.3a5.57,5.57,0,0,0-4.78,1.78,7.17,7.17,0,0,0-1.33,4.5v168a5.37,5.37,0,0,0,4.66,6,7.52,7.52,0,0,0,1.5,0h31.71a4.64,4.64,0,0,0,4.66-2,8.8,8.8,0,0,0,.95-3.94V1032.9h13.88a26.6,26.6,0,0,1,13.32,3.39,25.47,25.47,0,0,1,9.89,15.33Zm116.6-32.48h53l8.77,32.26a19.93,19.93,0,0,0,2.95,6.33,7.38,7.38,0,0,0,6.16,2h33a3.3,3.3,0,0,0,3.5-1.61,9.77,9.77,0,0,0-.28-4.89L528.44,935.57a19.25,19.25,0,0,0-3.06-5.94,9.16,9.16,0,0,0-7.32-2.17h-33.6a10,10,0,0,0-7.22,2,16.18,16.18,0,0,0-3.16,5.83l-51.42,165.19a7.35,7.35,0,0,0-.28,5.83,5.25,5.25,0,0,0,4,1.22H456a9.38,9.38,0,0,0,5.83-1.61,12.08,12.08,0,0,0,3.5-5.94Zm43.7-32.82h-34.7l8-30.21,8.83-32.92h1.33l8.5,33.31Zm178.46-37.92H645V933.57a10.14,10.14,0,0,0-.94-4.22,4.54,4.54,0,0,0-4.66-2H608.56a5.42,5.42,0,0,0-4.55,1.78,7.12,7.12,0,0,0-1.33,4.49v168a5.2,5.2,0,0,0,4.38,5.94,7.52,7.52,0,0,0,1.5,0h30.93a4.67,4.67,0,0,0,4.67-1.89,9.46,9.46,0,0,0,.94-4v-69.41h52v69.41a5.21,5.21,0,0,0,4.39,5.94,7.52,7.52,0,0,0,1.5,0h30.93a4.77,4.77,0,0,0,4.66-1.89,8.73,8.73,0,0,0,.89-4v-168a11,11,0,0,0-.89-4.22,4.56,4.56,0,0,0-4.66-2H703a5.44,5.44,0,0,0-4.55,1.78,7.27,7.27,0,0,0-1.34,4.5v62.47Zm115.61,70.74h53.08l8.83,32.26a20.12,20.12,0,0,0,2.94,6.33,7.34,7.34,0,0,0,6.11,2h33a3.3,3.3,0,0,0,3.5-1.61,9.13,9.13,0,0,0-.28-4.89L866.26,935.57a19.23,19.23,0,0,0-3-5.94,9.19,9.19,0,0,0-7.33-2.17H822.29a9.92,9.92,0,0,0-7.22,2,16.43,16.43,0,0,0-3.22,5.83l-51.42,165.3a7.35,7.35,0,0,0-.28,5.83,5.21,5.21,0,0,0,4,1.22h29.59a9.35,9.35,0,0,0,5.83-1.61,11.93,11.93,0,0,0,3.5-5.94Zm43.7-32.82H821.79l8-30.21,8.77-32.92h1.34l8.49,33.31Zm152.7-69.91h29v137.38a5.36,5.36,0,0,0,4.66,6,6.27,6.27,0,0,0,1.5,0H1076a4.64,4.64,0,0,0,4.66-1.89,9.39,9.39,0,0,0,.94-4.05V933.84a5.24,5.24,0,0,0-4.1-6.16,6.23,6.23,0,0,0-1.45-.11H976.87a5.32,5.32,0,0,0-5.88,4.78,4.38,4.38,0,0,0,0,1.49q-1.34,25.5-2.94,50.7c-1.06,16.77-2.17,33.82-3.33,51a156.79,156.79,0,0,1-2.28,19.77,37.46,37.46,0,0,1-4.39,12.32,20.06,20.06,0,0,1-7.44,7.22,46.93,46.93,0,0,1-11.1,4.06,14.51,14.51,0,0,0-4.78,2,7.13,7.13,0,0,0-1,4.78,66.92,66.92,0,0,0,.39,8.94,69.12,69.12,0,0,1,.38,8.94,7.18,7.18,0,0,0,1.73,5.55,14.17,14.17,0,0,0,8.66,1.61,83.75,83.75,0,0,0,27.43-4.33,41.06,41.06,0,0,0,17.6-12.05,51.27,51.27,0,0,0,9.88-19.93,177.08,177.08,0,0,0,4.78-28c1.11-10.77,1.83-22.93,2.28-36.59s1.16-28.77,2.27-45.43h0Z"/></g></g></svg>