<svg xmlns="http://www.w3.org/2000/svg" viewBox="0 0 1213.78 183.65"><defs><style>.cls-1{fill:#fff;}</style></defs><g id="Слой_2" data-name="Слой 2"><g id="Слой_1-2" data-name="Слой 1"><path class="cls-1" d="M33.09,132.29A581.72,581.72,0,0,1,91,94.88q31.65-19,35.71-36.42a12.92,12.92,0,0,0-3.37-13.19,19.45,19.45,0,0,0-13.9-5A28.74,28.74,0,0,0,86.48,51,56.37,56.37,0,0,0,75.67,74.87H28.43A87.23,87.23,0,0,1,121.24.24a70.79,70.79,0,0,1,46.48,13.32Q186.2,29,179.27,58.72a71.18,71.18,0,0,1-31.82,42.59q-6.93,4.89-29.21,16.93-8.1,4.59-22,11.65C86.94,134.64,80.67,138,77.35,140h82.59l-10,43.65H0A84.26,84.26,0,0,1,11.55,156.1,114.54,114.54,0,0,1,33.09,132.29Z"/><path class="cls-1" d="M334.72,2.8h-49L179.38,103.1,169.49,146h82.16L243,183.63H293l8.68-37.7H324l9.18-39.74H310.86ZM260.83,106.17H218.38L273.59,51Z"/><path class="cls-1" d="M490.39,172.15a14.8,14.8,0,0,0,3.61,6.33,13.53,13.53,0,0,0,8.11,1.78h30.37c4.61,0,6.22-2.28,4.78-6.78L521,121a138.86,138.86,0,0,0-8.78-21.26,26.41,26.41,0,0,0-13.88-12.33,28,28,0,0,0,13.05-12A107.53,107.53,0,0,0,521,53.49L535.15,7.68c1.44-4.5-.17-6.77-4.78-6.77H502.11A12.79,12.79,0,0,0,494,2.68,15.06,15.06,0,0,0,490.34,9l-13,41.48a33.63,33.63,0,0,1-4.55,9.66A21,21,0,0,1,467,65.7a19.74,19.74,0,0,1-6.28,2.61,30.38,30.38,0,0,1-6.38.67H439.7V6.4a10.22,10.22,0,0,0-.95-4.22A4.53,4.53,0,0,0,434.09.07H402.38a5.56,5.56,0,0,0-4.77,1.78,7.11,7.11,0,0,0-1.33,4.5v168a5.37,5.37,0,0,0,4.66,6,7.52,7.52,0,0,0,1.5,0h31.7a4.65,4.65,0,0,0,4.67-2,8.79,8.79,0,0,0,.94-3.94V105.68h13.88A26.61,26.61,0,0,1,467,109.07a25.46,25.46,0,0,1,9.88,15.33Z"/><path class="cls-1" d="M714.17,173.76,660.53,8.35a19.56,19.56,0,0,0-3-5.94A9.23,9.23,0,0,0,650.15.24h-33.6a10,10,0,0,0-7.21,2,16.05,16.05,0,0,0-3.17,5.83L554.75,173.26a7.31,7.31,0,0,0-.27,5.83,5.24,5.24,0,0,0,4,1.23h29.6a9.45,9.45,0,0,0,5.83-1.61,12.15,12.15,0,0,0,3.5-6l9.6-33.09h53l8.77,32.26a20,20,0,0,0,3,6.33,7.35,7.35,0,0,0,6.16,2h33a3.29,3.29,0,0,0,3.5-1.61A9.77,9.77,0,0,0,714.17,173.76ZM616,106.85l8-30.2,8.83-32.93h1.34L642.65,77l8.05,29.81Z"/><path class="cls-1" d="M829.16,68.93h-52V6.35a10.14,10.14,0,0,0-.94-4.22,4.55,4.55,0,0,0-4.67-2H740.65a5.41,5.41,0,0,0-4.55,1.78,7.06,7.06,0,0,0-1.33,4.49v168a5.2,5.2,0,0,0,4.38,5.94,7.52,7.52,0,0,0,1.5,0h30.93a4.65,4.65,0,0,0,4.66-1.89,9.47,9.47,0,0,0,1-4V105h52v69.41a5.21,5.21,0,0,0,4.39,5.94,7.52,7.52,0,0,0,1.5,0H866a4.79,4.79,0,0,0,4.67-1.89,8.73,8.73,0,0,0,.89-4V6.4a11.2,11.2,0,0,0-.89-4.22,4.56,4.56,0,0,0-4.67-2H835.05A5.46,5.46,0,0,0,830.49,2a7.26,7.26,0,0,0-1.33,4.5V68.93Z"/><path class="cls-1" d="M1052,173.76,998.35,8.35a19.34,19.34,0,0,0-3.05-5.94A9.22,9.22,0,0,0,988,.24H954.38a10,10,0,0,0-7.22,2,16.68,16.68,0,0,0-3.22,5.83l-51.42,165.3a7.35,7.35,0,0,0-.28,5.83,5.26,5.26,0,0,0,4,1.23h29.6a9.45,9.45,0,0,0,5.83-1.61,12.11,12.11,0,0,0,3.5-5.95l9.6-33.2h53.08l8.83,32.26a19.83,19.83,0,0,0,3,6.33,7.29,7.29,0,0,0,6.1,2h33a3.29,3.29,0,0,0,3.5-1.61A9.14,9.14,0,0,0,1052,173.76Zm-98.11-66.91,8-30.2,8.78-32.93H972L980.47,77l8,29.81Z"/><path class="cls-1" d="M1141.16,36.94h29V174.32a5.38,5.38,0,0,0,4.67,6,6.27,6.27,0,0,0,1.5,0h31.7a4.65,4.65,0,0,0,4.67-1.89,9.39,9.39,0,0,0,.94-4V6.62a5.25,5.25,0,0,0-4.11-6.16,6.1,6.1,0,0,0-1.44-.11H1109a5.33,5.33,0,0,0-5.89,4.78,4.65,4.65,0,0,0,.06,1.49q-1.34,25.5-2.94,50.7c-1.06,16.77-2.17,33.82-3.34,51a156.77,156.77,0,0,1-2.27,19.77,37.46,37.46,0,0,1-4.39,12.32,20.21,20.21,0,0,1-7.44,7.22,46.84,46.84,0,0,1-11.11,4.06,14.37,14.37,0,0,0-4.77,2,7.2,7.2,0,0,0-1.06,4.78,66.92,66.92,0,0,0,.39,8.94,67.37,67.37,0,0,1,.39,8.94,7.22,7.22,0,0,0,1.72,5.55,14.22,14.22,0,0,0,8.67,1.61,83.79,83.79,0,0,0,27.43-4.33,41.12,41.12,0,0,0,17.6-12,51.27,51.27,0,0,0,9.88-19.93,179.39,179.39,0,0,0,4.78-28c1.11-10.77,1.83-22.94,2.27-36.59s1.17-28.77,2.28-45.43h0Z"/></g></g></svg>