<svg xmlns="http://www.w3.org/2000/svg" viewBox="0 0 513.49 238.12"><defs><style>.cls-1{fill:#fff;}</style></defs><g id="Слой_2" data-name="Слой 2"><g id="Слой_1-2" data-name="Слой 1"><g id="Слой_2-2" data-name="Слой 2"><g id="Слой_1-2-2" data-name="Слой 1-2"><path id="path1" class="cls-1" d="M39.94,119.13a79.27,79.27,0,0,0,79.15,79.2h74c4.64,0,8.24-4.42,8.24-8.22V45a16.63,16.63,0,0,1,30.93-8.49c.36.64,22.76,39.25,46.47,80.13,22.65,39.07,46.08,79.46,46.45,80.1A6.91,6.91,0,0,0,338,193.13V45a16.62,16.62,0,0,1,30.92-8.49l46.44,80.13c22.63,39.06,46,79.45,46.42,80.1a6.91,6.91,0,0,0,12.81-3.59V1.06H445.45V115.39s-52.83-90.93-54.54-93.85a44.14,44.14,0,0,0-82.05,22.64v71.21S256,24.46,254.31,21.54a44.14,44.14,0,0,0-82.05,22.64v117a7.81,7.81,0,0,1-7.6,8H119.41a50,50,0,0,1,0-100.08h37.68V39.92h-38A79.26,79.26,0,0,0,39.9,119.11"/><path id="path2" class="cls-1" d="M484.33,1.06V193.13a16.63,16.63,0,0,1-30.92,8.5L407,121.5,360.55,41.4A6.9,6.9,0,0,0,347.74,45V193.13a16.63,16.63,0,0,1-30.93,8.5L270.34,121.5,223.89,41.4A6.91,6.91,0,0,0,211.09,45V190.11a18.43,18.43,0,0,1-18,17.94h-74a88.92,88.92,0,0,1,0-177.83h38V1.06H119.17A118.08,118.08,0,0,0,117,237.21h76.86c28.29,0,46.48-16.56,46.45-47.14V122.73s53.2,91.58,54.54,93.85a44.14,44.14,0,0,0,82.05-22.66V122.73s52.83,90.93,54.54,93.85a44.15,44.15,0,0,0,82.06-22.66V1.06Z"/></g></g></g></g></svg>