<svg xmlns="http://www.w3.org/2000/svg" viewBox="0 0 512.4 512.28"><defs><style>.cls-1{fill:none;}.cls-2{fill:#fff;}</style></defs><g id="Слой_2" data-name="Слой 2"><g id="Слой_1-2" data-name="Слой 1"><rect class="cls-1" x="0.01" width="512.39" height="512.28"/><path id="path1" class="cls-2" d="M38.85,256.21A79.28,79.28,0,0,0,118,335.41h74c4.64,0,8.24-4.42,8.24-8.22V182.06a16.63,16.63,0,0,1,30.93-8.49c.36.64,22.76,39.25,46.47,80.13,22.65,39.07,46.08,79.46,46.45,80.1a6.91,6.91,0,0,0,12.82-3.59V182.06a16.62,16.62,0,0,1,30.92-8.49l46.44,80.13c22.63,39.06,46,79.45,46.42,80.1a6.91,6.91,0,0,0,12.81-3.59V138.14H444.36V252.47s-52.83-90.93-54.54-93.85a44.14,44.14,0,0,0-82.05,22.64v71.21s-52.83-90.93-54.55-93.85a44.14,44.14,0,0,0-82.05,22.64v117a7.8,7.8,0,0,1-7.85,8h-45a50,50,0,0,1,0-100.08H156V177H118a79.27,79.27,0,0,0-79.19,79.19"/><path id="path2" class="cls-2" d="M483.24,138.14V330.21a16.63,16.63,0,0,1-30.92,8.5l-46.44-80.13-46.42-80.1a6.9,6.9,0,0,0-12.81,3.58V330.21a16.63,16.63,0,0,1-30.93,8.5l-46.47-80.13-46.45-80.1A6.91,6.91,0,0,0,210,182.06V327.19a18.42,18.42,0,0,1-18,17.94H118a88.92,88.92,0,0,1,0-177.83h38V138.14H118.08a118.08,118.08,0,1,0,0,236.15h74.68c28.29,0,46.48-16.56,46.45-47.14V259.81s53.2,91.58,54.54,93.85A44.14,44.14,0,0,0,375.8,331V259.81s52.83,90.93,54.54,93.85A44.15,44.15,0,0,0,512.4,331V138.14Z"/></g></g></svg>