<svg xmlns="http://www.w3.org/2000/svg" viewBox="0 0 645.71 459.09"><defs><style>.cls-1{fill:#fff;}</style></defs><g id="Слой_2" data-name="Слой 2"><g id="Слой_1-2" data-name="Слой 1"><path class="cls-1" d="M147,176.77A325.42,325.42,0,0,0,102,180c-27.35,4-49.42,11.17-66.29,19.66S7.09,217.08,0,228.26l28.1,17.9c1.65-2.57,9.32-10.14,22.54-16.8s32-13,56.12-16.43c48.35-7,118.53-2.81,210.94,31.15,193.26,71,295.94,24.68,328-16.74l-26.33-20.4c-16.49,21.32-105.18,73.85-290.18,5.87-72.54-26.7-133.3-36.29-182.23-36Z"/><path class="cls-1" d="M322.66,0C196.09,0,93.14,103,93.13,229.54S196.07,459.09,322.66,459.09s229.53-103,229.53-229.55S449.21,0,322.66,0Zm0,33.35A196.23,196.23,0,1,1,126.44,229.54,195.95,195.95,0,0,1,322.66,33.35Z"/></g></g></svg>