<svg xmlns="http://www.w3.org/2000/svg" viewBox="0 0 188.36 153.28"><defs><style>.cls-1{fill:#b2b2b2;}.cls-2{fill:#fff;}.cls-3{isolation:isolate;opacity:0.3;}</style></defs><g id="Слой_2" data-name="Слой 2"><g id="Слой_1-2" data-name="Слой 1"><polygon class="cls-1" points="135.16 101.34 140.41 131 113.76 117.87 89.06 131.93 82.75 125.62 90.4 100.78 74.68 85.78 96.7 80.34 107.45 45.45 113.76 51.76 124.29 71.87 151.67 71.87 157.97 78.17 135.16 101.34"/><path class="cls-2" d="M188.36,73.4C188.31,8.28,170-4.61,90.11,1.28l-.57,0C15.53,6.86,0,21,0,80.38v.45c0,59.37,15.53,72.38,89.54,72.44h.57q4.14,0,8-.05,3.24,0,6.67.05h.49q5.31,0,10.2-.1,4.24.11,9,.11h.38c51.79,0,63.48-9.06,63.51-50.45v-.31q0-3.87-.15-7.37.15-4.05.15-8.47v-.41c0-2,0-4-.07-5.84q.08-3.18.07-6.54Zm-16.67,1q0,2.72-.06,5.28-.09,4.19-.33,8c.12,1.37.21,2.79.27,4.28q.12,2.85.12,6v.26c0,34.06-9.64,41.52-52.27,41.52h-.31c-2.61,0-5.08,0-7.43-.1-1.69-.05-3.3-.11-4.86-.2q-4.57.2-9.55.24c-2.09,0-4.24.05-6.44.05h-.47C29.45,139.66,16.7,129,16.66,80.09v-.37c0-48.87,12.79-60.52,73.7-65.07l.47,0c65.74-4.85,80.83,5.77,80.86,59.36Z"/><path class="cls-1" d="M171.69,74v.41q0,2.72-.06,5.28c-1-40.72-14.72-49-68.28-45.68l-.4,0c-52.18,3.28-63.17,13.07-63.2,54.66V89c0,40,10.21,50,57.52,50.69-2.09,0-4.24.05-6.44.05h-.47C29.45,139.66,16.7,129,16.66,80.09v-.37c0-48.87,12.79-60.52,73.7-65.07l.47,0C156.57,9.76,171.66,20.38,171.69,74Z"/><g class="cls-3"><path class="cls-1" d="M106.82,139.42c1.56.09,3.17.15,4.86.2q-4,.09-8.33.09H103c-2,0-3.84,0-5.68-.05Q102.25,139.62,106.82,139.42Z"/><path class="cls-1" d="M171.69,84.56v.34q0,3.67-.12,7c-.06-1.49-.15-2.91-.27-4.28q.24-3.81.33-8C171.67,81.24,171.69,82.88,171.69,84.56Z"/></g><polygon class="cls-2" points="107.45 45.45 120.52 70.42 151.67 71.86 128.85 95.03 134.11 124.7 107.45 111.56 82.75 125.62 87.33 97.56 68.38 79.47 94.87 72.92 107.45 45.45"/></g></g></svg>