<?xml version="1.0" encoding="UTF-8" standalone="no"?>
<!-- Created with Inkscape (http://www.inkscape.org/) -->
<svg
   xmlns:dc="http://purl.org/dc/elements/1.1/"
   xmlns:cc="http://web.resource.org/cc/"
   xmlns:rdf="http://www.w3.org/1999/02/22-rdf-syntax-ns#"
   xmlns:svg="http://www.w3.org/2000/svg"
   xmlns="http://www.w3.org/2000/svg"
   xmlns:xlink="http://www.w3.org/1999/xlink"
   xmlns:sodipodi="http://sodipodi.sourceforge.net/DTD/sodipodi-0.dtd"
   xmlns:inkscape="http://www.inkscape.org/namespaces/inkscape"
   width="264"
   height="82"
   id="svg2"
   sodipodi:version="0.32"
   inkscape:version="0.45.1"
   version="1.0"
   inkscape:output_extension="org.inkscape.output.svg.inkscape">
  <g
     inkscape:label="Layer 1"
     inkscape:groupmode="layer"
     id="layer1"
     transform="translate(-18.538813,-958.09116)">
    <g
       clip-path="url(#id181)"
       id="g10431"
       transform="matrix(11.05398,0,0,-11.05398,-232.76679,9126.3302)">
          <path
   style="fill:#FFF;fill-rule:nonzero;stroke:none"
   d="M 38.8516,737.336 L 41.6445,737.336 L 43.5586,733.953 L 45.4766,737.336 L 46.6172,737.336 L 46.6172,737.156 L 44.5273,733.492 C 44.3555,733.129 43.9883,732.879 43.5586,732.879 C 43.1328,732.879 42.7656,733.129 42.5938,733.492 L 41.0078,736.273 L 38.8516,736.273 L 38.8516,734.242 C 38.8516,734.098 38.9688,733.977 39.1172,733.977 L 41.3242,733.977 L 41.3242,732.918 L 39.1172,732.918 C 38.3867,732.918 37.7891,733.512 37.7891,734.242 L 37.7891,738.273 L 38.8516,738.273"
   id="path10433" />

          <path
   style="fill:#FFF;fill-rule:nonzero;stroke:none"
   d="M 28.5039,738.02 L 26.7266,734.949 L 26.0039,735.367 L 27.7773,738.441"
   id="path10435" />

          <path
   style="fill:#FFF;fill-rule:nonzero;stroke:none"
   d="M 27.9063,738.941 L 24.9844,738.941 C 23.7422,738.941 22.7344,737.938 22.7344,736.695 L 22.7344,733.77 C 22.7344,732.531 23.7422,731.523 24.9844,731.523 L 27.9063,731.523 C 29.1484,731.523 30.1523,732.531 30.1523,733.77 L 30.1523,736.695 C 30.1523,737.938 29.1484,738.941 27.9063,738.941 M 29.2344,733.895 C 29.2344,733.094 28.582,732.441 27.7813,732.441 L 25.1094,732.441 C 24.3047,732.441 23.6563,733.094 23.6563,733.895 L 23.6563,736.277 L 24.8438,735.59 L 25.2656,736.316 L 23.7891,737.168 C 24.0156,737.672 24.5195,738.023 25.1094,738.023 L 27.7813,738.023 C 28.582,738.023 29.2344,737.371 29.2344,736.57"
   id="path10437" />

          <path
   style="fill:#FFF;fill-rule:nonzero;stroke:none"
   d="M 36.9805,734.742 L 36.9805,736.008 C 36.9805,736.742 36.3867,737.336 35.6563,737.336 L 33.0039,737.336 C 32.2734,737.336 31.6797,736.742 31.6797,736.008 L 31.6797,734.242 C 31.6797,733.512 32.2734,732.918 33.0039,732.918 L 36.9805,732.918 L 36.9805,733.977 L 33.0039,733.977 C 32.8594,733.977 32.7422,734.098 32.7422,734.242 L 32.7422,734.742 L 36.9805,734.742 z M 32.7422,735.949 C 32.7422,736.098 32.8594,736.273 33.0039,736.273 L 35.6563,736.273 C 35.8008,736.273 35.9219,736.156 35.9219,736.008 L 35.9219,735.566 L 32.7422,735.566"
   id="path10439" />

        </g>
  </g>
</svg>
