<svg xmlns="http://www.w3.org/2000/svg" viewBox="0 0 338.72 466.46"><defs><style>.cls-1{fill:#fff;fill-rule:evenodd;}</style></defs><g id="Слой_2" data-name="Слой 2"><g id="Слой_1-2" data-name="Слой 1"><path class="cls-1" d="M119.41,424.49V396a29.84,29.84,0,0,0-29.84-29.84H29.87A29.83,29.83,0,0,0,0,396v39.79a29.84,29.84,0,0,0,29.84,29.83h89.54V441.7H29.87a6,6,0,0,1-5.95-5.95V424.49ZM23.92,397.28c0-3.29,2.66-7.28,5.95-7.28h59.7a6,6,0,0,1,6,6v9.93H23.92Z"/><path class="cls-1" d="M338.7,366.12l-49.33,86.52a24.09,24.09,0,0,1-43.58,0L210.06,390H161.53v45.73a6,6,0,0,0,6,6h49.75v23.88H167.49a29.85,29.85,0,0,1-29.85-29.83V344.91h23.89v21.21h62.94l43.11,76.13,43.12-76.13Z"/><path class="cls-1" d="M338.72,259v68H0V275.6c0-20.88-.9-38.11,7.15-51.68A92.16,92.16,0,0,1,40.74,191Q62.21,179,91.29,171.35t62.64-13.42q53.23-9.41,81-19.46T262.65,106q0-21-19-31.77c-12.67-7.15-33-10.74-62.25-10.74q-52.8,0-78.3,17.45t-25.5,52.8H.63q0-62.64,44.51-98.21T182.72,0A350.44,350.44,0,0,1,234,3.35q22.83,3.36,40.27,10.51,34.46,13.88,49.44,37.81t15,54.36a94.2,94.2,0,0,1-4,28.41,62.49,62.49,0,0,1-12.08,22.15q-16.56,19.68-49.88,32t-85.24,22.15q-19.68,3.59-35.57,7.16t-28,6.71q-23.7,5.82-34.45,13.65c-7.16,5.22-6.11,12.15-6.7,20.8Z"/></g></g></svg>