<svg xmlns="http://www.w3.org/2000/svg" viewBox="0 0 307.4 88.98"><defs><style>.cls-1,.cls-2{fill:#fff;}.cls-2{fill-rule:evenodd;}</style></defs><g id="Слой_2" data-name="Слой 2"><g id="Слой_1-2" data-name="Слой 1"><path class="cls-1" d="M101.9,17.25h39.7l27.21,48,27.2-48h17.67L182.55,71.84a15.2,15.2,0,0,1-27.49,0L132.51,32.32H101.9V61.17a3.76,3.76,0,0,0,3.76,3.77H137V80H105.66A18.84,18.84,0,0,1,86.82,61.18V3.87H101.9ZM60.25,36.09a3.76,3.76,0,0,0-3.76-3.77H18.83c-2.08,0-3.76,2.51-3.76,4.59v5.45H60.26V36.09Zm-45.18,18v7.1a3.76,3.76,0,0,0,3.75,3.76h56.5V80H18.83A18.83,18.83,0,0,1,0,61.18V36.07A18.83,18.83,0,0,1,18.83,17.25H56.49A18.83,18.83,0,0,1,75.32,36.07v18Z"/><path class="cls-2" d="M245.37,0h35.07a27,27,0,0,1,27,27V62a27,27,0,0,1-27,27H245.37a27,27,0,0,1-27-26.95V27A27,27,0,0,1,245.37,0Zm46.72,71.36V59H249.45v-.28a6.76,6.76,0,0,1,1.05-4.13A4.47,4.47,0,0,1,253.81,53l26.13-2.45a13,13,0,0,0,8.59-3.78,12,12,0,0,0,3.07-8.53v-9q0-6.81-4-9.92t-12.79-3.11H255q-11.18,0-15.28,3.66c-2.74,2.43-4.11,6.81-4.11,13.1v3.84h13.82a.31.31,0,0,0,.05-.12.88.88,0,0,0,0-.17,1.31,1.31,0,0,0,0-.31c0-.11,0-.21,0-.32q0-3.95,1.91-5.59c1.29-1.1,3.54-1.65,6.77-1.65h12.75a10.74,10.74,0,0,1,5,.9,2.88,2.88,0,0,1,1.66,2.68V35A3,3,0,0,1,276,37.78,14.55,14.55,0,0,1,270.46,39l-22.94,2.13a14.09,14.09,0,0,0-8.67,3.47,9.87,9.87,0,0,0-3.22,7.54V71.36Z"/></g></g></svg>