<svg xmlns="http://www.w3.org/2000/svg" viewBox="0 0 500 120.17"><defs><style>.cls-1{fill:#fff;}</style></defs><g id="Слой_2" data-name="Слой 2"><g id="Слой_1-2" data-name="Слой 1"><path class="cls-1" d="M23.6,51.8c0-3.3,2.6-7.2,5.9-7.2h59a5.85,5.85,0,0,1,5.9,5.9v9.8H23.6Zm5.9,67.5h88.4V95.6H29.4a5.89,5.89,0,0,1-5.8-5.9V78.6h94.3V50.4A29.49,29.49,0,0,0,88.4,20.9h-59A29.6,29.6,0,0,0,0,50.4V89.7a29.64,29.64,0,0,0,29.5,29.6"/><path class="cls-1" d="M264.4,96.2,221.8,21H159.6V0H136V89.7a29.49,29.49,0,0,0,29.5,29.5h49.2V95.6H165.5a5.85,5.85,0,0,1-5.9-5.9V44.6h48l35.3,61.9a23.83,23.83,0,0,0,31.7,11.4A24.25,24.25,0,0,0,286,106.5L334.7,21H307Z"/><path class="cls-1" d="M409.9,40.8H392.7a12.29,12.29,0,0,0-12.3,12.3V66.7A12.29,12.29,0,0,0,392.7,79H410l19-19.1Z"/><path class="cls-1" d="M499.9,53.1a12.29,12.29,0,0,0-12.3-12.3H459.2V12.4A12.29,12.29,0,0,0,446.9.1H433.3A12.29,12.29,0,0,0,421,12.4V29.6l19.1,19.1,11.1,11.1L440.2,71,421.1,90.1v17.2a12.29,12.29,0,0,0,12.3,12.3H447a12.29,12.29,0,0,0,12.3-12.3V79h28.4A12.29,12.29,0,0,0,500,66.7l-.1-13.6Z"/></g></g></svg>