<svg xmlns="http://www.w3.org/2000/svg" viewBox="0 0 410.88 208.54"><defs><style>.cls-1{fill:#fff;}</style></defs><g id="Слой_2" data-name="Слой 2"><g id="Слой_1-2" data-name="Слой 1"><path id="path25719" class="cls-1" d="M63.22,206.19V159.63a27.29,27.29,0,0,0-1.53-9.95,21.67,21.67,0,0,0-4.62-7.3,19.82,19.82,0,0,0-6.67-4.56,21,21,0,0,0-8.22-1.63,21.26,21.26,0,0,0-8.3,1.64,20.07,20.07,0,0,0-6.71,4.59,21.83,21.83,0,0,0-4.66,7.3,27.09,27.09,0,0,0-2,9.95v46.52H0V158.74a46.11,46.11,0,0,1,3.42-17.23,40.13,40.13,0,0,1,22.44-22.42,44.65,44.65,0,0,1,32.59,0,39.91,39.91,0,0,1,22.38,22.44,45.75,45.75,0,0,1,3,17.27v47.41Z"/><path id="path25721" class="cls-1" d="M131,208.54c-24.76,0-44.89-20.75-44.89-46.26S106.25,116,131,116s44.89,20.76,44.89,46.28a49,49,0,0,1-.52,7.06l-.11.7H105.16l.3,1A26.93,26.93,0,0,0,131,190a26.11,26.11,0,0,0,17.19-6.46s1.31-1.13,1.47-1.29h21.85l-.61,1.23A44.65,44.65,0,0,1,131,208.54m0-74a26.9,26.9,0,0,0-25.54,19l-.3.95h51.67l-.3-.95a26.89,26.89,0,0,0-25.53-19"/><path id="path25723" class="cls-1" d="M173.13,118.36v-.53h22.25c2.72,21.31,9.7,55.09,15.74,70.36,6.39-15.27,13.85-49.05,16.57-70.36h18.46c2.85,21.31,10.19,53.68,16.69,70.36,6-16.68,12.9-49.05,15.75-70.36h22.13v.53c-5.09,33.26-14.8,67.47-23.08,87.83h-27.7a237.57,237.57,0,0,1-13-43.45C234.2,178,228.17,196,224,206.19H196.33c-9.72-22.26-20.27-59.58-23.2-87.83"/><path id="path25725" class="cls-1" d="M299.63,202.31V185.43h.93A98.74,98.74,0,0,0,324.19,189h4.55c7.2,0,12.68-2.21,12.68-9.54,0-5.47-4.78-7.67-10-9.07l-13.62-3.61c-10-2.56-18.16-9.55-18.16-24.56,0-17.68,14.55-25,32.24-25h4.54c5.47,0,16.41,1.4,21.42,3.26v16.76h-.93a107.25,107.25,0,0,0-20.49-2.68h-4.07c-6.4,0-11.88,1.28-11.88,7.68,0,5,3.73,7,8.27,8.15l13.62,3.72c13.15,3.49,20,11.29,20,25.37,0,19.55-14.08,26.88-33.63,26.88h-4.54a91.23,91.23,0,0,1-24.56-4.07"/><path id="path25727" class="cls-1" d="M410.88,187.75a18.67,18.67,0,1,1-18.67-18.65,18.66,18.66,0,0,1,18.67,18.65"/><path id="path25713-5" class="cls-1" d="M76.5,69A35.22,35.22,0,0,1,47.76,84.14c-16.52,0-31.08-12.08-34.62-28.71L13,54.82H93.79A42.19,42.19,0,0,0,94.14,48h0v-.31C94.14,21.39,73.34,0,47.76,0S1.39,21.39,1.39,47.68,22.2,95.37,47.76,95.37A46.15,46.15,0,0,0,89,69.52l1.15-2.33H77.65c-.43.71-.85,1.33-1.15,1.76M12.61,43C14.89,24.9,30,11.23,47.76,11.23S80.65,24.9,82.91,43l.08.55H12.54Z"/><path id="path25715-7" class="cls-1" d="M152,95.39a39.4,39.4,0,0,1-14.61-2.73,35.28,35.28,0,0,1-19.85-19.81,41,41,0,0,1-2.65-15.52V1.85h10.71V56.43a32.44,32.44,0,0,0,1.91,11.87,26.75,26.75,0,0,0,5.75,9,25.07,25.07,0,0,0,8.45,5.75,26.54,26.54,0,0,0,10.27,2,26.88,26.88,0,0,0,10.36-2,25.47,25.47,0,0,0,8.48-5.78,27.07,27.07,0,0,0,5.79-9A32.29,32.29,0,0,0,179,56.42V1.85h10.69V57.34a41.22,41.22,0,0,1-3.08,15.49,35.43,35.43,0,0,1-19.92,19.81A39.18,39.18,0,0,1,152,95.39Z"/><path id="path25717-6" class="cls-1" d="M212.67,92.91V40.39A46.87,46.87,0,0,1,214.05,29a37.38,37.38,0,0,1,6.19-13.36,35.34,35.34,0,0,1,14.1-11.1c6.72-3,15-4.54,24.48-4.54h1.8V11.44h-1.76a51.47,51.47,0,0,0-17.73,2.7,26,26,0,0,0-10.41,6.8,24,24,0,0,0-5.1,9.24,35.81,35.81,0,0,0-1.41,10.22V92.91Z"/><path id="path25729-2" class="cls-1" d="M314.5.18c-25.77,0-46.66,21.35-46.66,47.69s20.89,47.68,46.66,47.68,46.65-21.35,46.65-47.68S340.26.18,314.5.18m0,82.37c-18,0-32.61-15.56-32.61-34.68s14.63-34.68,32.61-34.68,32.6,15.55,32.6,34.68-14.63,34.68-32.6,34.68"/></g></g></svg>