<svg xmlns="http://www.w3.org/2000/svg" viewBox="0 0 1920 313.82"><defs><style>.cls-1{fill:#fff;}</style></defs><g id="Слой_2" data-name="Слой 2"><g id="Слой_1-2" data-name="Слой 1"><path class="cls-1" d="M0,15.58H172V84.36H80.25v43h83.1v65.91H80.25v108.9H0Z"/><path class="cls-1" d="M219.72,15.58H338.45c95.8,0,99.07,72.87,99.07,86,0,54-33.16,76.56-60.18,86l80.24,114.63h-97L300,207.6v94.57H219.71V15.58Zm99.9,129c28.66,0,37.67-16.37,37.67-33.16,0-16-9-32.75-37.67-32.75H300v65.91Z"/><path class="cls-1" d="M491.09,15.58H663V84.36H571.33v40.12h83.1v63.05h-83.1v45.84H663v68.78H491.09Z"/><path class="cls-1" d="M719.87,15.58h172V84.36H800.11v40.12h83.1v63.05h-83.1v45.84h91.71v68.78h-172Z"/><path class="cls-1" d="M1617,15.58h80.24l50.35,174.82L1798,15.58h80.25L1920,302.16h-77l-21.29-166.22-48.31,166.22h-51.58l-48.31-166.22-21.29,166.22h-77Z"/><path class="cls-1" d="M990.89,302.28v-.12h165.4v.12h68.78V233.37h-34.39V15.58H979.43V140.85c0,9,.41,18-.41,27-3.27,44.62-30.71,64.27-56.91,65.5v68.91h68.78Zm62.23-150v-68h57.31v149h-87.61C1050.26,216.59,1053.12,186.71,1053.12,152.32Z"/><path class="cls-1" d="M1242.84,157.42a157.42,157.42,0,0,1,314.84,0"/><path class="cls-1" d="M1242.84,156.4a157.42,157.42,0,1,0,314.84,0"/></g></g></svg>