<svg xmlns="http://www.w3.org/2000/svg" viewBox="0 0 480.62 1121.88"><defs><style>.cls-1{fill:#fff;}</style></defs><g id="Слой_2" data-name="Слой 2"><g id="Слой_1-2" data-name="Слой 1"><path class="cls-1" d="M420.21,0H386.56c-36.8,5.5-146.31,24.84-235.4,87.8C120,109.8,93.05,136,82,146.69c-49.65,48.13-63.11,75.5-67.3,84.56A209.38,209.38,0,0,0,0,275.25c0,16.88,6.06,33.28,15.44,48.06s22.11,27.91,35.43,38.27l33.67,26.16L77.67,1060c-.1,10.23,3.38,24.64,8.87,36.73.34.76.74,1.55,1.22,2.41a44.12,44.12,0,0,0,63.67,14.91L390.78,948.94l.27-.19a225.68,225.68,0,0,0,48.14-46.36c14.8-19.23,25-41.18,31.11-67.12,1.57-6.64,2.87-13.49,3.9-20.66h0a188.29,188.29,0,0,0,6.42-50.11V38.83C480.62,17.38,441.66,0,420.21,0ZM124.71,1060.48l6.36-623.16a6.6,6.6,0,0,1,6.6-6.53h0a6.6,6.6,0,0,1,4.05,1.39l164.65,128q4.26,3.3,8.2,7l48.34,45.41a113.42,113.42,0,0,1,8.82,9.26l51,59.79.08.09a31.79,31.79,0,0,1,7.58,20.59v62.44c0,49.8-8.77,83.41-28.44,109a178.65,178.65,0,0,1-38,36.61L127.73,1073.27C125.69,1067.65,124.69,1062.34,124.71,1060.48Z"/></g></g></svg>