<svg xmlns="http://www.w3.org/2000/svg" viewBox="0 0 512.39 512.28"><defs><style>.cls-1{fill:none;}.cls-2{fill:#fff;fill-rule:evenodd;}</style></defs><g id="Слой_2" data-name="Слой 2"><g id="Слой_1-2" data-name="Слой 1"><rect class="cls-1" width="512.39" height="512.28"/><polygon class="cls-2" points="512.39 361.18 444.68 361.18 413.76 310.21 383.58 361.09 317.43 361.09 379.72 254.26 319.17 154.53 387.26 154.53 413.48 197.68 438.79 154.62 505.86 154.62 447.07 253.72 512.39 361.18"/><path class="cls-2" d="M240.23,155.49A107.93,107.93,0,0,0,132.4,259,106.17,106.17,0,0,0,240.23,363.39h.18A106.17,106.17,0,0,0,348.06,259,107.91,107.91,0,0,0,240.23,155.49Zm19,146a19,19,0,0,1-37.81,0V213.42a19.25,19.25,0,0,1,18.4-19.06,19.79,19.79,0,0,1,19.41,19.06Z"/><polygon class="cls-2" points="61.55 237.88 122 237.88 122 294.39 61.55 294.39 61.55 361.74 0 361.74 0 154.25 131.1 154.25 135.16 210.93 61.55 210.93 61.55 237.88"/></g></g></svg>