<svg xmlns="http://www.w3.org/2000/svg" viewBox="0 0 924.15 878.05"><defs><style>.cls-1{fill:#fff;}</style></defs><g id="Слой_2" data-name="Слой 2"><g id="Слой_1-2" data-name="Слой 1"><g id="layer1"><g id="g3153"><g id="g1680"><path id="path1682" class="cls-1" d="M601.87,878.05H781.65c45-14.15,92.42-30.34,142.5-48.89V768.47c-87.93,42.63-191.91,78.83-301.92,105-6.83,1.63-13.58,3-20.36,4.57"/></g><g id="g1684"><path id="path1686" class="cls-1" d="M21.66,812.72c-3.92-18.79,0-39.27,11.81-61L33,750.25a1,1,0,0,0-1.48.06C10.59,778,0,804.44,0,829.14a84.67,84.67,0,0,0,1.76,17.23A84,84,0,0,0,16.15,878H82.76c-33.87-16.47-55.38-38.34-61.1-65.32"/></g><g id="g1688"><path id="path1690" class="cls-1" d="M244.69,647.26c53.44,35.92,186,37,330,2.85s263.55-95.24,297.39-151.83c8.07-13.43,11-26.27,8.43-37.93-5.47-26.23-36.63-44.59-89.68-53.23a1.37,1.37,0,0,0-1.33.9,1.35,1.35,0,0,0,.86,1.56c32.33,8.17,51.42,22,55.3,39.68,11.22,53.1-113.59,127.85-278,167-130.2,30.92-253.61,30.58-300.1-.69-10.34-7-16.64-15.29-18.57-24.68-3.72-17.71,8-38.75,34-61a1.15,1.15,0,0,0,.1-1.59,1,1,0,0,0-1.48-.26c-44.64,31.68-65.25,62.3-59.8,88.57,2.46,11.88,10.1,22,22.83,30.65"/></g><g id="g1696"><path id="path1698" class="cls-1" d="M155.41,730.55c-16.21-10.79-26-23.85-29.12-38.66-3.88-18.25,2.47-38.54,18.87-60.14A1.5,1.5,0,0,0,145,630a1.34,1.34,0,0,0-1.55,0c-33.19,33.06-47.67,65-41.85,92.62,3.7,17.47,15,32.59,33.73,45.22,76.73,51.53,263.77,54,465.58,6.11,126.47-30,240.77-75.25,323.29-127.4V597c-76.73,55.2-197.21,105.06-331.65,137.12-191,45.19-366.68,43.81-437.09-3.6"/></g><g id="g1700"><path id="path1702" class="cls-1" d="M391.66,501.9c14.42-24.11,71-51.94,137.57-67.77S658,417.94,681,433.34c4.61,3.11,7.48,6.88,8.34,11,5.31,25.56-57.86,62.15-140.6,81.83-66.58,15.83-129,16.17-151.78.84-4.72-3.24-7.57-7-8.43-11.28-.94-4,.15-8.92,3.17-13.87m161.93,48C633.88,530.74,700.21,497,719,465.63c4.48-7.29,6-14.47,4.68-20.93-7.25-34.12-95.24-42.29-196.18-18.35S350.34,497.58,357.46,531.64s95.17,42.14,196.13,18.29"/></g><g id="g1736"><path id="path1738" class="cls-1" d="M502.05,74.24h-.36L465.1,3.17H425.39V136.24H462.1V63.48h.28L501,136.24h37.68V3.17H502.05Zm117.77,32c-18,0-23.89-18.55-23.89-36.53s5.94-36.6,23.89-36.6c16,0,19.56,14.8,20.33,19.64h37.6C674.42,19.3,655.47.07,620.9,0c-38.69,0-63.76,27.73-63.76,69.67,0,39.4,23.06,69.72,63.76,69.72,36.73,0,57.38-28.52,57.38-55.33H640.22c-2.34,12.48-7.34,22.14-20.4,22.14M273.73,48.06c0-29-16.51-44.89-46.45-44.89H163.12V136.24h38.1V91h13.15c1.74,3.52,22.11,45.27,22.11,45.27h41.06S254.36,90.3,250.82,83.87c14-6.13,22.91-19.6,22.91-35.81M224.88,60.43H201.22V33.75h23.66c8.21,0,12.28,4.47,12.28,13.36s-4.07,13.32-12.28,13.32M799.13,34.05V3H695.44V136.24H799.13v-31H736.72V85.07h51.72V54.13H736.72V34.05ZM49.07,136.24H90.35v-45h45.08V60.05H90.35v-26H147V3H49.07ZM328.41,3.17l-45,133.07h40.36l4.63-17.65h40.87l4.94,17.65h41L370.23,3.17Zm7.81,87.74L349,43.21l13.25,47.7Z"/></g><g id="g1740"><path id="path1742" class="cls-1" d="M405.71,305.89V171.78H340.82l-103.7,128v53.91H138.49v-.34c42.78-27.69,99.44-47.07,99.44-108.69,0-51.12-37.44-75.57-92.66-75.57-61,0-99.79,37.9-96.2,104h61.35c-.77-29.4,8.11-49.47,34.27-49.47,15.16,0,27.36,7.63,27.36,29.35,0,17.7-19,27.24-30.62,34.85-29.12,18.79-61.59,37.12-80.66,65.13A94.24,94.24,0,0,0,44.5,412.47H241.19V364.58h96.69v47.89h67.83V364.58H436.4V305.89Zm-67.83,0H282.51l55.37-67.36Z"/></g></g></g></g></g></svg>