<svg xmlns="http://www.w3.org/2000/svg" viewBox="0 0 564.99 587"><defs><style>.cls-1{fill:#000;}</style></defs><g id="Слой_2" data-name="Слой 2"><g id="Слой_1-2" data-name="Слой 1"><path class="cls-1" d="M557.38,12.84H565v-11H335.69V14.67h15.78a31,31,0,0,1,31,31V210H180.68V50.84a38,38,0,0,1,38-38h9.7V0H0V15.59H15.77a31,31,0,0,1,31,31V541.33a31,31,0,0,1-31,31H0V587H226.54V575.08h-.86a45,45,0,0,1-45-45V336.61H384.3V535.25a38,38,0,0,1-38,38h-7.86V587H564.07V574.16h-7.69a40,40,0,0,1-40-40V53.84A41,41,0,0,1,557.38,12.84ZM456.82,531.37H445.75V277.17H119.29v254.2H108.22V47.54h11.07V266.11H445.75V47.54h11.07Z"/></g></g></svg>