<svg xmlns="http://www.w3.org/2000/svg" viewBox="0 0 512.42 512.28"><defs><style>.cls-1{fill:none;}.cls-2{fill:#fff;}</style></defs><g id="Слой_2" data-name="Слой 2"><g id="Слой_1-2" data-name="Слой 1"><rect class="cls-1" x="0.02" width="512.39" height="512.28"/><path class="cls-2" d="M34,128c-21.14,0-34,15-34,33.61H0v.16H0c.08,18.19,12.41,33.77,34,33.77,10.74,0,19.19-3.8,25-9.94s8.94-14.53,9-23.83h0v-.16h0c0-9.26-3.11-17.57-8.91-23.65S44.71,128,34,128Z"/><path class="cls-2" d="M175.87,145.51c-12.72,0-23.1,2.24-28.43,7.11-3.87,3.52-5.1,7.6-5.1,15.14v126.7c0,10.76-1,18.56-2.88,25A34.51,34.51,0,0,1,131.29,334c-6.14,6.79-16.06,11-28.09,11-11.07,0-20.76-3.76-26.95-10.07a29.83,29.83,0,0,1-6.73-12.13,57.14,57.14,0,0,1-1.9-16.07V223.63a5.49,5.49,0,0,0-1.27-4c-.85-.87-2.13-1.27-4.14-1.27H5.88c-2,0-3.4.39-4.23,1.26a5.58,5.58,0,0,0-1.23,4v74.73c0,13.31,1.52,25.36,5.5,36a67.06,67.06,0,0,0,17.52,26,69.75,69.75,0,0,0,12.37,9.08C53,379.56,75.18,384.31,97.45,384.31a126.2,126.2,0,0,0,55.75-13A86.07,86.07,0,0,0,172.86,358c8.34,7.5,19,13.35,31.3,17.76a154.5,154.5,0,0,0,51.28,8.56c24.67,0,45.54-5.52,62.55-15.47a102,102,0,0,0,35.74-35.27c6.32,9.66,13.3,20.18,21.4,32.49,4.52,6.69,9,11.27,14.38,14.13,5.66,3,12.14,4,21.35,4,9.69,0,18.1-1,25.87-6.31,4.84-3.46,7.64-6.79,11.28-12.35,14.93-22.68,29-48.89,40.76-74.34,7.6-16.47,14.82-33.86,20.41-49,1.08-3.31,2-5.86,2.88-9.15.56-2.46.58-4.19-.71-5.59a11.18,11.18,0,0,0-4.27-2.65l-1.49-.44-15.69-4.5c-7.29-2.48-11.81-3.79-13.58-3.79a6.25,6.25,0,0,0-4.24,1.37,9.4,9.4,0,0,0-2.39,4.26c-5.58,18.45-11.38,34.39-16.56,47.75-3.19,8.23-6.49,16.22-10,24.17A361.44,361.44,0,0,1,425.44,329c-5.07-9.82-8.52-16-15.2-28-2.32-4.19-4.44-8-6.35-11.43-1.24-2.37-3.28-5.79-5.21-9-4.44-7.66-5.05-8.61-13.51-23.28-5.76-9.9-9.4-16.56-16.24-28.16h0c-3.37-5.51-6.24-8.89-9.33-11s-6.94-2.78-10.91-2.78c-8.68,0-20.19,3.9-29.25,9.92a51.72,51.72,0,0,0-8.6,6.93c-4.77,4.84-7.55,9.82-7.55,14.81,0,5.47,1.64,9.51,6.83,18.24,6.12,10.47,9.21,19,9.21,29.46a47.1,47.1,0,0,1-24.62,42c-8.56,4.75-19.13,7.57-32.47,7.57-18.86,0-32.3-5.66-40.54-14.45-7.8-8-12.59-19.24-12.59-38.95V256.55l.13.06c6.23,2.63,14,4.14,23.22,4.14H262c2,0,3.45-.34,4.32-1.21s1.15-2.26,1.15-4.08V223.64c0-1.82-.29-3.21-1.15-4.08s-2.31-1.21-4.32-1.21H209.11V167.62c0-8.05-1.34-11.55-5.08-15C198.69,147.75,188.52,145.51,175.87,145.51Z"/></g></g></svg>