<svg xmlns="http://www.w3.org/2000/svg" viewBox="0 0 283.4 336"><defs><style>.cls-1{fill:#fff;}</style></defs><g id="Слой_2" data-name="Слой 2"><g id="Слой_1-2" data-name="Слой 1"><path class="cls-1" d="M202.8,336s.1-155.4.1-229.8c.1-2.1.1-4.1.1-6.9-7.5,3-14.2,5.7-20.9,8.5-16.4,6.8-29.2,1.3-35.6-15.1-4.6-11.8-10.8-27.2-15.6-38.8,3.7-2.1.9-.6,3.7-2.1C165.9,35,230.7.1,230.7.1L283.4,0s-.1,60.2-.1,87.8V308.7c0,17.6-9.5,27-27.1,27.1Z"/><circle class="cls-1" cx="45" cy="108.1" r="45"/><circle class="cls-1" cx="45" cy="246" r="45"/></g></g></svg>