<svg xmlns="http://www.w3.org/2000/svg" viewBox="0 0 201.21 200.86"><defs><style>.cls-1{fill:#fff;}</style></defs><g id="Слой_2" data-name="Слой 2"><g id="Слой_1-2" data-name="Слой 1"><path class="cls-1" d="M185.9,138.58V33.1H154.74l-72,105.48H54.41l18.7-19.07c14.74-15.15,25-28.62,30.61-39.84s8.51-21.88,8.51-31.42a47.24,47.24,0,0,0-6.81-24.12,46.28,46.28,0,0,0-18.14-18C79.35,1.68,70.85,0,60.65,0,44.21,0,31.17,5.05,21,15.15S5.1,39.27,4,56.67H34.58c.56-8.42,2.83-15.15,7.37-20.2s10.19-7.29,17-7.29a23.81,23.81,0,0,1,16.44,6.17,21.94,21.94,0,0,1,6.23,15.71c0,6.17-2.27,12.9-6.23,20.19S62.91,88.65,51,101L0,152.61V167.2H155.87v33.66h30.61V167.2h14.73V138.58Zm-31.16,0h-38l38-55Z"/></g></g></svg>