<svg xmlns="http://www.w3.org/2000/svg" viewBox="0 0 1460.71 236.38"><defs><style>.cls-1{fill:#fff;}</style></defs><g id="Слой_2" data-name="Слой 2"><g id="Слой_1-2" data-name="Слой 1"><g id="Layer_5" data-name="Layer 5"><path class="cls-1" d="M1267,66.89h-35.62c1-20.8,7.45-37.13,19.55-49S1278.46,0,1297.39,0q17.53,0,30.93,7.41a55.11,55.11,0,0,1,21.42,21.28q8,13.93,8,28.34,0,17.14-9.73,36.87t-35.7,46.68l-21.56,22.76h68.6v33.74H1226.08V179.54l59.49-60.65q21.56-21.84,28.69-35.09c4.78-8.83,7.14-16.82,7.14-24,0-7.41-2.45-13.52-7.36-18.39s-11.29-7.23-19-7.23A25.36,25.36,0,0,0,1275.4,43c-5.22,5.85-8,13.84-8.34,23.88Z"/><path class="cls-1" d="M1407.25,39.28h36.32v124h17.14V197h-17.14v39.36h-35.88V197h-84.08V163.35Zm.44,124V98.72l-44,64.54Z"/></g><g id="Layer_2" data-name="Layer 2"><path class="cls-1" d="M63.65,139.49H37.54v65.76H0V42H37.54v66h27l42.91-66h39.87l-53.4,78.81,55,84.41H106.08L63.64,139.49ZM316.87,42,247.39,171.2q-10,18.66-24.14,28.22A53.57,53.57,0,0,1,192.59,209a70.41,70.41,0,0,1-26.58-5.6l9.1-28.68q9.78,3,16.32,3A23.74,23.74,0,0,0,204,174.32a32.72,32.72,0,0,0,10.26-10.58l1.4-1.86L151.32,42h40.34l43.42,87.67L279.85,42Zm18,0h131.7V72.14h-94.2v33.57H417.6q29.61,0,45.12,12.36t15.5,35.68q0,24.48-17.25,38t-48.73,13.53H334.83V42Zm75.31,135.24q14.46,0,22.15-5.72T440,154.88q0-21.45-29.84-21.45H372.37v43.84Zm205.89-7H540.25l-14.46,35H487.08L559.83,42h37.31l73,163.22H630.48l-14.45-35Zm-11.89-28.68L578.25,79.14l-25.88,62.49ZM841.5,42V205.25H803.73V138.33H729.58v66.92H691.81V42h37.77v64.35h74.15V42ZM961.35,95.66q29.85,0,45.82,13.29t16,39.4q0,27.75-17.61,42.32T956,205.25H882.31V42h37.54V95.66Zm-7.46,81.61q14.68,0,23-7.23t8.27-21q0-25.41-31.24-25.41h-34v53.63Z"/></g></g></g></svg>