<svg xmlns="http://www.w3.org/2000/svg" viewBox="0 0 331.29 655.44"><defs><style>.cls-1{fill:#fff;}</style></defs><g id="Слой_2" data-name="Слой 2"><g id="Слой_1-2" data-name="Слой 1"><g id="layer1"><path id="path1614-3-1" class="cls-1" d="M29.77,653.72a14.67,14.67,0,0,1-5.12-5.38c-1.77-3.36-1.95-5.61-2.23-28-.4-31.66.47-36.57,7.51-41.83,2.11-1.57,30.12-11.37,73-25.54l12.86-4.25V356.56c0-153.45-.23-192-1.17-191.44-.65.39-12.32,9.1-25.94,19.38S62.06,204,59.82,205c-8.21,3.63-10.4,1.59-25.53-23.9-6.77-11.41-15.46-26-19.3-32.44C-.88,122.07-2,118.94,1.92,113.08c2.5-3.71.86-2.52,65.76-47.4,28.25-19.53,59.67-41.27,69.83-48.31s20.05-13.73,22-14.86c3.4-2,4.41-2.08,36.22-2.38C234.9-.25,237.26,0,241.86,4.19l3.41,3.12.22,270.32.26,270.31,3,1.37c1.67.75,17.34,6.63,34.83,13.06,38.13,14,43.1,16.36,45.76,21.54,1.82,3.54,1.92,5.3,1.92,32.72,0,32.11-.09,32.71-6,36.67l-3.18,2.14H177.56c-138.64,0-144.71-.1-147.79-1.72Z"/></g></g></g></svg>