<svg xmlns="http://www.w3.org/2000/svg" viewBox="0 0 879.7 400"><defs><style>.cls-1{fill:#fff;}</style></defs><g id="Слой_2" data-name="Слой 2"><g id="Слой_1-2" data-name="Слой 1"><g id="g20"><g id="g10"><path id="path4" class="cls-1" d="M182.5,218.3c23.9-6.4,32.8-28,32.8-45.2,0-29.8-20.7-49.8-51.6-49.8h-63v30.2H159c12.9,0,21.6,8,21.6,19.6s-8.7,19.5-21.6,19.5H115.8v30.1h32.1l29.6,54.1h39.1Z"/><polygon id="polygon6" class="cls-1" points="230.4 123.3 230.4 153.4 271.3 153.4 271.3 276.6 305.4 276.6 305.4 153.4 346.3 153.4 346.3 123.3 230.4 123.3"/><polygon id="polygon8" class="cls-1" points="34 246.5 34 123.3 0 123.3 0 276.6 100.7 276.6 100.7 246.5 34 246.5"/></g><g id="g16"><polygon id="polygon12" class="cls-1" points="584.2 153.9 628.2 153.9 628.2 276.7 662.5 276.7 662.5 153.9 706.3 153.9 706.3 123.4 584.2 123.4 584.2 153.9"/><polygon id="polygon14" class="cls-1" points="840.9 123.4 800.2 237.6 759.5 124.1 759.2 123.4 720.4 123.4 779.4 276.7 821 276.7 879.7 123.4 840.9 123.4"/></g><rect id="rect18" class="cls-1" x="448.5" width="34" height="400"/></g></g></g></svg>