<svg xmlns="http://www.w3.org/2000/svg" viewBox="0 0 879.7 153.5"><defs><style>.cls-1{fill:#fff;}</style></defs><g id="Слой_2" data-name="Слой 2"><g id="Слой_1-2" data-name="Слой 1"><g id="g20"><g id="g10"><path id="path4" class="cls-1" d="M182.5,95c23.9-6.4,32.8-28,32.8-45.2C215.3,20,194.6,0,163.7,0h-63V30.2H159c12.9,0,21.6,8,21.6,19.6S171.9,69.3,159,69.3H115.8V99.4h32.1l29.6,54.1h39.1Z"/><polygon id="polygon6" class="cls-1" points="230.4 0 230.4 30.1 271.3 30.1 271.3 153.3 305.4 153.3 305.4 30.1 346.3 30.1 346.3 0 230.4 0"/><polygon id="polygon8" class="cls-1" points="34 123.2 34 0 0 0 0 153.3 100.7 153.3 100.7 123.2 34 123.2"/></g><g id="g16"><polygon id="polygon12" class="cls-1" points="584.2 30.6 628.2 30.6 628.2 153.4 662.5 153.4 662.5 30.6 706.3 30.6 706.3 0.1 584.2 0.1 584.2 30.6"/><polygon id="polygon14" class="cls-1" points="840.9 0.1 800.2 114.3 759.5 0.8 759.2 0.1 720.4 0.1 779.4 153.4 821 153.4 879.7 0.1 840.9 0.1"/></g><rect id="rect18" class="cls-1" x="448.5" y="0.05" width="34" height="153.3"/></g></g></g></svg>