<svg xmlns="http://www.w3.org/2000/svg" viewBox="0 0 511.9 184.7"><defs><style>.cls-1{fill:#010101;}</style></defs><g id="Слой_2" data-name="Слой 2"><g id="Слой_1-2" data-name="Слой 1"><polygon class="cls-1" points="201.8 4.4 201.8 184.4 155.9 184.4 155.9 93.7 121.7 184.4 79.7 184.4 45.3 93.7 45.3 184.4 0 184.4 0 4.4 55.1 4.4 100.6 123.5 146.3 4.4 201.8 4.4"/><path class="cls-1" d="M489.7,109.1V4.6H433.3L362.9,115.1v33.8h82.7v35.7h44V148.9h22.3V109H489.7Zm-44.2,0H409.3l36.2-55.9Z"/><path class="cls-1" d="M356,145.3v39.4H218.9V147.4l1.5-1c.3-.3,49.4-35,76.4-54.1,11.1-7.7,17.1-16.4,17.1-24.5a27,27,0,0,0-27-26.8c-16.6-.3-27.5,14.7-31,21.8L219.2,44.7C227.1,27.8,249.2,0,286.9,0a68.16,68.16,0,0,1,68.3,67.8c0,20.9-13.6,42.4-36,57.3-14.7,9.7-24.3,16.1-30.3,20.3H356Z"/></g></g></svg>