<?xml version="1.0" encoding="utf-8"?>
<!-- Generator: Adobe Illustrator 26.1.0, SVG Export Plug-In . SVG Version: 6.00 Build 0)  -->
<svg version="1.1" id="Слой_1" xmlns="http://www.w3.org/2000/svg" xmlns:xlink="http://www.w3.org/1999/xlink" x="0px" y="0px"
	 viewBox="0 0 512 512" style="enable-background:new 0 0 512 512;" xml:space="preserve">
<style type="text/css">
	.st0{fill:#FFFFFF;}
	.st1{fill:none;}
</style>
<polygon class="st0" points="201.9,168.2 201.9,348.2 156,348.2 156,257.5 121.8,348.2 79.8,348.2 45.4,257.5 45.4,348.2 0.1,348.2 
	0.1,168.2 55.2,168.2 100.7,287.3 146.4,168.2 "/>
<path class="st0" d="M489.8,272.9V168.4h-56.4L363,278.9v33.8h82.7v35.7h44v-35.7H512v-39.9H489.8z M445.6,272.9h-36.2l36.2-55.9
	V272.9z"/>
<path class="st0" d="M356.1,309.1v39.4H219v-37.3l1.5-1c0.3-0.3,49.4-35,76.4-54.1c11.1-7.7,17.1-16.4,17.1-24.5
	c-0.1-14.8-12.2-26.8-27-26.8c-16.6-0.3-27.5,14.7-31,21.8l-36.7-18.1c7.9-16.9,30-44.7,67.7-44.7c37.6-0.1,68.1,30.3,68.3,67.8
	c0,20.9-13.6,42.4-36,57.3c-14.7,9.7-24.3,16.1-30.3,20.3H356.1z"/>
<rect x="0" y="0" class="st1" width="512.4" height="512.3"/>
</svg>
