<svg xmlns="http://www.w3.org/2000/svg" viewBox="0 0 571.8 498.5"><defs><style>.cls-1{fill:#fff;}</style></defs><g id="Слой_2" data-name="Слой 2"><g id="Слой_1-2" data-name="Слой 1"><path class="cls-1" d="M41.9,456,21,421.15H0V497.8H17.65V447.05L37.9,480.4h7.35l20-33.35V497.8H83V421.15H62.6Z"/><path class="cls-1" d="M164.1,430.85A34.56,34.56,0,0,0,152,423a43,43,0,0,0-15.85-2.75,43.49,43.49,0,0,0-15.9,2.8,34.55,34.55,0,0,0-12.15,8,36.34,36.34,0,0,0-7.8,12.4,44.34,44.34,0,0,0-2.75,16,46,46,0,0,0,2.65,15.85,34.55,34.55,0,0,0,7.65,12.4,33.59,33.59,0,0,0,12.05,8A43,43,0,0,0,136,498.5a40.91,40.91,0,0,0,16-2.8,35,35,0,0,0,12.15-8.2A36.59,36.59,0,0,0,171.9,475a48.17,48.17,0,0,0,0-31.8A35.43,35.43,0,0,0,164.1,430.85Zm-8.85,36.95a21.22,21.22,0,0,1-3.7,7.35,18.63,18.63,0,0,1-6.25,5.2,19.58,19.58,0,0,1-9,1.95,21.26,21.26,0,0,1-9.3-2.05,18.75,18.75,0,0,1-6.45-5.15,21.61,21.61,0,0,1-3.8-7.3,28.77,28.77,0,0,1-1.25-8.55h0a28.35,28.35,0,0,1,1.25-8.45,22,22,0,0,1,3.75-7.3,18.68,18.68,0,0,1,6.4-5.15,20.15,20.15,0,0,1,9.2-2,19.59,19.59,0,0,1,9.25,2.05,19.37,19.37,0,0,1,6.35,5.3,22,22,0,0,1,3.65,7.35,31.72,31.72,0,0,1,1.15,8.35A29.84,29.84,0,0,1,155.25,467.8Z"/><path class="cls-1" d="M206.7,421.15H189.05V497.8h54.8V481.9H206.7Z"/><path class="cls-1" d="M316.5,430.9a31.78,31.78,0,0,0-12.25-7.3,49.66,49.66,0,0,0-16.2-2.45H258.9V497.8h29.55c12.4,0,21.95-3.2,28.55-9.7s9.9-16,9.9-28.65a46.7,46.7,0,0,0-2.7-16.55A31.81,31.81,0,0,0,316.5,430.9Zm-8.6,37.9a18.05,18.05,0,0,1-3.55,7.05,15.61,15.61,0,0,1-6.25,4.5,24.68,24.68,0,0,1-9.35,1.6h-12.1v-44.6H287.9c7.2,0,12.55,1.9,16,5.65s5.15,9.3,5.15,16.65A39.89,39.89,0,0,1,307.9,468.8Z"/><path class="cls-1" d="M406.9,430.85a34.56,34.56,0,0,0-12.1-7.9A43.22,43.22,0,0,0,379,420.2H379a43.49,43.49,0,0,0-15.9,2.8,35.21,35.21,0,0,0-12.2,8,36.34,36.34,0,0,0-7.8,12.4,44.34,44.34,0,0,0-2.75,16A46,46,0,0,0,343,475.2a34.55,34.55,0,0,0,7.65,12.4,33.59,33.59,0,0,0,12.05,8,42.8,42.8,0,0,0,16.1,2.85,40.75,40.75,0,0,0,16-2.8A34.84,34.84,0,0,0,414.75,475a48.17,48.17,0,0,0,0-31.8A36.28,36.28,0,0,0,406.9,430.85Zm-8.85,36.95a21.22,21.22,0,0,1-3.7,7.35,18.63,18.63,0,0,1-6.25,5.2,19.58,19.58,0,0,1-9,1.95,21.26,21.26,0,0,1-9.3-2.05,18.75,18.75,0,0,1-6.45-5.15,21.61,21.61,0,0,1-3.8-7.3,28.77,28.77,0,0,1-1.25-8.55h-.05a28.35,28.35,0,0,1,1.25-8.45,22,22,0,0,1,3.75-7.3,18.68,18.68,0,0,1,6.4-5.15,20.15,20.15,0,0,1,9.2-2,19.59,19.59,0,0,1,9.25,2.05,19.37,19.37,0,0,1,6.35,5.3,22,22,0,0,1,3.65,7.35,31.72,31.72,0,0,1,1.15,8.35A29.84,29.84,0,0,1,398.05,467.8Z"/><path class="cls-1" d="M480.75,421.15,461.6,475.7l-19.7-54.55H422.5l29.8,76.65h17.75l29.85-76.65Z"/><path class="cls-1" d="M542.05,421.15H523.2L493,497.8h19l4.65-12.65h31.4l4.55,12.65H571.8Zm-19.9,48.2,10.4-28.9,10.15,28.9Z"/><path class="cls-1" d="M407.15,347.45V77.2H330L203.65,203.55,77.2,77.3,0,77.2V347.45H77.2V186.3L203.65,312.75v0L330,186.4v161Z"/><path class="cls-1" d="M484.4,347.45h77.2V0H484.4L407.15,77.2H484.4Z"/></g></g></svg>