<svg xmlns="http://www.w3.org/2000/svg" viewBox="0 0 821.26 537.09"><defs><style>.cls-1{fill:#fff;}</style></defs><g id="Слой_2" data-name="Слой 2"><g id="Слой_1-2" data-name="Слой 1"><path class="cls-1" d="M765.38,408a177,177,0,0,0-6.57,45.75c-.66,28.21-40.82,39.41-63.08,7.38-18.32-26.36-39.33-120.4-41.79-131.57-10.05-45.6-13.93-62.22-15.19-79.08-1.62-21.62,7.09-33.89,26.28-38.86,19.89-5.15,36.06,4.76,37.67,26.56,3,41,5.52,72.94,9.47,91.58,1.32,6.25,5,8.5,9,8.5,5.14,0,8.15-3.59,10-7.51,7.52-16.2,26.79-85.34,90.17-165.69V0H515.38L410.63,104.74,305.89,0H0V537.09H309.25V352L410.62,453.32,512,352V537.09h41.55c.41-14.55.71-33.92.44-42.14-.38-8.58-.8-29.21-.8-40.35,0-62,5.43-77.19,5.43-166.54,0-26.72-6-33.21-14.6-33.21-9.63,0-34,18.3-51.93,31.08-28.77,20.45-44.27,36.75-62.9,36.75-11,0-17.27-4.85-24.25-13.78-1.31-1.65-5-9-5-14.92,0-6.6,2.64-15.74,12.78-21.85,11-6.61,23.08-5.35,49.09-21,30.83-18.61,67.71-40.2,73.64-44C546,201.56,543.5,193,543.52,185c0-17.3,15.5-23.28,28.81-23.28a47.37,47.37,0,0,1,22.59,5.59c4.77-2.65,17.18-9.6,40.41-23.93,28.57-17.62,28.08-31.56,45.89-35.38,19.75-4.23,32.26,15,32.26,28.49,0,20.2-25.79,31.93-38.79,39.27-36.38,20.54-49.24,29.2-62.2,37.58.69,8.1.68,26.9.7,43.15,0,27.05,8.11,77.54,8.11,105.52,0,33.21-1.38,74.38-1.38,84.63,0,16.51,1.87,35.27,3.41,48.27,1,10.63,2.36,28,3.11,42.14H821.25V278.25l-1,2c-16.86,33.59-38.41,70.87-54.86,127.71"/></g></g></svg>