<svg xmlns="http://www.w3.org/2000/svg" viewBox="0 0 1000 955.27"><defs><style>.cls-1,.cls-2{fill:#fff;}.cls-2{fill-rule:evenodd;}</style></defs><g id="Слой_2" data-name="Слой 2"><g id="Слой_1-2" data-name="Слой 1"><g id="g16179"><path id="path2303" class="cls-1" d="M311.17,0H359V379.51H311.17Z"/><path id="path2305" class="cls-1" d="M311.17,782.92H359V955.27H311.17Z"/><path id="path2307" class="cls-1" d="M225.6,379.5h85.57V782.93h-95L85.57,547.72V782.93H0V379.48H89.28L225.6,630.78Z"/><path id="path2309" class="cls-2" d="M501.68,379.45c97,0,144.28,44.75,150.69,140.6v121.4C645,744.09,598.66,782.91,501.68,782.91H358.94V379.5Zm-8.4,76.38-42.81,0V706.9h42.81c42.42,0,72.22-17.74,72.22-74.11V529c0-53.53-27.08-73.21-72.22-73.21"/><path id="path2311" class="cls-2" d="M838.16,451l-56.8,0V555.19h56.8c34.64,0,57.2-19.63,57.2-54.67s-16-49.56-57.2-49.56m-6.52,177,72,155H1000l-85.5-171c48.27-19.13,67.41-58,66.42-110.3-1.49-79.51-41.2-122.09-146.43-122.09H693.9V782.93h89.2V628.22Z"/></g></g></g></svg>