<svg xmlns="http://www.w3.org/2000/svg" viewBox="0 0 235.03 154.62"><defs><style>.cls-1{fill:#fff;}</style></defs><g id="Слой_2" data-name="Слой 2"><g id="Слой_1-2" data-name="Слой 1"><path class="cls-1" d="M105.11,99a4.9,4.9,0,1,1,4.9,4.91,4.9,4.9,0,0,1-4.9-4.91m82.65-8h-12.6V75.1H188a7.79,7.79,0,0,1,7.51,7.73A7.93,7.93,0,0,1,187.76,91m2.2,31.15h-14.8V105.58H190c4.86,0,8.62,3.53,8.62,8.17,0,5.08-3.53,8.4-8.62,8.4m3.1,15.68c15.68,0,25.18-9.05,25.18-23.2,0-8.39-4.19-15.23-11.92-18.55,6-4,7.29-9.72,7.29-15.68,0-13.7-10.39-20.55-25-20.55h-44.4V75.1h12.82v47.05H144.24v15.67Zm-99.63-78H63.84V91H45.94V59.85H16.34V75.1H29.15v47.05H16.34v15.67h29.6V105.58h17.9v32.24H93.43V122.15H81.06V75.1H93.43V59.85ZM225.08,95.64A24.74,24.74,0,0,1,235,115.52c0,12.81-4,20.54-11,27.61s-18.78,11.49-32.7,11.49h-63.4V136.36a26.08,26.08,0,0,0,0-48.89V29.38h16.35V44h16.13V16.12H77.31V44H93.44V29.38h16.34V87.46a26.08,26.08,0,0,0,0,48.9v18.26H0v-49H13V91H0V43.07H60.52V0H177.6V43.07h8.17c12.14,0,23.85,2.87,31.36,8.39,8.18,6,13.26,14.81,13.26,27C230.38,83.49,229.28,91,225.08,95.64Z"/></g></g></svg>