<?xml version="1.0" encoding="UTF-8"?>
<!DOCTYPE svg PUBLIC "-//W3C//DTD SVG 1.1//EN" "http://www.w3.org/Graphics/SVG/1.1/DTD/svg11.dtd">
<!-- Creator: CorelDRAW X8 -->
<svg xmlns="http://www.w3.org/2000/svg" xml:space="preserve" width="1593px" height="1291px" version="1.1" style="shape-rendering:geometricPrecision; text-rendering:geometricPrecision; image-rendering:optimizeQuality; fill-rule:evenodd; clip-rule:evenodd"
viewBox="0 0 1593 1291"
 xmlns:xlink="http://www.w3.org/1999/xlink">
 <defs>
  <style type="text/css">
   <![CDATA[
    .fil0 {fill:black}
   ]]>
  </style>
 </defs>
 <g id="Слой_x0020_1">
  <metadata id="CorelCorpID_0Corel-Layer"/>
  <path class="fil0" d="M1166 218c60,26 114,67 152,119 25,34 42,70 52,113 30,125 -22,258 -80,339 -40,56 -81,95 -130,140 -62,58 -171,120 -290,156 -73,22 -150,32 -221,31 -96,0 -188,-20 -266,-65 -12,-7 -21,-14 -31,-21 -76,-52 -131,-145 -137,-245 -10,-172 91,-305 185,-396 41,-39 131,-104 170,-121l28 -155 595 -50 -27 155zm425 310c8,-108 -18,-214 -70,-288 -122,-176 -321,-240 -528,-240 -94,0 -188,14 -274,38 -58,17 -118,36 -175,64 -175,88 -286,179 -367,274 -27,32 -62,81 -84,117 -43,72 -84,170 -91,269 -5,59 -1,110 14,166 69,256 340,364 587,363 265,-1 525,-109 724,-285 116,-102 252,-294 264,-478z"/>
  <polygon class="fil0" points="570,268 772,251 700,653 891,637 962,235 1166,218 1043,908 839,925 871,749 680,765 649,941 447,958 "/>
 </g>
</svg>
