<svg xmlns="http://www.w3.org/2000/svg" viewBox="0 0 596.09 175.52"><defs><style>.cls-1{fill:#fff;}</style></defs><g id="Слой_2" data-name="Слой 2"><g id="Слой_1-2" data-name="Слой 1"><g id="layer1"><g id="g13535"><path id="path3593" class="cls-1" d="M180.52,87.77C180.52,38.23,140.37,0,90.27,0S0,38.23,0,87.77s40.15,87.75,90.27,87.75,90.25-38.22,90.25-87.75m-42.84,0c0,26.65-22.9,47.91-47.41,47.91-24.8,0-47.43-21.26-47.43-47.91S65.47,39.85,90.27,39.85c24.51,0,47.41,21.27,47.41,47.92"/><path id="path3595" class="cls-1" d="M240.27,172.3h41.5V123h31l32.6,49.26h51.73l-41.76-59.22C375,104.46,388.73,85.89,388.73,63c0-33.65-24.79-59.76-62.51-59.76h-86Zm83.52-89.1h-42V43.08h42c18.06,0,23.45,8.88,23.45,19.92,0,11.31-5.39,20.2-23.45,20.2"/><path id="path3597" class="cls-1" d="M458.5,172.2H500V115.28h78.36V75.47H500V43.05h96.13V3.24H458.5Z"/><path id="path3605" class="cls-1" d="M180.52,87.77C180.52,38.23,140.37,0,90.27,0S0,38.23,0,87.77s40.15,87.75,90.27,87.75,90.25-38.22,90.25-87.75m-42.84,0c0,26.65-22.9,47.91-47.41,47.91-24.8,0-47.43-21.26-47.43-47.91S65.47,39.85,90.27,39.85c24.51,0,47.41,21.27,47.41,47.92"/><path id="path3607" class="cls-1" d="M240.27,172.3h41.5V123h31l32.6,49.26h51.73l-41.76-59.22C375,104.46,388.73,85.89,388.73,63c0-33.65-24.79-59.76-62.51-59.76h-86Zm83.52-89.1h-42V43.08h42c18.06,0,23.45,8.88,23.45,19.92,0,11.31-5.39,20.2-23.45,20.2"/><path id="path3609" class="cls-1" d="M458.5,172.2H500V115.28h78.36V75.47H500V43.05h96.13V3.24H458.5Z"/></g></g></g></g></svg>