<svg xmlns="http://www.w3.org/2000/svg" viewBox="0 0 275.8 273.7"><defs><style>.cls-1{fill:#fff;}</style></defs><g id="Слой_2" data-name="Слой 2"><g id="Слой_1-2" data-name="Слой 1"><path class="cls-1" d="M0,136.3c0,.18,0,.36,0,.55,0-.18,0-.37,0-.55Z"/><path class="cls-1" d="M275.8,136.3c0,.18,0,.37,0,.55,0-.19,0-.37,0-.55Z"/><path class="cls-1" d="M275.78,136.3c-.44-37.24-13.94-69.46-40.38-95.9C208.6,13.6,175.7,0,137.7,0S66.9,13.6,40.2,40.5C14,66.94.47,99.16,0,136.3c0,.18,0,.36,0,.55s0,.37,0,.55C.46,174.64,14,206.86,40.4,233.3c26.8,26.8,59.7,40.4,97.7,40.4s70.8-13.6,97.5-40.5c26.24-26.44,39.73-58.66,40.18-95.8,0-.18,0-.36,0-.55S275.79,136.48,275.78,136.3ZM209,173.9c-6.9,11.5-7.5,11.7-21.3,25.5l-57,49.1V211.4c-12.6-.9-24.2-4-34.6-9.7a74.47,74.47,0,0,1-29.3-28,76.93,76.93,0,0,1-10.5-37.4h0c0-.83-.07-1.67-.07-2.5,0-14.7,3.5-28.1,10.6-40a75.19,75.19,0,0,1,29.3-28c12.4-6.7,26.4-10.1,41.8-10.1s29.4,3.4,41.8,10.1A74.92,74.92,0,0,1,209,93.7c7.1,11.9,10.6,25.2,10.6,40.1,0,1.2-.1,2.4-.1,3.6h.05A75.13,75.13,0,0,1,209,173.9Z"/><path class="cls-1" d="M0,137.4H0c0-.18,0-.37,0-.55C0,137,0,137.22,0,137.4Z"/><path class="cls-1" d="M275.8,137.4h0c0-.18,0-.36,0-.55C275.8,137,275.8,137.22,275.8,137.4Z"/></g></g></svg>