<svg xmlns="http://www.w3.org/2000/svg" viewBox="0 0 640.2 550.32"><defs><style>.cls-1{fill:#fff;}</style></defs><g id="Слой_2" data-name="Слой 2"><g id="Слой_1-2" data-name="Слой 1"><path class="cls-1" d="M549,248.37a114.39,114.39,0,0,1-13.3.88A117,117,0,0,1,444.15,58a273.91,273.91,0,0,0-169-58C123.19,0,0,123.19,0,275.16V550.32H275.16c152,0,275.16-123.19,275.16-275.16Q550.32,261.6,549,248.37ZM275.16,403.57A128.41,128.41,0,1,1,403.57,275.16,128.41,128.41,0,0,1,275.16,403.57Z"/><path class="cls-1" d="M576.46,116.1a9.07,9.07,0,0,1-1.48,5.14,4.43,4.43,0,0,1-3.57,2.12H557.2V108.84h14.21C574.2,108.84,576.46,112.08,576.46,116.1Z"/><path class="cls-1" d="M576.46,145.69A9.55,9.55,0,0,1,575,151a4.42,4.42,0,0,1-3.57,2.2H557.2v-15h14.21C574.2,138.19,576.46,141.55,576.46,145.69Z"/><path class="cls-1" d="M533.82,26.6a105.48,105.48,0,0,0,1.81,211,103.86,103.86,0,0,0,12-.79c51.65-6.39,92.08-50.56,92.54-103.76A105.49,105.49,0,0,0,533.82,26.6Zm1.82,69.25H581.5a14.22,14.22,0,0,1,14.22,14.21v6.88a14.22,14.22,0,0,1-14.22,14.22,14.22,14.22,0,0,1,14.22,14.22v6.07a14.21,14.21,0,0,1-14.1,14.21l-45.88.35h-.1Zm-28.89,70.62-3.1.12c-5.8.22-17.76.58-18.45-.12V116H466.39V96.31H526v19.26H506.75Z"/></g></g></svg>