<svg xmlns="http://www.w3.org/2000/svg" viewBox="0 0 304.26 1044.69"><defs><style>.cls-1{fill:#fff;}</style></defs><g id="Слой_2" data-name="Слой 2"><g id="Слой_1-2" data-name="Слой 1"><path class="cls-1" d="M304.23,390v3.39l-7.34,4.94-25.07,19-10.09,9.47L249.5,440.87l-7.64,16.51-7.64,18-4,18L229,520.66V533.5l4.89,28.74,8,23.24L254.4,606l17.12,20.18,20.79,20.18,9.78,13.45,2.14,3.82h0a416,416,0,0,1-6.05,70.72q-5,28.91-10,57.8a408.77,408.77,0,0,1-15.83,62.41q-2.2,6.48-4.69,13.15c-6,16.11-12.39,30.8-18.8,44a430.24,430.24,0,0,1-39,70.39,429.43,429.43,0,0,1-52.13,62.6l-1.07-10.55V1015.8l-.56-20.33q-.35-12.69-1.38-25.34L153,948.38q-1.33-16.5-3.82-32.88l-7.61-50.12-4.33-21.22a472.67,472.67,0,0,0-12.07-46.85h0q-4.25-13.56-9.28-26.84L93.43,711.29,40.06,569.55a875.07,875.07,0,0,1-27.35-85.73h0L8,464.7Q5.39,454,3.57,443.16h0q-1.39-8.42-2.3-16.88l-.49-4.54A138,138,0,0,1,0,404.62l.06-3.22a138.45,138.45,0,0,1,3.44-28.32h0a132.15,132.15,0,0,1,7.76-23.59h0a132.67,132.67,0,0,1,15-25.88l18.56-25.06h5.5L70.5,283.87l.38-.4a92.32,92.32,0,0,0,19.18-29.53h0a92.26,92.26,0,0,0,4.58-14.81l9.2-42q.52-2.43.93-4.89l2.85-17.45c.24-1.44.44-2.87.6-4.32C111,146.47,120.45,98,157.4,58.81c21.65-23,46.94-36.57,55.49-40.92A211,211,0,0,1,262.65,0l-1.72,3L246,14.3l-.82.58L210.06,38.55a66.64,66.64,0,0,0-6.42,4.93L191.69,53.86a121.09,121.09,0,0,0-22.28,25.68h0a120.9,120.9,0,0,0-14.88,33l-.22.76A149.9,149.9,0,0,0,149,145.92h0a101.6,101.6,0,0,0,.64,18.12l1.55,12.4c.35,2.83.79,5.65,1.3,8.46l.5,2.74a222.7,222.7,0,0,0,11.3,40.06h0a72.45,72.45,0,0,0,6.36,12.66l.69,1.09a72.89,72.89,0,0,0,16.05,17.95h0a72.6,72.6,0,0,0,19.35,11.1l8,3.09a17.93,17.93,0,0,0,10.79.65h0A331.37,331.37,0,0,1,256,298.32c9.76,8.67,15.91,14.14,22.93,22.93,6.28,7.86,16.13,20.44,21.55,39.44A98.64,98.64,0,0,1,304.23,390Z"/></g></g></svg>