<svg xmlns="http://www.w3.org/2000/svg" viewBox="0 0 293.84 43.79"><defs><style>.cls-1{fill:#fff;}</style></defs><g id="Слой_2" data-name="Слой 2"><g id="Слой_1-2" data-name="Слой 1"><polygon class="cls-1" points="57.09 0 57.09 37.6 38.17 37.6 38.17 11 18.91 11 18.91 37.6 0 37.6 0 0 57.09 0"/><polygon class="cls-1" points="82.89 11 82.89 12.84 110.63 12.84 110.63 23.84 82.89 23.84 82.89 26.71 110.63 26.71 110.63 37.72 63.97 37.72 63.97 0 110.63 0 110.63 11 82.89 11"/><path class="cls-1" d="M162.8,0H116.94V37.72h18.92V26.48H162.8a11,11,0,0,0,11-11V11A11,11,0,0,0,162.8,0Zm-8.56,14.82a2.24,2.24,0,0,1-1.59.66H135.86V11h16.79a2.24,2.24,0,0,1,1.59,3.82Z"/><polygon class="cls-1" points="196.62 11 196.62 12.84 224.36 12.84 224.36 23.84 196.62 23.84 196.62 26.71 224.36 26.71 224.36 37.72 177.7 37.72 177.7 0 224.36 0 224.36 11 196.62 11"/><polygon class="cls-1" points="293.84 24.07 293.84 43.79 275.19 43.79 275.19 37.6 229.76 37.6 229.76 0 248.68 0 248.68 26.6 267.94 26.6 267.94 0 286.85 0 286.85 24.07 293.84 24.07"/></g></g></svg>