<svg xmlns="http://www.w3.org/2000/svg" viewBox="0 0 165.65 32.41"><defs><style>.cls-1,.cls-2{fill:#fff;}.cls-1{fill-rule:evenodd;}</style></defs><g id="Слой_2" data-name="Слой 2"><g id="Слой_1-2" data-name="Слой 1"><path class="cls-1" d="M8.4,4.14H0V27.7H5.12V19.08H8.4a7.35,7.35,0,0,0,7.74-7.41A7.45,7.45,0,0,0,8.4,4.14ZM11,11.67c0,1.92-1.09,3.17-2.73,3.17H5.1V8.5H8.23C9.88,8.5,11,9.76,11,11.67Z"/><path class="cls-1" d="M28.16,3.7C23,3.7,18.85,7,18.85,13.45v5c0,6.52,4.15,9.73,9.31,9.73s9.33-3.21,9.33-9.73v-5C37.49,7,33.28,3.7,28.16,3.7Zm4.22,10.1v4.25c0,4.36-1.75,5.75-4.22,5.75S24,22.41,24,18.05V13.8c0-4.25,1.74-5.75,4.18-5.75S32.38,9.55,32.38,13.8Z"/><path class="cls-2" d="M57.62,27.08a22.13,22.13,0,0,1-6.8,1.08c-5.5,0-9.61-3.18-9.61-9.69V13.4c0-6.52,4.11-9.69,9.61-9.69a21.81,21.81,0,0,1,6.8,1.06L56.64,9a19.22,19.22,0,0,0-5.78-.9c-2.81,0-4.56,1.5-4.56,5.75V18c0,4.29,1.74,5.79,4.53,5.79a17.72,17.72,0,0,0,5.78-.94Z"/><path class="cls-2" d="M77.42,27.08a22,22,0,0,1-6.79,1.08C65.12,28.16,61,25,61,18.47V13.4c0-6.52,4.11-9.69,9.62-9.69a21.72,21.72,0,0,1,6.79,1.08L76.45,9a19.55,19.55,0,0,0-5.78-.91c-2.79,0-4.53,1.5-4.53,5.75V18c0,4.29,1.74,5.78,4.53,5.78a17.25,17.25,0,0,0,5.78-.94Z"/><path class="cls-2" d="M99.27,27.7H94.15v-10c0-1,0-2.34.14-3.69L85.61,27.7H81.42V4.14h5.12V14.36c0,1,0,2.26-.1,3.59L95.12,4.14h4.14Z"/><path class="cls-1" d="M114.2,27.7h5.11V4.14h-8.54A7.44,7.44,0,0,0,103,11.67a7.14,7.14,0,0,0,4.12,6.69l-4.39,9.34h5.72l3.77-8.6h2ZM111,8.5h3.17v6.34H111a2.88,2.88,0,0,1-2.82-3.17A2.88,2.88,0,0,1,111,8.5Z"/><path class="cls-2" d="M150.33,15.85l15.32-7.64V0L150.33,7.64v8.21Z"/><path class="cls-2" d="M165.64,32.41V9.93L158,13.74V32.41Z"/></g></g></svg>