<svg xmlns="http://www.w3.org/2000/svg" viewBox="0 0 736.5 247.99"><defs><style>.cls-1{fill:#fff;}</style></defs><g id="Слой_2" data-name="Слой 2"><g id="Слой_1-2" data-name="Слой 1"><g id="layer1"><g id="g3011"><path id="path3064" class="cls-1" d="M699.89,164.51a350.45,350.45,0,0,1-2,36.21c-11.63,3.34-37.62,8.95-83.42,9-20.16,0-44-1.5-71.94-4.05V119.57C620,107.32,675.74,121,697.34,128.08c.91,8.37,2.55,22.29,2.55,36.43Zm36.61-1.72c0-51.19-8.85-62.77-8.85-62.77s-41-23.62-124.72-23.62a450.89,450.89,0,0,0-60.42,4.5V0H506.12V240.46S564.22,248,613.89,248c90.57,0,114.05-19.82,114.05-19.82s8.56-12.59,8.56-65.38"/><path id="path3066" class="cls-1" d="M196.4,77.23C56,79.29,0,112.48,0,112.48v133H38.94V137.59c17.86-5.93,67-20.1,157.5-22.13"/><path id="path3016" class="cls-1" d="M431.93,164.51a350.45,350.45,0,0,1-2,36.21c-11.63,3.34-37.62,8.95-83.42,9-20.16,0-44-1.5-71.94-4.05V119.57C352,107.32,407.78,121,429.38,128.08c.91,8.37,2.55,22.29,2.55,36.43Zm36.61-1.72c0-51.19-8.85-62.77-8.85-62.77S418.7,76.4,335,76.4a450.89,450.89,0,0,0-60.42,4.5V0H238.16V240.46S296.26,248,345.93,248C436.5,248,460,228.17,460,228.17s8.56-12.59,8.56-65.38"/></g></g></g></g></svg>