<svg width="84px" viewBox="0 0 400.00037 400" xmlns="http://www.w3.org/2000/svg"><defs><style>.clr-1,.clr-2,.clr-3 {fill-opacity: 1;fill-rule: evenodd;stroke: none;}.clr-1 {fill: #77bc1f;}.clr-2 {fill: #000000;}.clr-3 {fill: #ffffff;}</style></defs><g transform="translate(-1080,-520)"><path class="clr-1" d="M 1110,390 H 810 v 300 h 300 z" transform="matrix(1.3333333,0,0,-1.3333333,0,1440)"></path><path class="clr-2" d="m 0,0 c 0,-3.999 -1.633,-7.686 -4.317,-10.353 -2.478,-2.486 -5.846,-4.07 -9.561,-4.277 h -17.94 v 29.28 h 17.157 0.783 c 3.715,-0.201 7.083,-1.806 9.561,-4.289 C -1.633,7.694 0,4.045 0,0.026 H -0.026 V 0 Z M 45.203,25.376 V 15.09 c -0.746,1.016 -1.579,1.963 -2.446,2.853 -4.375,4.376 -10.364,7.154 -16.99,7.387 -0.847,0.034 -1.642,0.046 -2.489,0.04 l -74.237,0.006 h -31.049 v -87.753 h 50.19 v 37.024 h 14.69 L 8.51,-62.348 h 52.845 l -28.767,38.224 c 3.893,1.24 7.355,3.405 10.169,6.212 4.565,4.576 7.407,10.915 7.407,17.938 -0.012,5.44 -1.723,10.49 -4.646,14.624 h 41.738 v -77.027 h 50.195 V 14.65 h 40.251 v 10.726 z" transform="matrix(1.3333333,0,0,-1.3333333,1243.0644,677.35707)"></path><path class="clr-2" d="m 810,390 h 10 v 10 h -10 z" transform="matrix(1.3333333,0,0,-1.3333333,0,1440)"></path><path class="clr-2" d="m 840,420 h -10 v -10 h 10 z" transform="matrix(1.3333333,0,0,-1.3333333,0,1440)"></path><path class="clr-2" d="m 1100,410 h -10 v -10 h 10 z" transform="matrix(1.3333333,0,0,-1.3333333,0,1440)"></path><path class="clr-2" d="m 820,420 h 10 v 10 h -10 z" transform="matrix(1.3333333,0,0,-1.3333333,0,1440)"></path><path class="clr-2" d="m 820,400 h 10 v 10 h -10 z" transform="matrix(1.3333333,0,0,-1.3333333,0,1440)"></path><path class="clr-2" d="m 1080,410 h 10 v 10 h -10 z" transform="matrix(1.3333333,0,0,-1.3333333,0,1440)"></path><path class="clr-2" d="m 1100,430 h 10 v 10 h -10 z" transform="matrix(1.3333333,0,0,-1.3333333,0,1440)"></path><path class="clr-2" d="m 1090,420 h 10 v 10 h -10 z" transform="matrix(1.3333333,0,0,-1.3333333,0,1440)"></path><path class="clr-2" d="m 810,430 h 10 v 10 h -10 z" transform="matrix(1.3333333,0,0,-1.3333333,0,1440)"></path><path class="clr-2" d="M 0,0 H -10 V 10 H 0 V 20 H 10 V 30 H -250 V 20 h 10 V 10 h 10 V 0 h -10 v -10 h -10 V -20 H 10 v 10 H 0 Z" transform="matrix(1.3333333,0,0,-1.3333333,1440,893.33333)"></path><path class="clr-2" d="m 1110,400 h -10 v -10 h 10 z" transform="matrix(1.3333333,0,0,-1.3333333,0,1440)"></path><path class="clr-3" d="M 0,0 H 4.074 C 5.157,0 6.021,-0.266 6.64,-0.79 7.245,-1.304 7.539,-1.999 7.539,-2.917 7.539,-3.812 7.261,-4.481 6.689,-4.962 6.103,-5.455 5.244,-5.706 4.139,-5.706 H 0 Z M 6.22,4.7 C 5.686,4.24 4.889,4.008 3.85,4.008 H 0 V 9.231 H 3.785 C 4.884,9.231 5.708,8.996 6.229,8.529 6.743,8.069 6.992,7.45 6.992,6.635 6.992,5.782 6.74,5.148 6.22,4.7 m 5.061,-4.221 c -0.608,0.74 -1.334,1.298 -2.167,1.668 0.655,0.341 1.24,0.799 1.752,1.368 0.836,0.93 1.26,2.174 1.26,3.699 0,1.824 -0.676,3.342 -2.007,4.511 -1.314,1.153 -3.218,1.739 -5.658,1.739 H -5.037 V -9.971 h 9.819 c 2.466,0 4.409,0.625 5.775,1.856 1.382,1.243 2.084,2.84 2.084,4.747 0,1.454 -0.458,2.748 -1.36,3.847" transform="matrix(1.3333333,0,0,-1.3333333,1172.3915,888.9956)"></path><path class="clr-3" d="M 0,0 2.605,7.505 5.235,0 Z M 5.271,14.088 H -0.002 L -8.573,-9.347 h 5.294 l 1.833,5.211 h 8.128 l 1.801,-5.211 h 5.359 z" transform="matrix(1.3333333,0,0,-1.3333333,1214.582,889.8272)"></path><path class="clr-3" d="M 0,0 V 19.298 H -5.037 V -4.136 H 9.971 V 0 Z" transform="matrix(1.3333333,0,0,-1.3333333,1254.9896,896.77493)"></path><path class="clr-3" d="M 0,0 8.775,9.455 H 2.438 l -7.669,-8.38 v 8.38 h -5.037 V -13.98 h 5.037 v 8.355 l 1.623,1.768 6.248,-10.123 h 6.138 z" transform="matrix(1.3333333,0,0,-1.3333333,1298.4605,883.64973)"></path><path class="clr-3" d="M 0,0 2.605,7.505 5.235,0 Z M 5.271,14.088 H -0.002 L -8.573,-9.347 h 5.294 l 1.833,5.211 h 8.128 l 1.801,-5.211 h 5.359 z" transform="matrix(1.3333333,0,0,-1.3333333,1334.318,889.8272)"></path><path class="clr-3" d="M 0,0 V -14.8 L -9.875,0 h -4.823 v -23.435 h 5.037 V -8.664 L 0.214,-23.435 H 5.037 V 0 Z" transform="matrix(1.3333333,0,0,-1.3333333,1387.6085,871.0436)"></path><path class="clr-3" d="m 1090,430 h 10 v 10 h -10 z" transform="matrix(1.3333333,0,0,-1.3333333,0,1440)"></path><path class="clr-3" d="m 1080,420 h 10 v 10 h -10 z" transform="matrix(1.3333333,0,0,-1.3333333,0,1440)"></path><path class="clr-3" d="m 1070,410 h 10 v 10 h -10 z" transform="matrix(1.3333333,0,0,-1.3333333,0,1440)"></path><path class="clr-3" d="m 1080,400 h 10 v 10 h -10 z" transform="matrix(1.3333333,0,0,-1.3333333,0,1440)"></path><path class="clr-3" d="m 1090,390 h 10 v 10 h -10 z" transform="matrix(1.3333333,0,0,-1.3333333,0,1440)"></path><path class="clr-3" d="m 830,430 h -10 v 10 h 10 z" transform="matrix(1.3333333,0,0,-1.3333333,0,1440)"></path><path class="clr-3" d="m 840,420 h -10 v 10 h 10 z" transform="matrix(1.3333333,0,0,-1.3333333,0,1440)"></path><path class="clr-3" d="m 850,410 h -10 v 10 h 10 z" transform="matrix(1.3333333,0,0,-1.3333333,0,1440)"></path><path class="clr-3" d="m 840,400 h -10 v 10 h 10 z" transform="matrix(1.3333333,0,0,-1.3333333,0,1440)"></path><path class="clr-3" d="m 830,390 h -10 v 10 h 10 z" transform="matrix(1.3333333,0,0,-1.3333333,0,1440)"></path></g></svg>