<svg xmlns="http://www.w3.org/2000/svg" viewBox="0 0 369.22 43.07"><defs><style>.cls-1{fill:#fff;}</style></defs><g id="Слой_2" data-name="Слой 2"><g id="Слой_1-2" data-name="Слой 1"><polygon class="cls-1" points="315.58 0 325.42 0 325.42 34.57 369.22 34.57 369.22 43.06 315.58 43.06 315.58 0"/><g id="middle"><polygon class="cls-1" points="181.58 8.49 156.67 8.49 156.67 0 216.34 0 216.34 8.49 191.43 8.49 191.43 43.07 181.58 43.07 181.58 8.49"/></g><path class="cls-1" d="M0,0H37.77c11.5,0,17.9,5.17,17.9,13.84,0,7.44-4.8,12.43-13,13.6L61.21,43.07H47L29.59,28H9.84V43.07H0ZM36.48,19.93c6.09,0,9-2,9-6s-3-5.91-9-5.91H9.84V19.92H36.48Z"/></g></g></svg>