<svg xmlns="http://www.w3.org/2000/svg" viewBox="0 0 1559.53 768.1"><defs><style>.cls-1{fill:#fff;}</style></defs><g id="Слой_2" data-name="Слой 2"><g id="Слой_1-2" data-name="Слой 1"><path class="cls-1" d="M260.33,41.3C117.33,63.9.23,82.9,0,83.4c-.5,1.7,6.6,605.7,7.2,606.3.3.3,261,18.1,579.5,39.5l578.9,38.9,195-94.3,195.1-94.2V554.5c0-13.8.9-137.8,2-275.5s1.9-250.5,1.8-250.6c-.4-.3-1034.6-28.6-1037.3-28.4C521.13,0,403.23,18.6,260.33,41.3Zm173.5,225.4c32.1,9.2,56.3,32.9,64.6,63.2,2.5,9.2,2.5,33.8,0,43-5.9,21.6-21.7,41.3-43.6,54.3l-8.1,4.9,1.8,2.6c1.1,1.5,11.6,16.4,23.4,33.2s22.3,31.7,23.2,33.2l1.8,2.8h-58.8l-23.8-33-23.7-33h-62.9v66h-47V263.8l72.8.3C424.93,264.5,426.33,264.5,433.83,266.7Zm361.9,21.7v24.5h-80v191h-53v-191h-80v-49h213Zm178.5,68.5c21.5,51.1,39.2,93,39.5,93s18.1-41.9,39.5-93l39-93h27.4c25.6,0,27.3.1,26.7,1.7-.4,1-23,55-50.3,120l-49.7,118.3h-65.2l-49.6-118.3c-27.3-65-50-119-50.4-120-.6-1.6,1.1-1.7,26.7-1.7h27.4Zm304.5,27v120h-44v-240h44Z"/><path class="cls-1" d="M327.13,309.5c.3.9.6,20.4.6,43.5v41.9h44.5c43.8,0,44.5,0,51.8-2.3,32.6-10.4,43.2-47.3,20.3-70.3-6.3-6.2-13.1-9.8-23.4-12.5-6.9-1.7-11.3-1.9-51-1.9C330.73,307.9,326.53,308.1,327.13,309.5Z"/></g></g></svg>