<svg xmlns="http://www.w3.org/2000/svg" viewBox="0 0 219.62 224.46"><defs><style>.cls-1{fill:#fff;}</style></defs><g id="Слой_2" data-name="Слой 2"><g id="Слой_1-2" data-name="Слой 1"><g id="Слой_2-2" data-name="Слой 2"><g id="Слой_1-2-2" data-name="Слой 1-2"><path class="cls-1" d="M108.43,140h33.36c1.2,0,2,.24,2.29.7a4,4,0,0,1,.48,2.21v12.19a4,4,0,0,1-.48,2.21c-.32.46-1,.69-2.14.69H79.49a2.57,2.57,0,0,1-2.91-2.18,2.89,2.89,0,0,1,0-.72v-9.84a9.61,9.61,0,0,1,.41-2.76,6.78,6.78,0,0,1,1.81-2.79q5.11-4.83,9.41-8.85,1.8-1.66,3.6-3.39l3.25-3.12c1-.92,1.8-1.71,2.5-2.36s1.13-1.06,1.31-1.24.92-.88,2.22-2.08,2.74-2.56,4.36-4.09,3.16-3,4.64-4.35a30.18,30.18,0,0,0,3-3,31.72,31.72,0,0,0,5.4-6.65,14.25,14.25,0,0,0,2.08-7.47c0-3.33-.9-5.7-2.7-7.14s-5.29-2.14-10.45-2.14q-6.24,0-12.74.55T83.6,85.44a7.64,7.64,0,0,1-3.46-.14c-.65-.28-1.11-1.2-1.38-2.77l-1.11-7.75a6.35,6.35,0,0,1,.2-3.12q.5-1.45,3.67-2.7A37.4,37.4,0,0,1,88.1,67.1q3.81-.76,7.62-1.25t7.13-.69c2.21-.14,4-.21,5.26-.21a62.72,62.72,0,0,1,16.2,1.8,28.77,28.77,0,0,1,10.8,5.19,20,20,0,0,1,6.09,8.31,30.27,30.27,0,0,1,1.94,11.14,37.41,37.41,0,0,1-.83,8.24,28.59,28.59,0,0,1-2.56,6.93,37,37,0,0,1-4.29,6.29q-2.57,3.06-6,6.51-2.49,2.36-4.71,4.5t-4.64,4.43q-2.42,2.29-5.33,4.92t-6.64,6.09Z"/><path class="cls-1" d="M207.7,155.09a4.35,4.35,0,0,1-.49,1.93c-.33.65-1.13,1-2.44,1H189.3a2.74,2.74,0,0,1-2.3-.83,3.33,3.33,0,0,1-.62-2.07V137.36H145.94a4.83,4.83,0,0,1-2.62-.69,2.86,2.86,0,0,1-1.11-2.63V123.38a10.41,10.41,0,0,1,.21-2.08,5,5,0,0,1,1.31-2.35L184,68.7a7.94,7.94,0,0,1,2.36-1.87,7.18,7.18,0,0,1,3.2-.63h15.34c1.2,0,2,.33,2.29,1a4.21,4.21,0,0,1,.49,1.8v50.4h9.14a2.72,2.72,0,0,1,2.21.7,3.31,3.31,0,0,1,.56,2.07v12.32a3.56,3.56,0,0,1-.56,2.22,2.72,2.72,0,0,1-2.21.69H207.7ZM186,93.75,166,119.23v.55h20.63V93.89Z"/><path class="cls-1" d="M164.82,51.09a80.74,80.74,0,0,0-48.67-19.45A80.42,80.42,0,0,1,164.82,51.09Z"/><path class="cls-1" d="M169.29,169.27l22.31,22.31A112.23,112.23,0,1,1,112.21,0h.52A112,112,0,0,1,191.6,32.86L169.21,55.17q-2.13-2.13-4.39-4.08a80.42,80.42,0,0,0-48.67-19.45c-1.31-.07-2.62-.1-3.94-.1q-1.45,0-2.88.06l-1.37,0-.7,0q-3.72.22-7.34.78h-.09a80.68,80.68,0,0,0,4.13,160c2.65.27,5.35.41,8.07.42h.18A80.42,80.42,0,0,0,169.29,169.27Z"/><path class="cls-1" d="M104,192.48a80.68,80.68,0,0,1-4.13-160,80.69,80.69,0,0,0,4.13,160Z"/></g></g></g></g></svg>