<svg xmlns="http://www.w3.org/2000/svg" viewBox="0 0 1423.48 259.1"><defs><style>.cls-1{fill:#fff;}</style></defs><g id="Слой_2" data-name="Слой 2"><g id="Слой_1-2" data-name="Слой 1"><path class="cls-1" d="M537.48,258.18h-436C45.84,258.18-.42,212.63,0,157A102.84,102.84,0,0,1,102.71,55H217.38a22,22,0,0,1,22,22h0a22,22,0,0,1-22,22H102.71A58.79,58.79,0,0,0,44,157.28c-.25,31.29,26,56.9,57.25,56.9H537.48a22,22,0,0,1,22,22h0A22,22,0,0,1,537.48,258.18Z"/><rect class="cls-1" x="289.36" y="134.37" width="235.72" height="44.48" rx="22.24"/><rect class="cls-1" x="255.43" y="53.66" width="235.72" height="44.48" rx="22.24"/><path class="cls-1" d="M1423.48,239.14v0c-.2,2.55-1,7.86-5,11.92-4.69,4.73-11,5-17.22,5.2a57.83,57.83,0,0,1-25-5c-21.63-9.7-32.22-30.47-35.31-37.14q-25.67-53.85-51.34-107.7a14.46,14.46,0,0,0-11.53-7.84,14.08,14.08,0,0,0-13.74,7.7,289.78,289.78,0,0,0-19,37.44c-10.41,24.88-11.61,37.74-23.16,57.78a151.86,151.86,0,0,1-19.37,26.5l0,0a56.55,56.55,0,0,1-101.56-1.32l0-.1c-6.05-10.47-12.06-21.51-17.94-33.13a686.5,686.5,0,0,1-32.27-74.26,43.2,43.2,0,0,0-10.38-15c-3.89-3.79-7.81-6.1-10.5-6.1h-1.43c-5.4,0-15.7,9.25-20.88,21.17l-.2.44c-1.92,3.66-4.82,9.36-8,16.46-9.22,20.38-12,32.23-17.88,47.7a260.39,260.39,0,0,1-17.82,37.29c-.65,1.12-1.26,2.28-1.86,3.43-6.43,12.33-25.83,32.17-54.29,32.63-23.07.38-44.73-12.27-56.27-32.77-8.81-15.08-15.11-27.9-19.27-36.91-4.64-10.07-7-17.22-17.65-43.34a264.14,264.14,0,0,0-11.93-24.77c-.59-1.07-1.17-2.07-1.83-3.21-4.28-7.39-6.46-11.13-8.6-13.18a21.74,21.74,0,0,0-8.48-4.94,10.34,10.34,0,0,0-2.87-.1c-1,.1-4.71.63-11.23,7.91a60.33,60.33,0,0,0-6.08,8c-7.74,15.17-13.23,27.94-16.85,36.92-7.76,19.24-11,31.07-20.64,50-4.25,8.32-8.18,14.94-10.85,19.26a63.54,63.54,0,0,1-54.42,37.3l-6.73-.16a50.87,50.87,0,0,1-23.7-5.19c-7.87-3.93-12.64-9-16.54-13.14a79.69,79.69,0,0,1-13.83-20.23Q590,200,580.34,179.54c-10.6-22.52-19.77-44.32-27.74-65.12a61,61,0,0,0-6.42-8.71,19.7,19.7,0,0,0-3.9-3.67,16.11,16.11,0,0,0-8.6-2.54h0c-10.52,0-19.9-7.24-21.91-17.56a22.88,22.88,0,0,1,.56-11c4.2-13,19.18-16.68,20.56-17l1.37.15a73.12,73.12,0,0,1,62.54,43.45l45.24,103a20.58,20.58,0,0,0,3.51,6.57,12.34,12.34,0,0,0,3.57,3.36,11.27,11.27,0,0,0,6.67,1.4h2.3A16.63,16.63,0,0,0,673.29,202L721.53,92.06A63.4,63.4,0,0,1,779.6,54.13h4.13A63.21,63.21,0,0,1,842.19,93l51.27,111.62c2.87,5.54,8.1,9,13.24,8.69a14.46,14.46,0,0,0,8.19-3.68,15.17,15.17,0,0,0,3.9-5.5l48.7-102.57c10.36-23.62,33.24-47.38,61.13-47.38h1.43c27.82,0,50.68,23.68,61.07,47.24,1.83,2.71,4.77,7.17,8.13,12.82,9.75,16.42,14.58,28.67,29.12,64,2,4.86,5.57,13.5,10.14,24.54.51.81,5.14,8.24,11,10.47a13.84,13.84,0,0,0,5.64,1,9.32,9.32,0,0,0,3.73-1c2.84-1.44,4-4.16,4.57-5a325.75,325.75,0,0,0,22.88-44.49c8.84-21.1,12.26-35.71,25-57.1a204.51,204.51,0,0,1,13.67-20.13l0,0a57.81,57.81,0,0,1,51.85-31.87c13.7,0,23.51,4.93,29.65,8.09a78.75,78.75,0,0,1,27.93,24.44l0,0,49.29,104a44.74,44.74,0,0,0,26.93,22.12,17.86,17.86,0,0,1,12.74,17.14Z"/><rect class="cls-1" x="601.44" width="113.5" height="44.48" rx="22.24"/></g></g></svg>