<svg xmlns="http://www.w3.org/2000/svg" viewBox="0 0 778.24 392.39"><defs><style>.cls-1{fill:#000;}</style></defs><g id="Слой_2" data-name="Слой 2"><g id="Слой_1-2" data-name="Слой 1"><path class="cls-1" d="M241.42,391.66l5.38-1a41.88,41.88,0,0,0,6.14-1.67l1.43-.51A41.53,41.53,0,0,0,267.29,381h0a41.51,41.51,0,0,0,8.44-9.86l2.61-4.25a42,42,0,0,0,3.34-6.75l2.27-5.87a41.19,41.19,0,0,0,2.11-7.54l.44-2.45a39.83,39.83,0,0,0,.65-6.44l1.9-85.68a37.67,37.67,0,0,0-.78-8.48l-1.1-5.35a39.31,39.31,0,0,0-1.45-5.12l-1.62-4.47a37.33,37.33,0,0,0-3.9-7.82l-1.83-2.81a38.12,38.12,0,0,0-3.58-4.63L271,209.3a37.91,37.91,0,0,0-6.34-5.6l-3.48-2.43a37.85,37.85,0,0,0-7.14-3.93h0a37.63,37.63,0,0,0-7.57-2.24L107.08,169.22l-3.9-1.83-4.05-4.82-2.75-5.19-.76-3.67V139.26l1.75-3.36,2.68-2.37,2.06-.84L280.2,166.62h0a10.7,10.7,0,0,0,10.7-10.7v-58a10.7,10.7,0,0,0-8.3-10.43L66,37.53C41.8,32,15.85,48.93,14.83,73.68L13.3,176.79h0A50.22,50.22,0,0,0,56,229.71l136.14,20.35A22.68,22.68,0,0,1,211.41,274L210,295.94a11.73,11.73,0,0,1-13.43,10.83l-179-26.48A13.2,13.2,0,0,0,2.42,292.85L0,356.34A13.2,13.2,0,0,0,11.86,370l217.62,22.21A41.56,41.56,0,0,0,241.42,391.66Z"/><rect class="cls-1" x="342.27" y="97.53" width="91.11" height="276.99" rx="10.24"/><rect class="cls-1" x="342.27" width="91.11" height="72.31" rx="10.24"/><path class="cls-1" d="M769.64,123l-4-97.45L553.07,75.21c-38.75,9.17-65.53,44.67-64.81,84.48l3.19,177.51a54.57,54.57,0,0,0,60.66,53.25L778.24,365l-5-98.14L612,289.82C593.14,292.51,584.88,278,584.55,259l-1.21-70.58c-.27-15.34,11.55-31.3,26.59-34.29Z"/></g></g></svg>