<svg xmlns="http://www.w3.org/2000/svg" viewBox="0 0 441.1 435.8"><defs><style>.cls-1{fill:#fff;fill-rule:evenodd;}</style></defs><g id="Слой_2" data-name="Слой 2"><g id="Слой_1-2" data-name="Слой 1"><path class="cls-1" d="M308.8,243.8c-12.2,33.5-46.9,59-85.5,59-48,0-90.1-39.6-90.1-84.8s42.1-84.8,90.1-84.8c38.5,0,73.3,25.6,85.5,59l132.3-21.8C431.7,130,410.5,92.8,379,62.7A224.55,224.55,0,0,0,223.3,0c-58,0-113.2,22.3-155.7,62.7C24,104.3,0,159.4,0,217.9S24,331.5,67.6,373.1a224.55,224.55,0,0,0,155.7,62.7c58,0,113.2-22.3,155.7-62.7,31.5-30.1,52.8-67.3,62.1-107.7Z"/></g></g></svg>