<svg xmlns="http://www.w3.org/2000/svg" viewBox="0 0 155.2 47"><defs><style>.cls-1{fill:#fff;}</style></defs><g id="Слой_2" data-name="Слой 2"><g id="Слой_1-2" data-name="Слой 1"><path class="cls-1" d="M33.3,26.2a10,10,0,0,1-9.2,6.4c-5.2,0-9.7-4.3-9.7-9.1s4.5-9.1,9.7-9.1a9.94,9.94,0,0,1,9.2,6.4l14.3-2.4A22.83,22.83,0,0,0,40.9,6.8a24.15,24.15,0,0,0-33.6,0,22.75,22.75,0,0,0,0,33.4,24.15,24.15,0,0,0,33.6,0,22.83,22.83,0,0,0,6.7-11.6Z"/><polygon class="cls-1" points="104.8 1.1 50.4 1.1 51.8 15.5 70.4 15.5 70.4 45.8 84.8 45.8 84.8 15.5 103.3 15.5 104.8 1.1"/><path class="cls-1" d="M147.6,17.7a10.75,10.75,0,0,0,1.6-5.6,11,11,0,0,0-11-11H111.1V45.8h29.1a15,15,0,0,0,7.4-28.1Zm-22.1-6.8H134a3,3,0,1,1,0,6h-8.5ZM136.4,35H125.5V26.7h10.9a4.15,4.15,0,1,1,0,8.3Z"/></g></g></svg>