<svg xmlns="http://www.w3.org/2000/svg" viewBox="0 0 668.54 190.2"><defs><style>.cls-1{fill:#fff;}</style></defs><g id="Слой_2" data-name="Слой 2"><g id="Слой_1-2" data-name="Слой 1"><g id="layer1"><g id="g76"><g id="g2147"><path id="path4654" class="cls-1" d="M432.22,7.1V66.66l30.79,32-30.79,32V190.2L519.6,98.65Z"/><path id="path4656" class="cls-1" d="M356.26,67.08c0-12.92-7.3-20.73-24.57-20.73-3.76,0-8,.25-10.15.49V89a82.43,82.43,0,0,0,9.22.5c15.59,0,25.5-8.54,25.5-22.45M405.3,181H360.73L323,116.6h-1.43V181H284.9V16.23c13.39-1,30.54-1.23,49.65-1.23,37.46,0,59.3,14,59.3,48.92,0,22.19-13.14,40.24-34.3,45.6,4.22,6.34,8.23,12.44,12.24,18.54L405.3,181Z"/><path id="path4658" class="cls-1" d="M37.6,183.48A143.45,143.45,0,0,1,5,179.81l1.64-36.1c9.06,3.41,22.51,7,33.76,7,13.56,0,23.25-5.86,23.25-17.59C63.6,105,1.38,118.93,0,64.24c-.55-31,23.6-51.43,63.34-51.43a156.13,156.13,0,0,1,28.87,2.93l-.08,33.62C83.22,46.68,71.33,44.22,62,44.22c-15.29,0-22.69,6.84-22.69,16.12,0,25.63,63.5,15.87,63.5,67.38,0,32-24.62,55.76-65.16,55.76"/><path id="path4660" class="cls-1" d="M239,16.25l-16,102-16-102H170.16l-16,102-16-102H101.25L129.3,181.07h41.36L188.6,75.28l18,105.79h41.39L276,16.25Z"/><path id="path4662" class="cls-1" d="M510.73,7.1V66.66l30.8,32-30.8,32V190.2l87.39-91.55Z"/><path id="path4664" class="cls-1" d="M631.21,0c20.61,0,37.33,17.28,37.33,38.6s-16.72,38.61-37.33,38.61S593.92,59.93,593.92,38.6,610.6,0,631.21,0m15,54.23V15.59l-37.55,14v9.6l12.44-4.65V63.54l25.11-9.31Zm-15-48.57c-17.56,0-31.83,14.75-31.83,32.94s14.27,32.94,31.83,32.94,31.86-14.75,31.86-32.94S648.8,5.66,631.21,5.66"/></g></g></g></g></g></svg>