<svg xmlns="http://www.w3.org/2000/svg" viewBox="0 0 1324.91 432.02"><defs><style>.cls-1{fill:#000;}</style></defs><g id="Слой_2" data-name="Слой 2"><g id="Слой_1-2" data-name="Слой 1"><path class="cls-1" d="M432,65.05v78.47H287.41V429.68H143.94V143.52H0V65.05a65,65,0,0,1,65-65H367A65,65,0,0,1,432,65.05Z"/><path class="cls-1" d="M877.51,65V367a65,65,0,0,1-65,65H734V289.12H590V432H511.5a65,65,0,0,1-65-65V65a65,65,0,0,1,65-65H590V145.66H734V0h78.47A65,65,0,0,1,877.51,65Z"/><path class="cls-1" d="M1324.91,65.05v78.47H1180.3V429.68H1036.83V143.52H892.89V65.05a65,65,0,0,1,65-65h302A65,65,0,0,1,1324.91,65.05Z"/></g></g></svg>