<svg xmlns="http://www.w3.org/2000/svg" viewBox="0 0 513.35 513.35"><defs><style>.cls-1{fill:#fff;}</style></defs><g id="Слой_2" data-name="Слой 2"><g id="Слой_1-2" data-name="Слой 1"><path class="cls-1" d="M256.2,0C114.43.27-.27,115.38,0,257.15c.19,141.54,115.51,256.42,257.13,256.2h0c141.74-.27,256.44-115.41,256.2-257.15S397.94-.27,256.2,0ZM415.7,94.6s0,.06,0,.08,0,0,0-.08ZM393.37,51.45a4,4,0,0,1,.74.74q-4.47-2.77-9.22-5.44A80.42,80.42,0,0,1,393.37,51.45Zm-306,70.48c.06-.66.12-1.32.21-2,.41.33.82.64,1.25.93ZM408.3,448.06a207.78,207.78,0,0,1-32.39,22L334.16,421.9a133.32,133.32,0,0,1-27.85,11.76A171.82,171.82,0,0,1,256.57,441a177.38,177.38,0,0,1-49.7-7A129.35,129.35,0,0,1,164,412.57,108.53,108.53,0,0,1,134.06,377c-7.51-14.19-11.33-31-11.33-50V90.79H200V314.61a61.28,61.28,0,0,0,4.86,25.95,48.89,48.89,0,0,0,12.75,17.06,51.5,51.5,0,0,0,18.15,9.78,71.66,71.66,0,0,0,42.22,0,51.89,51.89,0,0,0,18.14-9.78,49,49,0,0,0,12.75-17.06,61.9,61.9,0,0,0,4.86-25.95V90.79h77.1V325.47A114.83,114.83,0,0,1,384.91,363L436,421.63A240,240,0,0,1,408.3,448.06Z"/></g></g></svg>