<svg xmlns="http://www.w3.org/2000/svg" viewBox="0 0 1053.86 298.27"><defs><style>.cls-1{fill:#fff;fill-rule:evenodd;}</style></defs><g id="Слой_2" data-name="Слой 2"><g id="Слой_1-2" data-name="Слой 1"><g id="Layer_1" data-name="Layer 1"><path class="cls-1" d="M0,0H369.21V66.25H230v232H138.48V92.69A26.51,26.51,0,0,0,112,66.25H0Z"/><path class="cls-1" d="M596.06,65.93H460.2v56.51H596.06a25.86,25.86,0,0,0,25.8-25.79V91.71a25.87,25.87,0,0,0-25.8-25.78m6.12,110.75h-142v56.51h142A25.85,25.85,0,0,0,628,207.43V202.5A25.86,25.86,0,0,0,602.18,176.68Zm92.92-111v36.53c0,27-22.57,47.62-49.57,47.62,16.41.27,27.65.5,40.53,12.07a47.28,47.28,0,0,1,15.55,35.38V239a47.27,47.27,0,0,1-12.39,31.92A65.7,65.7,0,0,1,636,298.27H369.15V61.49a48.68,48.68,0,0,1,3.56-18.27A64.58,64.58,0,0,1,433.39,0H630.47C665.56,0,695.1,30.44,695.1,65.68Z"/><path class="cls-1" d="M819.3,191.45h-.07v.11ZM728.17,0h91.07V108.87l.13.2h-.13v-.18L980.45,0h73.41V52.47L909.35,150l144.51,96V298.2h-74.1L819.24,191.55V298.22H728.17Z"/></g></g></g></svg>