<svg xmlns="http://www.w3.org/2000/svg" viewBox="0 0 1080.86 360.65"><defs><style>.cls-1{fill:#fff;fill-rule:evenodd;}</style></defs><g id="Слой_2" data-name="Слой 2"><g id="Слой_1-2" data-name="Слой 1"><path class="cls-1" d="M946.55,4.08H854.87V350.21h70.19V244.53l15.08.57c94.35,0,140.72-61.29,140.72-122C1080.86,63.39,1036,4.08,946.55,4.08Zm.28,176.16H924.89V71h25.23c40,.62,60,14.17,62.93,54C1010.56,166.35,987.09,179.56,946.83,180.24Z"/><polygon class="cls-1" points="709.67 0 549.5 360.65 389.17 0 467.07 0 546.67 182.39 549.5 193.28 552.28 182.22 631.88 0 709.67 0"/><polygon class="cls-1" points="268.29 4.08 268.29 71.15 171.4 71.15 171.4 350.21 97.01 350.21 97.01 71.15 0 71.15 0 4.08 268.29 4.08"/></g></g></svg>