<svg xmlns="http://www.w3.org/2000/svg" viewBox="0 0 187.61 122.57"><defs><style>.cls-1{fill:#fff;}</style></defs><g id="Слой_2" data-name="Слой 2"><g id="Слой_1-2" data-name="Слой 1"><path id="path4" class="cls-1" d="M12.34,18.82h9.83v28.3h7.56V18.82h9.83V12H12.34Z"/><path id="path6" class="cls-1" d="M3.47,57.58H132.59V1H3.47Zm87.06-54h39.23V55H90.53Zm-42.1,0H87.66V55H48.43Zm-42.1,0H45.56V55H6.33Z"/><path id="path8" class="cls-1" d="M108.28,12H99V47.09h7.12V36.36l1.52.06c9.56,0,14.25-6.21,14.25-12.37s-4.51-12-13.59-12Zm0,17.87H106.1V18.82h2.57c4.06.06,6.09,1.44,6.36,5.47-.27,4.18-2.63,5.53-6.72,5.59Z"/><path id="path10" class="cls-1" d="M68.33,30.09,68,31.2l-.26-1.11L59.7,11.62H51.81L68,48.16,84.29,11.62H76.4Z"/><path id="path12" class="cls-1" d="M176.76,26.68c5.76-1.73,8.69-6.39,8.69-12.1C185.45,5.85,178.73,0,166.84,0c-13.06,0-20.44,6.24-20.68,16.7h13.69c0-3.88,2.66-6.09,6.24-6s6.13,2.33,6.25,5.79c.27,7.71-4,9.12-6.9,10.58,3.2,2,8.12,2.66,8.15,12.7,0,4.09-2.6,7.11-7.35,7.11-4.51,0-6.9-2.6-6.9-7.53v-1H145v.78c0,11.86,8.31,19.48,21.46,19.48,12.51,0,21.12-7.53,21.12-18.53.06-7.47-3.74-12.22-10.85-13.41Z"/><g id="g1203"><path id="path1184" class="cls-1" d="M135,92.7a13.82,13.82,0,0,0-5.47,1.11A13.44,13.44,0,0,0,125,96.94a14.78,14.78,0,0,0-3.17,4.87,16.54,16.54,0,0,0,0,11.65A15,15,0,0,0,125,118.3a14.19,14.19,0,0,0,4.61,3.17,14,14,0,0,0,5.45,1.1v-6.34a7.33,7.33,0,0,1-1.5-.16,6.05,6.05,0,0,1-1.38-.46,6.36,6.36,0,0,1-1.26-.77,7.59,7.59,0,0,1-1.14-1.07,9.15,9.15,0,0,1-.93-1.31,8.71,8.71,0,0,1-.66-1.46,9.25,9.25,0,0,1-.4-1.61,11,11,0,0,1-.14-1.75,11.14,11.14,0,0,1,.14-1.77,9.14,9.14,0,0,1,.4-1.62,8.36,8.36,0,0,1,.66-1.46,8.54,8.54,0,0,1,.93-1.3,7.76,7.76,0,0,1,1.14-1.09,6.36,6.36,0,0,1,1.26-.77,6.61,6.61,0,0,1,1.38-.47A7.34,7.34,0,0,1,135,99Z"/><path id="path1186" class="cls-1" d="M135.45,83.82l-3.25,6.66H137l4.53-6.66Z"/><path id="path1182" class="cls-1" d="M135,92.7V99a7.54,7.54,0,0,1,1.52.15,6.61,6.61,0,0,1,1.38.47,6.36,6.36,0,0,1,1.26.77,7.64,7.64,0,0,1,1.12,1.09,7.35,7.35,0,0,1,.93,1.3,8.4,8.4,0,0,1,.67,1.46,9.14,9.14,0,0,1,.4,1.62,12,12,0,0,1,0,3.53,9.25,9.25,0,0,1-.4,1.61,8.3,8.3,0,0,1-.67,1.45,7.81,7.81,0,0,1-.93,1.31,7.48,7.48,0,0,1-1.12,1.07,6.36,6.36,0,0,1-1.26.77,6.05,6.05,0,0,1-1.38.46,7.53,7.53,0,0,1-1.52.16v6.34a13.79,13.79,0,0,0,6.33-1.51,14.22,14.22,0,0,0,5-4.24,13.93,13.93,0,0,0,2.18-4.23,16.33,16.33,0,0,0,.74-5,15.86,15.86,0,0,0-1.07-5.86,13.56,13.56,0,0,0-3.09-4.8,14,14,0,0,0-4.66-3.17A13.87,13.87,0,0,0,135,92.7Z"/><path id="path840-4" class="cls-1" d="M7.59,98.74H6.49v7.77H7.9a6.22,6.22,0,0,0,3.87-1,3.47,3.47,0,0,0,1.33-2.93,3.27,3.27,0,0,0-1.29-2.9A7.51,7.51,0,0,0,7.59,98.74ZM0,121.66v-28H7.21a23.75,23.75,0,0,1,5.35.46,9.36,9.36,0,0,1,3.38,1.51,7.77,7.77,0,0,1,2.42,2.78,7.36,7.36,0,0,1,.87,3.48,8.09,8.09,0,0,1-1.36,4.64A8.82,8.82,0,0,1,14,109.62l8.54,12H14.92l-7.48-11h-1v11Z"/><path id="path842-8" class="cls-1" d="M22.66,121.66,36.6,99.49H24.09l1.07-5.85H47.4L33.5,115.72H47.4l-1.07,5.94Z"/><path id="path844-2" class="cls-1" d="M51.71,121.66v-28H69v5.78H58.2v5.06h9.22v5.74H58.2v5.54H69.12v5.9Z"/><path id="path846-7" class="cls-1" d="M72.92,113.73A24.85,24.85,0,0,0,77.31,116a10.75,10.75,0,0,0,3.53.63,4.7,4.7,0,0,0,2.79-.75,2.34,2.34,0,0,0,1.06-2q0-1.73-3.75-3.87l-.93-.54-1.89-1.06a11.84,11.84,0,0,1-4.1-3.54,7.75,7.75,0,0,1-1.33-4.46,6.94,6.94,0,0,1,2.55-5.54,9.8,9.8,0,0,1,6.59-2.17,16.73,16.73,0,0,1,3.23.35,29.62,29.62,0,0,1,3.86,1.08v6.57a21.92,21.92,0,0,0-3.84-2A9.13,9.13,0,0,0,82,98a3.59,3.59,0,0,0-2.22.62,1.94,1.94,0,0,0-.81,1.65,2.26,2.26,0,0,0,.48,1.37,4.65,4.65,0,0,0,1.45,1.16l3.29,1.81a17.5,17.5,0,0,1,5.52,4.21,7.46,7.46,0,0,1,1.43,4.58,8.5,8.5,0,0,1-2.8,6.63,10.59,10.59,0,0,1-7.4,2.51,20.22,20.22,0,0,1-3.4-.32,33.86,33.86,0,0,1-4-1Z"/><path id="path848" class="cls-1" d="M93.46,121.66l13.93-22.17H94.89L96,93.64h22.24L104.3,115.72h13.89l-1.06,5.94Z"/><path id="path852" class="cls-1" d="M162.15,122.56,150.44,93.64h6.77l5.44,15.11,5.86-16H169l5.89,16,5.4-15.11h6.24l-11.64,28.92h-.42l-6-16-5.86,16Z"/></g></g></g></svg>