<svg xmlns="http://www.w3.org/2000/svg" viewBox="0 0 127.23 76.4"><defs><style>.cls-1{fill:#fff;}</style></defs><g id="Слой_2" data-name="Слой 2"><g id="Слой_1-2" data-name="Слой 1"><path id="path4" class="cls-1" d="M11.64,12.09H18V30.25h4.86V12.09h6.31V7.73H11.64Z"/><path id="path6" class="cls-1" d="M5.94,37H88.86V.65H5.94ZM61.85,2.28H87V35.34H61.85Zm-27,0H60V35.34H34.82Zm-27,0H33V35.34H7.79Z"/><path id="path8" class="cls-1" d="M73.24,7.71h-6V30.23h4.56V23.35l1,0c6.14,0,9.15-4,9.15-8s-2.89-7.73-8.73-7.73Zm0,11.47H71.84V12.09H73.5c2.61,0,3.91.92,4.08,3.51-.17,2.68-1.69,3.55-4.31,3.58Z"/><path id="path10" class="cls-1" d="M47.6,19.32l-.2.71-.17-.71L42.05,7.46H37L47.4,30.93,57.84,7.46H52.78Z"/><path id="path12" class="cls-1" d="M117.22,17.13a7.62,7.62,0,0,0,5.58-7.77c0-5.6-4.32-9.36-12-9.36-8.38,0-13.12,4-13.28,10.73h8.79a3.67,3.67,0,0,1,4-3.88,3.8,3.8,0,0,1,4,3.72c.17,4.95-2.53,5.85-4.43,6.79,2,1.27,5.22,1.71,5.24,8.16a4.33,4.33,0,0,1-4.72,4.56c-2.9,0-4.44-1.67-4.44-4.83v-.62H96.85v.5c0,7.62,5.33,12.51,13.77,12.51,8,0,13.56-4.84,13.56-11.9,0-4.79-2.39-7.84-7-8.61Z"/><path id="path14" class="cls-1" d="M10.57,69a4.22,4.22,0,0,0-2.36-1.4A3.55,3.55,0,0,0,10.9,64.1c0-2.77-1.94-4.17-5.82-4.17H0V76.39H4.45c4.62,0,6.94-1.61,6.94-4.79A3.94,3.94,0,0,0,10.57,69Zm-7-6.27h1.2c1.69,0,2.56.59,2.56,1.78a1.69,1.69,0,0,1-.66,1.42,2.9,2.9,0,0,1-1.8.52H3.59V62.73ZM7.1,72.85a2.72,2.72,0,0,1-1.89.57H3.58V69.18H5.21a3,3,0,0,1,1.89.54,1.88,1.88,0,0,1,.65,1.54,2.13,2.13,0,0,1-.65,1.59Z"/><path id="path16" class="cls-1" d="M15.4,60.11h3.9V76.39H15.4Z"/><path id="path18" class="cls-1" d="M30.16,60.16h-.25l-8,16.23h3.78l1-2.28h6.39l1,2.28H38ZM27.78,71.39l2.09-4.93,2,4.93Z"/><path id="path20" class="cls-1" d="M50,76.39H39.84v-5.6l-1.11.77V68.13l1.11-.77v-7.2h3.88v5l2.88-2v3.47l-2.88,2V72.9H50Z"/><path id="path22" class="cls-1" d="M64.84,60.16l-6.25,8.37v7.86H54.75V68.68l-5.81-8.52h4.68L57,65.3l3.75-5.14Z"/><path id="path24" class="cls-1" d="M75.32,71.4A4.64,4.64,0,0,1,73.82,75a5.7,5.7,0,0,1-4.09,1.4,13.65,13.65,0,0,1-4.06-.73l-.31-4.08a16.81,16.81,0,0,0,2.28,1.15,5.33,5.33,0,0,0,2,.4,2.48,2.48,0,0,0,1.53-.44,1.29,1.29,0,0,0,.56-1.06,1.91,1.91,0,0,0-1-1.53l-1.52-.87-1-.57c-2-1.1-3-2.57-3-4.38a3.89,3.89,0,0,1,1.38-3,5.24,5.24,0,0,1,3.61-1.19,7.9,7.9,0,0,1,1.78.2,20.19,20.19,0,0,1,2.07.57v3.59a10.36,10.36,0,0,0-2.15-1.09A5.25,5.25,0,0,0,70.27,63a2,2,0,0,0-1.2.33,1,1,0,0,0-.46.9c0,.54.34,1,1,1.38l1.79,1a10.34,10.34,0,0,1,2.74,1.94,3.87,3.87,0,0,1,1.13,2.87Z"/><path id="path26" class="cls-1" d="M91.8,63.56H86.68V76.4H82.8V63.56H77.64V60.17H91.8Z"/><path id="path28" class="cls-1" d="M107,62.41a7.76,7.76,0,0,0-8.48-1.71,7.69,7.69,0,0,0-2.53,1.71,8.53,8.53,0,0,0,0,11.63,7.44,7.44,0,0,0,5.5,2.36,7.64,7.64,0,0,0,3.46-.83A8.48,8.48,0,0,0,107,62.41Zm-2.66,9.19a3.78,3.78,0,0,1-2.88,1.34,3.72,3.72,0,0,1-2.88-1.34,5,5,0,0,1-1.17-3.34,4.86,4.86,0,0,1,1.17-3.37,3.61,3.61,0,0,1,2.88-1.35,3.68,3.68,0,0,1,2.89,1.33,5.14,5.14,0,0,1,1.16,3.39A4.9,4.9,0,0,1,104.29,71.6Z"/><path id="path30" class="cls-1" d="M127.23,76.39h-4.68l-5.78-7.48v7.48H113V60.16h3.81v7.06l5.37-7.06h4.61l-6.12,7.74Z"/></g></g></svg>