<svg xmlns="http://www.w3.org/2000/svg" viewBox="0 0 184.14 122.73"><defs><style>.cls-1{fill:#fff;}</style></defs><g id="Слой_2" data-name="Слой 2"><g id="Слой_1-2" data-name="Слой 1"><path id="path4" class="cls-1" d="M8.88,18.82H18.7v28.3h7.56V18.82h9.83V12H8.88Z"/><path id="path6" class="cls-1" d="M0,57.58H129.13V1H0Zm87.07-54h39.22V55H87.07ZM45,3.56H84.2V55H45Zm-42.1,0H42.1V55H2.87Z"/><path id="path8" class="cls-1" d="M104.81,12H95.52V47.09h7.11V36.36l1.53.06c9.56,0,14.25-6.21,14.25-12.37s-4.52-12-13.6-12Zm0,17.87h-2.21V18.82h2.57c4.07.06,6.1,1.44,6.37,5.47-.27,4.18-2.63,5.53-6.72,5.59Z"/><path id="path10" class="cls-1" d="M64.87,30.09l-.3,1.11-.27-1.11L56.23,11.62H48.35L64.57,48.16,80.82,11.62H72.93Z"/><path id="path12" class="cls-1" d="M173.29,26.68c5.77-1.73,8.7-6.39,8.7-12.1C182,5.85,175.27,0,163.37,0c-13.05,0-20.43,6.24-20.67,16.7h13.68c0-3.88,2.66-6.09,6.25-6s6.12,2.33,6.24,5.79c.27,7.71-3.94,9.12-6.9,10.58,3.2,2,8.13,2.66,8.16,12.7,0,4.09-2.6,7.11-7.35,7.11-4.51,0-6.9-2.6-6.9-7.53v-1H141.57v.77c0,11.86,8.3,19.48,21.45,19.48,12.52,0,21.12-7.53,21.12-18.53.06-7.47-3.73-12.22-10.84-13.41Z"/><g id="flowRoot17"><path id="path25" class="cls-1" d="M8.71,107.64a9.06,9.06,0,0,0,2.13,6.13,6.74,6.74,0,0,0,5.28,2.46,6.71,6.71,0,0,0,5.28-2.46,9.91,9.91,0,0,0,0-12.28,6.86,6.86,0,0,0-10.56,0A9.06,9.06,0,0,0,8.71,107.64Zm-6.89,0a15.72,15.72,0,0,1,1.07-5.82,14.72,14.72,0,0,1,3.17-4.88,13.45,13.45,0,0,1,4.58-3.13,14.18,14.18,0,0,1,11,0A13.93,13.93,0,0,1,26.25,97a13.73,13.73,0,0,1,3.1,4.8,15.85,15.85,0,0,1,1.06,5.86,16.28,16.28,0,0,1-.73,5,13.9,13.9,0,0,1-2.19,4.24,14.24,14.24,0,0,1-5,4.24A14,14,0,0,1,6.06,118.3a14.76,14.76,0,0,1-3.17-4.84A15.72,15.72,0,0,1,1.82,107.64Z"/><path id="path27" class="cls-1" d="M35.13,121.67v-28h6.7v22H52.76v6Z"/><path id="path29" class="cls-1" d="M54.75,113.73A24.85,24.85,0,0,0,59.14,116a10.78,10.78,0,0,0,3.54.64,4.63,4.63,0,0,0,2.79-.76,2.33,2.33,0,0,0,1.06-2q0-1.73-3.75-3.87l-.93-.54L60,108.39a11.84,11.84,0,0,1-4.1-3.54,7.75,7.75,0,0,1-1.33-4.46,7,7,0,0,1,2.55-5.56,9.86,9.86,0,0,1,6.6-2.16A16,16,0,0,1,66.9,93a29.73,29.73,0,0,1,3.87,1.08v6.58a23.18,23.18,0,0,0-3.85-2,9,9,0,0,0-3.1-.69,3.53,3.53,0,0,0-2.22.62,1.92,1.92,0,0,0-.81,1.64,2.22,2.22,0,0,0,.48,1.37,4.28,4.28,0,0,0,1.45,1.16L66,104.62a17.3,17.3,0,0,1,5.53,4.22A7.46,7.46,0,0,1,73,113.42a8.52,8.52,0,0,1-2.8,6.64,10.63,10.63,0,0,1-7.41,2.51,19.34,19.34,0,0,1-3.41-.32,32,32,0,0,1-4-1Z"/><path id="path31" class="cls-1" d="M75.31,121.67l14-22.19H76.75l1.06-5.86h22.27L86.17,115.73h13.91L99,121.67Z"/><path id="path33" class="cls-1" d="M110.1,121.67V99.48h-8.92V93.62h24.49v5.86h-8.88v22.19Z"/><path id="path35" class="cls-1" d="M134.34,121.67V108.36l-10-14.74h8.09l5.86,8.87,6.46-8.87h7.1L141,108.09v13.58Z"/><path id="path37" class="cls-1" d="M153.53,121.67v-29h.63l17.47,16.36V93.62h6.17v29.11h-.58L159.7,106.36v15.31Z"/></g></g></g></svg>