<svg xmlns="http://www.w3.org/2000/svg" viewBox="0 0 184.14 122.58"><defs><style>.cls-1{fill:#fff;}</style></defs><g id="Слой_2" data-name="Слой 2"><g id="Слой_1-2" data-name="Слой 1"><path id="path4" class="cls-1" d="M8.88,18.82H18.7v28.3h7.56V18.82h9.83V12H8.88Z"/><path id="path6" class="cls-1" d="M0,57.58H129.13V1H0Zm87.07-54h39.22V55H87.07ZM45,3.56H84.2V55H45Zm-42.1,0H42.1V55H2.87Z"/><path id="path8" class="cls-1" d="M104.81,12H95.52V47.09h7.11V36.36l1.53.06c9.56,0,14.25-6.21,14.25-12.37s-4.52-12-13.6-12Zm0,17.87h-2.21V18.82h2.57c4.07.06,6.1,1.44,6.37,5.47-.27,4.18-2.63,5.53-6.72,5.59Z"/><path id="path10" class="cls-1" d="M64.87,30.09l-.3,1.11-.27-1.11L56.23,11.62H48.35L64.57,48.16,80.82,11.62H72.93Z"/><path id="path12" class="cls-1" d="M173.29,26.68c5.77-1.73,8.7-6.39,8.7-12.1C182,5.85,175.27,0,163.37,0c-13.05,0-20.43,6.24-20.67,16.7h13.68c0-3.88,2.66-6.09,6.25-6s6.12,2.33,6.24,5.79c.27,7.71-3.94,9.12-6.9,10.58,3.2,2,8.13,2.66,8.16,12.7,0,4.09-2.6,7.11-7.35,7.11-4.51,0-6.9-2.6-6.9-7.53v-1H141.57v.77c0,11.86,8.3,19.48,21.45,19.48,12.52,0,21.12-7.53,21.12-18.53.06-7.47-3.73-12.22-10.84-13.41Z"/><g id="flowRoot21"><path id="path30" class="cls-1" d="M33.36,107.64a9.13,9.13,0,0,0,2.12,6.14,6.91,6.91,0,0,0,10.57,0,9.93,9.93,0,0,0,0-12.29,6.87,6.87,0,0,0-10.57,0A9.1,9.1,0,0,0,33.36,107.64Zm-6.89,0a15.79,15.79,0,0,1,1.06-5.82,14.7,14.7,0,0,1,3.18-4.88,13.45,13.45,0,0,1,4.58-3.13,14.18,14.18,0,0,1,11,0A14.07,14.07,0,0,1,50.91,97a13.56,13.56,0,0,1,3.09,4.8,15.89,15.89,0,0,1,1.07,5.86,16.35,16.35,0,0,1-.74,5,14.35,14.35,0,0,1-7.23,8.47,14,14,0,0,1-16.39-2.76,14.74,14.74,0,0,1-3.18-4.84,15.81,15.81,0,0,1-1.06-5.83Z"/><path id="path32" class="cls-1" d="M67.39,98.76h-.9v7.49H67.7a6.5,6.5,0,0,0,3.87-1,3.29,3.29,0,0,0,1.34-2.82,3.15,3.15,0,0,0-1.32-2.81A7.67,7.67,0,0,0,67.39,98.76Zm-7.6,22.91v-28H67a23,23,0,0,1,5.28.48,9.35,9.35,0,0,1,3.46,1.62,7.7,7.7,0,0,1,2.42,2.87,7.83,7.83,0,0,1,.87,3.62A8.28,8.28,0,0,1,76,109a12.54,12.54,0,0,1-8.21,2.5H67l-.5,0v10.25Z"/><path id="path34" class="cls-1" d="M88.39,107.64a9.09,9.09,0,0,0,2.13,6.14,6.9,6.9,0,0,0,10.56,0,9.93,9.93,0,0,0,0-12.29,6.86,6.86,0,0,0-10.56,0A9.06,9.06,0,0,0,88.39,107.64Zm-6.89,0a15.8,15.8,0,0,1,1.07-5.82,14.82,14.82,0,0,1,3.17-4.88,13.49,13.49,0,0,1,4.59-3.13,14.18,14.18,0,0,1,11,0A14,14,0,0,1,105.94,97a13.73,13.73,0,0,1,3.1,4.8,15.89,15.89,0,0,1,1.06,5.86,16.35,16.35,0,0,1-.73,5,13.9,13.9,0,0,1-2.19,4.24,14.19,14.19,0,0,1-5.05,4.23,14.06,14.06,0,0,1-11.79.41,14,14,0,0,1-4.6-3.17,14.87,14.87,0,0,1-3.17-4.84,15.81,15.81,0,0,1-1.07-5.83Z"/><path id="path36" class="cls-1" d="M114.82,121.67v-28h6.7v22h10.93v6Z"/><path id="path38" class="cls-1" d="M135.72,121.67v-28H153V99.4H142.22v5.07h9.24v5.75h-9.24v5.55h10.94v5.9Z"/></g></g></g></svg>