<svg xmlns="http://www.w3.org/2000/svg" viewBox="0 0 184.14 122.74"><defs><style>.cls-1{fill:#fff;}</style></defs><g id="Слой_2" data-name="Слой 2"><g id="Слой_1-2" data-name="Слой 1"><path id="path4" class="cls-1" d="M8.88,18.82H18.7v28.3h7.56V18.82h9.83V12H8.88Z"/><path id="path6" class="cls-1" d="M0,57.58H129.13V1H0Zm87.07-54h39.22V55H87.07ZM45,3.56H84.2V55H45Zm-42.1,0H42.1V55H2.87Z"/><path id="path8" class="cls-1" d="M104.81,12H95.52V47.09h7.11V36.36l1.53.06c9.56,0,14.25-6.21,14.25-12.37s-4.52-12-13.6-12Zm0,17.87h-2.21V18.82h2.57c4.07.06,6.1,1.44,6.37,5.47-.27,4.18-2.63,5.53-6.72,5.59Z"/><path id="path10" class="cls-1" d="M64.87,30.09l-.3,1.11-.27-1.11L56.23,11.62H48.35L64.57,48.16,80.82,11.62H72.93Z"/><path id="path12" class="cls-1" d="M173.29,26.68c5.77-1.73,8.7-6.39,8.7-12.1C182,5.85,175.27,0,163.37,0c-13.05,0-20.43,6.24-20.67,16.7h13.68c0-3.88,2.66-6.09,6.25-6s6.12,2.33,6.24,5.79c.27,7.71-3.94,9.12-6.9,10.58,3.2,2,8.13,2.66,8.16,12.7,0,4.09-2.6,7.11-7.35,7.11-4.51,0-6.9-2.6-6.9-7.53v-1H141.57v.77c0,11.86,8.3,19.48,21.45,19.48,12.52,0,21.12-7.53,21.12-18.53.06-7.47-3.73-12.22-10.84-13.41Z"/><path id="path1459" class="cls-1" d="M154.46,83.81l-3.25,6.66H156l4.53-6.66Z"/><g id="flowRoot17"><path id="path25" class="cls-1" d="M11.32,98.84h-.9v7.47h1.21a6.47,6.47,0,0,0,3.86-1,3.27,3.27,0,0,0,1.33-2.81,3.15,3.15,0,0,0-1.31-2.8A7.68,7.68,0,0,0,11.32,98.84ZM3.74,121.68v-28h7.2a22.2,22.2,0,0,1,5.26.49,9.43,9.43,0,0,1,3.46,1.62,8.07,8.07,0,0,1,3.28,6.46,8.25,8.25,0,0,1-3,6.73c-2,1.66-4.73,2.49-8.18,2.49h-.81l-.5,0v10.22Z"/><path id="path27" class="cls-1" d="M32.25,107.7a9,9,0,0,0,2.13,6.11,6.88,6.88,0,0,0,10.53,0,9.91,9.91,0,0,0,0-12.25,6.85,6.85,0,0,0-10.53,0A9,9,0,0,0,32.25,107.7Zm-6.86,0a15.7,15.7,0,0,1,1.06-5.81A14.71,14.71,0,0,1,29.61,97a13.48,13.48,0,0,1,4.57-3.12,14.1,14.1,0,0,1,10.92,0,14.24,14.24,0,0,1,7.74,7.94,16,16,0,0,1,1.06,5.85,16.26,16.26,0,0,1-.74,4.94A13.55,13.55,0,0,1,51,116.86a14.34,14.34,0,0,1-5,4.23,14,14,0,0,1-11.75.4,14.08,14.08,0,0,1-4.59-3.16,14.8,14.8,0,0,1-3.16-4.83A15.65,15.65,0,0,1,25.39,107.7Z"/><path id="path29" class="cls-1" d="M56.08,121.68,70,99.56H57.5l1.07-5.85h22.2L66.9,115.76H80.77l-1.06,5.92Z"/><path id="path31" class="cls-1" d="M85.07,121.68V92.81h.64l17.42,16.32V93.71h6.15v29h-.58L91.22,106.43v15.25Z"/><path id="path33" class="cls-1" d="M121.78,112.79h7.35L125.5,104Zm-10.46,8.89,14.26-28.84H126L140,121.68h-7l-1.78-4.07H119.85L118,121.68Z"/><path id="path35" class="cls-1" d="M142.09,121.68V92.81h.64l17.42,16.32V93.71h6.15v29h-.58l-17.47-16.31v15.25Z"/></g></g></g></svg>