<svg xmlns="http://www.w3.org/2000/svg" viewBox="0 0 135.26 88.58"><defs><style>.cls-1{fill:#fff;}</style></defs><g id="Слой_2" data-name="Слой 2"><g id="Слой_1-2" data-name="Слой 1"><path id="path4" class="cls-1" d="M6.52,13.83h7.22V34.61h5.55V13.83h7.22v-5h-20Z"/><path id="path6" class="cls-1" d="M0,42.29H94.85V.75H0ZM64,2.61H92.77V40.43H64ZM33,2.61H61.85V40.43H33Zm-30.92,0H30.92V40.43H2.11Z"/><path id="path8" class="cls-1" d="M77,8.82H70.16V34.59h5.23V26.71l1.12,0c7,0,10.46-4.56,10.46-9.08S83.66,8.82,77,8.82ZM77,22H75.39V13.83h1.89c3,0,4.47,1.05,4.67,4C81.75,20.91,80,21.9,77,22Z"/><path id="path10" class="cls-1" d="M47.65,22.1l-.22.82-.2-.82L41.31,8.54h-5.8L47.43,35.38,59.37,8.54h-5.8Z"/><path id="path12" class="cls-1" d="M127.29,19.6c4.24-1.27,6.39-4.7,6.39-8.89C133.68,4.3,128.74,0,120,0c-9.59,0-15,4.59-15.18,12.27h10.05a4.19,4.19,0,0,1,4.59-4.43A4.33,4.33,0,0,1,124,12.09c.2,5.67-2.89,6.7-5.06,7.77,2.34,1.45,6,2,6,9.33,0,3-1.91,5.23-5.4,5.23-3.32,0-5.07-1.92-5.07-5.54v-.7H104v.57c0,8.71,6.1,14.31,15.75,14.31,9.2,0,15.52-5.53,15.52-13.61,0-5.49-2.74-9-8-9.86Z"/><path id="path14" class="cls-1" d="M52.91,67.42h-.3L42.14,88.55h4.93l1.34-3h8.32l1.29,3h5.12L52.91,67.42ZM49.82,82l2.72-6.43L55.19,82H49.82Z"/><path id="path16" class="cls-1" d="M23.64,88.55h-6.1L10,78.83v9.72H5V67.42h5v9.2l7-9.2h6L15,77.49Z"/><path id="path18" class="cls-1" d="M126.91,68.06l-8.23,20.5h-.3l-4.24-11.35L110,88.56h-.37l-8.29-20.5h4.78L110,78.77l4.15-11.35h.35l4.19,11.35,3.82-10.71Z"/><path id="path20" class="cls-1" d="M95.53,61.43l-3.2,4.45H89.14l2.24-4.45Z"/><path id="path22" class="cls-1" d="M98.36,70.43a9.71,9.71,0,0,0-7.17-3,9.3,9.3,0,0,0-3.84.79,10.21,10.21,0,0,0-3.29,2.22,11,11,0,0,0,0,15.08,9.61,9.61,0,0,0,7.15,3,10,10,0,0,0,4.5-1.07,10.48,10.48,0,0,0,3.55-3,10.64,10.64,0,0,0,2.07-6.5A10.45,10.45,0,0,0,98.36,70.43ZM94.92,82.34a4.86,4.86,0,0,1-3.73,1.74,4.77,4.77,0,0,1-3.73-1.74,7,7,0,0,1,0-8.71,4.74,4.74,0,0,1,3.73-1.74,4.84,4.84,0,0,1,3.75,1.71A6.6,6.6,0,0,1,96.43,78a6.32,6.32,0,0,1-1.51,4.32Z"/><path id="path24" class="cls-1" d="M35,79.47a6,6,0,0,0,3.92-5.86,5.58,5.58,0,0,0-2.45-4.72,6.93,6.93,0,0,0-2.77-1.23,23.41,23.41,0,0,0-3.86-.26H24.41V88.55h4.93V80.24h.71l5.64,8.31h5.77Zm-1.67-3.14a4.88,4.88,0,0,1-2.92.79H29.34V71.26h.84a6,6,0,0,1,3.16.66,2.45,2.45,0,0,1,1,2.22,2.6,2.6,0,0,1-1,2.19Z"/><path id="path26" class="cls-1" d="M82.26,88.55h-6l-7.43-9.61v9.61H63.89V67.68h4.92v9.09l6.89-9.09h5.92l-7.86,9.95Z"/></g></g></svg>