<svg xmlns="http://www.w3.org/2000/svg" viewBox="0 0 160.6 106.87"><defs><style>.cls-1{fill:#fff;}</style></defs><g id="Слой_2" data-name="Слой 2"><g id="Слой_1-2" data-name="Слой 1"><path id="path4" class="cls-1" d="M7.74,16.42h8.57V41.09h6.6V16.42h8.57V10.5H7.74Z"/><path id="path6" class="cls-1" d="M0,50.22H112.62V.89H0ZM75.94,3.1h34.21V48H75.94Zm-36.72,0H73.43V48H39.22ZM2.5,3.1H36.72V48H2.5Z"/><path id="path8" class="cls-1" d="M91.41,10.48h-8.1V41.07h6.2V31.71l1.33.05c8.34,0,12.43-5.42,12.43-10.78S99.34,10.47,91.41,10.47Zm0,15.58H89.51V16.42h2.25c3.54,0,5.31,1.25,5.55,4.76-.24,3.65-2.3,4.83-5.87,4.88Z"/><path id="path10" class="cls-1" d="M56.58,26.24l-.26,1-.24-1-7-16.1H42.17L56.32,42,70.49,10.14H63.61Z"/><path id="path12" class="cls-1" d="M151.14,23.27c5-1.51,7.59-5.58,7.59-10.55C158.73,5.1,152.86,0,142.49,0c-11.39,0-17.82,5.45-18,14.57h11.93c0-3.39,2.33-5.32,5.45-5.27s5.34,2,5.45,5.06c.23,6.72-3.44,8-6,9.23,2.79,1.71,7.09,2.32,7.11,11.07,0,3.57-2.27,6.2-6.41,6.2-3.93,0-6-2.26-6-6.56v-.84H123.47v.68c0,10.34,7.24,17,18.71,17,10.92,0,18.42-6.57,18.42-16.16.06-6.52-3.25-10.66-9.46-11.7Z"/><path id="path14" class="cls-1" d="M44,106.87H35.26V92.72H44v2.92H38.51v2.55h4.67v2.89H38.51v2.82H44Z"/><path id="path16" class="cls-1" d="M61.34,75.18a6.84,6.84,0,0,0-5-2.09,6.53,6.53,0,0,0-2.66.55,6.85,6.85,0,0,0-2.29,1.54,7.68,7.68,0,0,0,0,10.5,6.68,6.68,0,0,0,5,2.14,7,7,0,0,0,3.12-.74A7.18,7.18,0,0,0,61.94,85a7.27,7.27,0,0,0,1.43-4.53,7.06,7.06,0,0,0-2-5.29Zm-2.4,8.29a3.42,3.42,0,0,1-2.6,1.22,3.35,3.35,0,0,1-2.61-1.22,4.95,4.95,0,0,1,0-6.07,3.33,3.33,0,0,1,2.61-1.23,3.28,3.28,0,0,1,2.6,1.2A4.66,4.66,0,0,1,60,80.44,4.34,4.34,0,0,1,58.94,83.47Z"/><path id="path18" class="cls-1" d="M92.48,95.25a4.07,4.07,0,0,0-1.22-1.44A4.88,4.88,0,0,0,89.41,93a13.41,13.41,0,0,0-2.56-.21H83.23v14.13h3.36v-5.19h.65a6.4,6.4,0,0,0,4.17-1.25A4.28,4.28,0,0,0,92.92,97a4,4,0,0,0-.44-1.79ZM87.19,99.1h-.62V95.32H87c1.85,0,2.76.63,2.76,1.85s-.86,1.93-2.61,1.93Z"/><path id="path20" class="cls-1" d="M55.4,106.87H46.52V92.75h3.36v11.1H55.4Z"/><path id="path22" class="cls-1" d="M68.69,106.87H64.6l-5-6.52v6.52H56.23V92.75h3.34V98.9l4.66-6.15h4l-5.31,6.72Z"/><path id="path24" class="cls-1" d="M29.45,92.72h3.38v14.15H29.45Z"/><path id="path26" class="cls-1" d="M128.29,102.54a4,4,0,0,1-1.31,3.1,4.88,4.88,0,0,1-3.54,1.23,12.26,12.26,0,0,1-3.52-.63l-.26-3.54a11,11,0,0,0,2,1,4.74,4.74,0,0,0,1.77.36,2.35,2.35,0,0,0,1.33-.36,1.14,1.14,0,0,0,.49-.92,1.65,1.65,0,0,0-.91-1.33c-.11,0-.52-.31-1.31-.75l-.91-.5a4.35,4.35,0,0,1-2.58-3.78,3.35,3.35,0,0,1,1.2-2.63,4.55,4.55,0,0,1,3.13-1,8.48,8.48,0,0,1,1.56.15c.52.11,1.12.29,1.8.5v3.1a10.44,10.44,0,0,0-1.85-1,4.56,4.56,0,0,0-1.44-.31,1.72,1.72,0,0,0-1,.29.89.89,0,0,0-.39.78c0,.47.31.86.91,1.2l1.57.86a8.69,8.69,0,0,1,2.37,1.69,3.65,3.65,0,0,1,.94,2.51Z"/><path id="path28" class="cls-1" d="M121.41,73.64,115.7,87.79h-.21L112.58,80l-2.87,7.84h-.26l-5.73-14.15H107l2.69,7.4,2.87-7.84h.23L115.7,81l2.63-7.4Z"/><path id="path30" class="cls-1" d="M48,86.41a11.46,11.46,0,0,1-5.24,1.38,7.11,7.11,0,0,1-5.19-2.06,7,7,0,0,1-2.06-5.21,7.1,7.1,0,0,1,7.38-7.32,7.7,7.7,0,0,1,4.4,1.33L47,77.94a5.47,5.47,0,0,0-3.89-1.85,4.15,4.15,0,0,0-3,1.22,4.3,4.3,0,0,0-1.22,3.1A4.5,4.5,0,0,0,40,83.62a4,4,0,0,0,3,1.22,6.39,6.39,0,0,0,1.78-.28v-2H42.16V79.79H48v6.62Z"/><path id="path32" class="cls-1" d="M79.5,94.73a6.52,6.52,0,0,0-4.79-2,6.19,6.19,0,0,0-2.55.52A6.31,6.31,0,0,0,70,94.73a7.4,7.4,0,0,0,0,10.11,6.36,6.36,0,0,0,4.77,2,6.58,6.58,0,0,0,3-.7,6.82,6.82,0,0,0,2.37-2,7.57,7.57,0,0,0-.57-9.43Zm-2.31,8a3.28,3.28,0,0,1-2.5,1.17,3.19,3.19,0,0,1-2.51-1.17,4.68,4.68,0,0,1,0-5.81,3.19,3.19,0,0,1,2.51-1.17,3.13,3.13,0,0,1,2.5,1.14,4.49,4.49,0,0,1,1,3A4.09,4.09,0,0,1,77.19,102.7Z"/><path id="path34" class="cls-1" d="M72.1,81.62a4.07,4.07,0,0,0,2.69-4,3.76,3.76,0,0,0-1.69-3.2,4.41,4.41,0,0,0-1.88-.84,14.46,14.46,0,0,0-2.63-.18h-3.7V87.82h3.33V82.14h.5l3.85,5.65h3.94ZM71,79.48A3.34,3.34,0,0,1,69,80h-.73V76h.57a4.35,4.35,0,0,1,2.17.44A1.7,1.7,0,0,1,71.64,78,1.81,1.81,0,0,1,71,79.48Z"/><path id="path36" class="cls-1" d="M90,84.69l-.54,3.1H77.08l7.3-11.59H77.84l.54-3.08H90L82.76,84.69Z"/><path id="path38" class="cls-1" d="M99.62,69,97.41,72.1H95.19L96.75,69Z"/><path id="path40" class="cls-1" d="M101.58,75.23a6.78,6.78,0,0,0-5-2.09,6.85,6.85,0,0,0-2.66.55,6.57,6.57,0,0,0-2.27,1.54,7.18,7.18,0,0,0-2.08,5.24,7.09,7.09,0,0,0,2.06,5.18,6.66,6.66,0,0,0,4.95,2.11A6.83,6.83,0,0,0,102.15,85a7.38,7.38,0,0,0,1.43-4.51,7.09,7.09,0,0,0-2-5.21Zm-2.4,8.26a3.37,3.37,0,0,1-5.16,0,4.86,4.86,0,0,1,0-6,3.27,3.27,0,0,1,2.58-1.2,3.41,3.41,0,0,1,2.61,1.17,4.62,4.62,0,0,1,1,3A4.13,4.13,0,0,1,99.18,83.49Z"/><path id="path42" class="cls-1" d="M27.81,93.16l-5.5,13.71H22.1l-2.84-7.59-2.76,7.59h-.26L10.69,93.16h3.2l2.61,7.17,2.76-7.59h.23l2.82,7.59,2.55-7.17Z"/><path id="path44" class="cls-1" d="M105.3,94.73a6.54,6.54,0,0,0-4.79-2,6.16,6.16,0,0,0-2.55.52,6.44,6.44,0,0,0-2.2,1.49,7,7,0,0,0-2,5.08,7,7,0,0,0,2,5,6.36,6.36,0,0,0,4.77,2,6.58,6.58,0,0,0,3-.7,6.91,6.91,0,0,0,2.37-2,7.57,7.57,0,0,0-.57-9.43Zm-2.31,8a3.32,3.32,0,0,1-2.51,1.17A3.19,3.19,0,0,1,98,102.7a4.65,4.65,0,0,1,0-5.81,3.19,3.19,0,0,1,2.5-1.17A3.15,3.15,0,0,1,103,96.86a4.49,4.49,0,0,1,1,3A4.09,4.09,0,0,1,103,102.7Z"/><path id="path46" class="cls-1" d="M118.72,106.87h-8.94V92.64h3.39v11.18h5.55Z"/><path id="path48" class="cls-1" d="M142.41,106.87h-4l-5-6.46v6.46h-3.31V92.82h3.31v6.1l4.63-6.1h4L136.7,99.5Z"/><path id="path50" class="cls-1" d="M142.62,92.77H146v14.1h-3.36Z"/></g></g></svg>