<svg xmlns="http://www.w3.org/2000/svg" viewBox="0 0 289.27 191.4"><defs><style>.cls-1{fill:#fff;}</style></defs><g id="Слой_2" data-name="Слой 2"><g id="Слой_1-2" data-name="Слой 1"><path id="path4" class="cls-1" d="M13.94,29.57H29.38V74H41.26V29.57H56.7V18.92H13.94Z"/><path id="path6" class="cls-1" d="M0,90.44H202.85V1.6H0ZM136.77,5.59H198.4V86.46H136.77Zm-66.13,0h61.62V86.46H70.64Zm-66.13,0H66.13V86.46H4.51Z"/><path id="path8" class="cls-1" d="M164.65,18.87h-14.6V74h11.17V57.12l2.4.09c15,0,22.38-9.76,22.38-19.43.05-9.43-7.08-18.92-21.35-18.92Zm0,28.06h-3.47V29.57h4c6.39.09,9.58,2.25,10,8.58-.42,6.58-4.13,8.69-10.56,8.78Z"/><path id="path10" class="cls-1" d="M101.9,47.27,101.43,49,101,47.27l-12.67-29H76l25.48,57.4L127,18.26H114.57Z"/><path id="path12" class="cls-1" d="M272.22,41.91c9.06-2.72,13.66-10,13.66-19C285.88,9.19,275.33,0,256.64,0c-20.5,0-32.1,9.81-32.47,26.24h21.49c0-6.1,4.18-9.58,9.81-9.48s9.63,3.66,9.81,9.1c.42,12.11-6.2,14.32-10.84,16.62,5,3.1,12.77,4.18,12.82,20,0,6.43-4.09,11.17-11.55,11.17-7.09,0-10.84-4.08-10.84-11.83v-1.5H222.39v1.21c0,18.64,13,30.6,33.7,30.6,19.66,0,33.18-11.83,33.18-29.1.09-11.73-5.87-19.2-17-21.07Z"/><path id="path14" class="cls-1" d="M134.47,191.4H107.39V147.84h26.85v9H117.48v7.83H131.8v8.92H117.48v8.64h17Z"/><path id="path16" class="cls-1" d="M169.44,191.4H142.07V147.84h10.42v34.22h16.95Z"/><path id="path18" class="cls-1" d="M82.33,191.4H69.8l-15.49-20v20H44V147.84H54.31v19l14.36-19H81.06L64.63,168.59Z"/><path id="path20" class="cls-1" d="M87.44,147.84H97.81v43.51H87.44Z"/><path id="path22" class="cls-1" d="M204.49,176.94l-.65,10.84a21.75,21.75,0,0,1-25.2-.85,20.63,20.63,0,0,1-6-7.55,21.82,21.82,0,0,1-2.11-9.76,23.19,23.19,0,0,1,1.55-8.5,19.23,19.23,0,0,1,4.51-7,20.23,20.23,0,0,1,15.16-6.29,21.64,21.64,0,0,1,12.53,3.85l-1,10.42c-3.47-3.56-7.14-5.35-11.08-5.35a11.11,11.11,0,0,0-8.5,3.52,14.54,14.54,0,0,0,0,18.35,11.13,11.13,0,0,0,8.54,3.47c4.08,0,8.25-1.69,12.34-5.11Z"/><path id="path24" class="cls-1" d="M238.19,191.4H211.11V147.84h26.8v9H221.2v7.83h14.32v8.92H221.2v8.64h17Z"/></g></g></svg>