<svg xmlns="http://www.w3.org/2000/svg" viewBox="0 0 184.14 121.65"><defs><style>.cls-1{fill:#fff;}</style></defs><g id="Слой_2" data-name="Слой 2"><g id="Слой_1-2" data-name="Слой 1"><path id="path4" class="cls-1" d="M8.88,18.82H18.7v28.3h7.56V18.82h9.83V12H8.88Z"/><path id="path6" class="cls-1" d="M0,57.58H129.13V1H0Zm87.07-54h39.22V55H87.07ZM45,3.56H84.2V55H45Zm-42.1,0H42.1V55H2.87Z"/><path id="path8" class="cls-1" d="M104.81,12H95.52V47.09h7.11V36.36l1.53.06c9.56,0,14.25-6.21,14.25-12.37s-4.52-12-13.6-12Zm0,17.87h-2.21V18.82h2.57c4.07.06,6.1,1.44,6.37,5.47-.27,4.18-2.63,5.53-6.72,5.59Z"/><path id="path10" class="cls-1" d="M64.87,30.09l-.3,1.11-.27-1.11L56.23,11.62H48.35L64.57,48.16,80.82,11.62H72.93Z"/><path id="path12" class="cls-1" d="M173.29,26.68c5.77-1.73,8.7-6.39,8.7-12.1C182,5.85,175.27,0,163.37,0c-13.05,0-20.43,6.24-20.67,16.7h13.68c0-3.88,2.66-6.09,6.25-6s6.12,2.33,6.24,5.79c.27,7.71-3.94,9.12-6.9,10.58,3.2,2,8.13,2.66,8.16,12.7,0,4.09-2.6,7.11-7.35,7.11-4.51,0-6.9-2.6-6.9-7.53v-1H141.57v.78c0,11.86,8.3,19.48,21.45,19.48,12.52,0,21.12-7.53,21.12-18.53.06-7.47-3.73-12.22-10.84-13.41Z"/><g id="flowRoot828"><path id="path836" class="cls-1" d="M26.08,120.62v-27h6.43v21.19H43v5.78Z"/><path id="path838" class="cls-1" d="M51.64,93.65v14.82a9.13,9.13,0,0,0,1.3,5.36,4.67,4.67,0,0,0,4,1.77,4.7,4.7,0,0,0,3.9-1.66,7.39,7.39,0,0,0,1.36-4.81V93.65h5.75v15.48q0,5.84-3,9.11a10.75,10.75,0,0,1-8.32,3.26q-5.39,0-8.37-3.24t-3-9.1V93.65Z"/><path id="path840" class="cls-1" d="M79.79,115.75h2.68a4.54,4.54,0,0,0,3-1,3.24,3.24,0,0,0,1.11-2.6,3,3,0,0,0-1.08-2.5,4.72,4.72,0,0,0-3.07-.89H79.79Zm0-11.44h2.14a4.78,4.78,0,0,0,3-.82A2.8,2.8,0,0,0,86,101.14a2.5,2.5,0,0,0-1-2.21,5.61,5.61,0,0,0-3.17-.71h-2Zm-5.86,16.31v-27h8.34c3.14,0,5.51.57,7.11,1.73a5.83,5.83,0,0,1,2.41,5.09A5.68,5.68,0,0,1,90.7,104a7,7,0,0,1-3.32,2.23,6.66,6.66,0,0,1,3.86,2.31,6.54,6.54,0,0,1,1.39,4.24,6.69,6.69,0,0,1-2.88,5.88c-1.91,1.32-4.75,2-8.51,2Z"/><path id="path842" class="cls-1" d="M97.3,120.62v-27h6.44v21.19h10.51v5.78Z"/><path id="path844" class="cls-1" d="M117.47,120.62v-27h6.44v27Z"/><path id="path846" class="cls-1" d="M130.2,120.62V92.77h.61l16.8,15.74V93.65h5.94v28H153l-16.86-15.74v14.71Z"/></g></g></g></svg>