<svg xmlns="http://www.w3.org/2000/svg" viewBox="0 0 194.32 121.72"><defs><style>.cls-1{fill:#fff;}</style></defs><g id="Слой_2" data-name="Слой 2"><g id="Слой_1-2" data-name="Слой 1"><path id="path4" class="cls-1" d="M16.22,18.82h9.83v28.3h7.56V18.82h9.83V12H16.22Z"/><path id="path6" class="cls-1" d="M7.35,57.58H136.48V1H7.35Zm87.06-54h39.23V55H94.41Zm-42.1,0H91.54V55H52.31Zm-42.09,0H49.45V55H10.22Z"/><path id="path8" class="cls-1" d="M112.16,12h-9.29V47.09H110V36.36l1.52.06c9.56,0,14.25-6.21,14.25-12.37s-4.51-12-13.59-12Zm0,17.87H110V18.82h2.57c4.06.06,6.1,1.44,6.36,5.47-.26,4.18-2.63,5.53-6.72,5.59Z"/><path id="path10" class="cls-1" d="M72.21,30.09l-.29,1.11-.27-1.11L63.58,11.62H55.69L71.92,48.16,88.17,11.62H80.28Z"/><path id="path12" class="cls-1" d="M180.64,26.68c5.77-1.73,8.69-6.39,8.69-12.1C189.33,5.85,182.61,0,170.72,0c-13.05,0-20.44,6.24-20.67,16.7h13.68c0-3.88,2.66-6.09,6.25-6s6.12,2.33,6.24,5.79c.27,7.71-3.95,9.12-6.9,10.58,3.2,2,8.13,2.66,8.16,12.7,0,4.09-2.6,7.11-7.36,7.11-4.51,0-6.9-2.6-6.9-7.53v-1H148.91v.77c0,11.86,8.31,19.48,21.46,19.48,12.52,0,21.12-7.53,21.12-18.53.06-7.47-3.73-12.22-10.85-13.41Z"/><path id="path14" class="cls-1" d="M39.77,93.85h-.42L25.57,121.72h6.49l1.76-3.94h11l1.74,3.94h6.75L39.76,93.85Zm-4.1,19.27,3.58-8.45,3.5,8.45Z"/><path id="path16" class="cls-1" d="M194.32,121.69H176.76V93.43h17.41v5.83H183.3v5.1h9.32v5.8H183.3v5.59h11Z"/><path id="path18" class="cls-1" d="M97,97.61a13,13,0,0,0-9.53-4,12.49,12.49,0,0,0-5.08,1,13.44,13.44,0,0,0-4.36,2.93,13.94,13.94,0,0,0-4,10.07,13.79,13.79,0,0,0,4,10,12.75,12.75,0,0,0,9.5,4.06,13.23,13.23,0,0,0,6-1.4,13.54,13.54,0,0,0,4.72-4A14.92,14.92,0,0,0,97,97.61Zm-4.57,15.84a6.5,6.5,0,0,1-9.92,0,9.37,9.37,0,0,1,0-11.57,6.56,6.56,0,0,1,10,0,8.67,8.67,0,0,1,2,5.86A8.54,8.54,0,0,1,92.47,113.45Z"/><path id="path20" class="cls-1" d="M24.53,121.69h-8L6.57,108.88v12.81H0V93.85H6.57V106l9.21-12.1h7.91L13.2,107.11Z"/><path id="path22" class="cls-1" d="M139.65,93.64h6.69v28.05h-6.69Z"/><path id="path24" class="cls-1" d="M135.85,94.51l-11,27.18h-.39l-5.65-15.06-5.5,15.06h-.47l-11-27.18h6.37l5.13,14.22,5.5-15.09h.51l5.53,15.09L130,94.51Z"/><path id="path26" class="cls-1" d="M72.87,99.43H64v22.26H57.24V99.43h-9V93.52H72.87Z"/><path id="path28" class="cls-1" d="M172.48,112.37l-.41,7a13.63,13.63,0,0,1-7.86,2.33,13.4,13.4,0,0,1-8.43-2.87A13.26,13.26,0,0,1,151.9,114a15.24,15.24,0,0,1-.36-11.77,13,13,0,0,1,2.9-4.55,13.1,13.1,0,0,1,9.8-4.06,13.86,13.86,0,0,1,8.07,2.48l-.66,6.75c-2.24-2.3-4.6-3.46-7.14-3.46a7.07,7.07,0,0,0-5.47,2.27,9.36,9.36,0,0,0,0,11.83,7.17,7.17,0,0,0,5.5,2.24c2.66,0,5.34-1.11,8-3.32Z"/></g></g></svg>