<svg xmlns="http://www.w3.org/2000/svg" viewBox="0 0 521.7 282.6"><defs><style>.cls-1{fill:#fff;}</style></defs><g id="Слой_2" data-name="Слой 2"><g id="Слой_1-2" data-name="Слой 1"><path id="path4" class="cls-1" d="M74.8,43.3H97.4v65h17.4v-65h22.6V27.7H74.8Z"/><path id="path6" class="cls-1" d="M54.4,132.3H351V2.4H54.4ZM254.4,8.2h90.1V126.4H254.4Zm-96.7,0h90.1V126.4H157.7V8.2ZM61,8.2h90.1V126.4H61Z"/><path id="path8" class="cls-1" d="M295.2,27.6H273.9v80.6h16.3V83.6l3.5.1c22,0,32.7-14.3,32.7-28.4.1-13.8-10.4-27.7-31.2-27.7Zm0,41.1h-5.1V43.3H296c9.3.1,14,3.3,14.6,12.6-.5,9.6-6,12.6-15.4,12.8Z"/><path id="path10" class="cls-1" d="M203.4,69.2l-.7,2.5-.6-2.5L183.6,26.8H165.5l37.3,83.9,37.3-83.9H222Z"/><path id="path12" class="cls-1" d="M452.5,61.3c13.2-4,20-14.7,20-27.8,0-20-15.4-33.5-42.8-33.5-30,0-46.9,14.3-47.5,38.4h31.4c0-8.9,6.1-14,14.3-13.9s14.1,5.4,14.3,13.3c.6,17.7-9.1,20.9-15.8,24.3,7.3,4.5,18.7,6.1,18.7,29.2,0,9.4-6,16.3-16.9,16.3-10.4,0-15.8-6-15.8-17.3V88.1H379.5v1.8c0,27.3,19.1,44.7,49.3,44.7,28.8,0,48.5-17.3,48.5-42.6.2-17-8.5-27.9-24.8-30.7Z"/><path id="path14" class="cls-1" d="M288.8,227a29.83,29.83,0,0,0-21.9-9.1,29.52,29.52,0,0,0-11.7,2.4,30.56,30.56,0,0,0-10,6.8c-6.1,6.2-9.1,14-9.1,23.1a32.17,32.17,0,0,0,9,23,30,30,0,0,0,35.5,6.1,31.3,31.3,0,0,0,17.2-28.9c-.1-9.6-3.1-17.2-9-23.4Zm-10.6,36.3a14.85,14.85,0,0,1-11.4,5.3,14.55,14.55,0,0,1-11.4-5.3,19.82,19.82,0,0,1-4.6-13.2c0-5.4,1.5-9.9,4.6-13.4a14.11,14.11,0,0,1,11.4-5.3,14.66,14.66,0,0,1,11.5,5.2,20.44,20.44,0,0,1,4.6,13.5c-.1,5.3-1.6,9.7-4.7,13.2Z"/><path id="path16" class="cls-1" d="M345.4,262.6c0,5.9-2,10.6-5.9,14.2-4,3.8-9.4,5.5-16.2,5.5a53.37,53.37,0,0,1-16.1-2.9L306,263.2a64.24,64.24,0,0,0,9,4.6,21.25,21.25,0,0,0,8.1,1.6,10.25,10.25,0,0,0,6.1-1.7,5.22,5.22,0,0,0,2.2-4.2c0-2.2-1.4-4.3-4.1-6.1-.5-.2-2.4-1.4-6-3.4l-4.1-2.3c-7.8-4.3-11.7-10.2-11.7-17.3a15.17,15.17,0,0,1,5.5-12c3.6-3.2,8.4-4.7,14.3-4.7a29.19,29.19,0,0,1,7.1.8,75.46,75.46,0,0,1,8.2,2.3V235a39.94,39.94,0,0,0-8.5-4.3,21.77,21.77,0,0,0-6.5-1.4,8.07,8.07,0,0,0-4.8,1.3,4,4,0,0,0-1.8,3.6c0,2.1,1.4,4,4.2,5.5l7.1,4c5.2,2.8,8.8,5.4,10.9,7.7a15.07,15.07,0,0,1,4.2,11.2Z"/><path id="path18" class="cls-1" d="M227,276.2c-8.1,4.1-15.8,6.2-23.1,6.2-9.3,0-16.9-3.1-23-9.2s-9.2-13.7-9.2-23,3.1-17.1,9.3-23.3,14-9.2,23.5-9.2a34.67,34.67,0,0,1,19.5,5.9l-1.5,15.1c-5.5-5.5-11.3-8.2-17.2-8.2a18.16,18.16,0,0,0-13.5,5.4,18.78,18.78,0,0,0-5.4,13.7c0,5.9,1.7,10.6,5.2,14.2s7.9,5.4,13.4,5.4a28.27,28.27,0,0,0,7.8-1.3V259H201.2V246.7H227Z"/><path id="path20" class="cls-1" d="M461.8,260.9l-.9,16.1a31.16,31.16,0,0,1-18.1,5.4,30.78,30.78,0,0,1-19.4-6.6,29.88,29.88,0,0,1-8.9-11.3,33.15,33.15,0,0,1-3.2-14.5,34.82,34.82,0,0,1,2.3-12.6,26.65,26.65,0,0,1,6.7-10.4,30.42,30.42,0,0,1,22.5-9.4,32.4,32.4,0,0,1,18.6,5.7l-1.5,15.5c-5.2-5.3-10.7-8-16.4-8-5.2,0-9.4,1.7-12.6,5.2s-4.9,8.1-4.9,13.7,1.6,10.1,4.8,13.5a16.8,16.8,0,0,0,12.7,5.2q9.15.15,18.3-7.5Z"/><path id="path22" class="cls-1" d="M154.6,227.7c-6.7-5.9-16-8.7-28.1-8.7H109.7v63.4h16.8a65.05,65.05,0,0,0,12.2-1.1,29.42,29.42,0,0,0,10-3.7c10.5-6,15.7-15,15.7-26.9,0-9.8-3.2-17.4-9.8-23Zm-11.1,36.1c-3.7,3.3-8.9,4.9-15.6,4.9h-3.3V232.4h3.3c6.7,0,12,1.6,15.7,4.9s5.5,7.7,5.5,13.3-1.9,10-5.6,13.2Z"/><path id="path24" class="cls-1" d="M40.7,253.8a15.88,15.88,0,0,0-9.1-5.4c6.8-2.5,10.4-7,10.4-13.5,0-10.7-7.5-16-22.4-16H0v63.4H17.2C35,282.3,44,276,44,263.8a15.83,15.83,0,0,0-3.3-10ZM13.8,229.7h4.6c6.5,0,9.9,2.3,9.9,6.9a6.7,6.7,0,0,1-2.5,5.5c-1.7,1.4-4,2-7,2h-5V229.7Zm13.5,39c-1.7,1.5-4.2,2.2-7.2,2.2H13.8V254.5h6.3a11.64,11.64,0,0,1,7.2,2.1,7.23,7.23,0,0,1,2.5,5.9,7.72,7.72,0,0,1-2.5,6.2Z"/><path id="path26" class="cls-1" d="M105.4,218.9,81,251.6v30.7H65.9V252.2L43.2,218.9H61.5L74.8,239l14.6-20.1Z"/><path id="path28" class="cls-1" d="M405.6,269l-2.4,13.4H349.6l31.6-50.1H352.9l2.4-13.3h50.4l-31.5,50Z"/><path id="path30" class="cls-1" d="M521.6,269l-2.4,13.4H465.6l31.6-50.1H468.9l2.4-13.3h50.4l-31.5,50Z"/></g></g></svg>