<svg xmlns="http://www.w3.org/2000/svg" viewBox="0 0 218.29 122.67"><defs><style>.cls-1{fill:#fff;}</style></defs><g id="Слой_2" data-name="Слой 2"><g id="Слой_1-2" data-name="Слой 1"><g id="g1468"><path id="path4" class="cls-1" d="M28.21,18.82H38v28.3h7.56V18.82h9.83V12H28.21Z"/><path id="path6" class="cls-1" d="M19.33,57.58H148.46V1H19.33Zm87.07-54h39.22V55H106.4Zm-42.1,0h39.23V55H64.3Zm-42.1,0H61.43V55H22.2Z"/><path id="path8" class="cls-1" d="M124.14,12h-9.29V47.09H122V36.36l1.53.06c9.56,0,14.25-6.21,14.25-12.37s-4.51-12-13.6-12Zm0,17.87H122V18.82h2.57c4.07.06,6.1,1.44,6.37,5.47-.27,4.18-2.63,5.53-6.72,5.59Z"/><path id="path10" class="cls-1" d="M84.2,30.09l-.3,1.11-.27-1.11L75.56,11.62H67.68L83.9,48.16l16.25-36.54H92.26Z"/><path id="path12" class="cls-1" d="M192.62,26.68c5.77-1.73,8.7-6.39,8.7-12.1C201.32,5.85,194.6,0,182.7,0c-13,0-20.43,6.24-20.67,16.7h13.68c0-3.88,2.67-6.09,6.25-6s6.12,2.33,6.24,5.79c.27,7.71-3.94,9.12-6.9,10.58,3.2,2,8.13,2.66,8.16,12.7,0,4.09-2.6,7.11-7.35,7.11-4.51,0-6.9-2.6-6.9-7.53v-1H160.9v.77c0,11.86,8.3,19.48,21.45,19.48,12.52,0,21.12-7.53,21.12-18.53.06-7.47-3.73-12.22-10.84-13.41Z"/></g><g id="flowRoot1435"><path id="path1443" class="cls-1" d="M11.75,122.67,0,93.64H6.79l5.47,15.16,5.87-16.07h.52l5.92,16.07L30,93.64h6.26l-11.67,29h-.43l-6-16.08-5.87,16.08Z"/><path id="path1445" class="cls-1" d="M42.72,112.82h7.39L46.46,104Zm-10.51,8.94,14.33-29H47l14,29H54l-1.79-4.1H40.78L39,121.76Z"/><path id="path1447" class="cls-1" d="M70.8,98.76H69.69v7.79h1.42a6.34,6.34,0,0,0,3.88-1,3.51,3.51,0,0,0,1.33-3A3.26,3.26,0,0,0,75,99.67,7.48,7.48,0,0,0,70.8,98.76Zm-7.62,23V93.64h7.23a24,24,0,0,1,5.37.46,9.35,9.35,0,0,1,3.39,1.52,7.74,7.74,0,0,1,2.43,2.79,7.37,7.37,0,0,1,.87,3.49,8,8,0,0,1-1.36,4.65,8.74,8.74,0,0,1-3.87,3.12l8.57,12.09H78.15l-7.51-11h-1v11Z"/><path id="path1449" class="cls-1" d="M87.18,113.81a25.23,25.23,0,0,0,4.4,2.23,10.88,10.88,0,0,0,3.55.64,4.72,4.72,0,0,0,2.8-.76,2.36,2.36,0,0,0,1.06-2q0-1.72-3.76-3.88l-.93-.54-1.9-1.07a11.81,11.81,0,0,1-4.11-3.55A7.79,7.79,0,0,1,87,100.43a7,7,0,0,1,2.56-5.57,9.86,9.86,0,0,1,6.61-2.17,16,16,0,0,1,3.24.35,29.84,29.84,0,0,1,3.88,1.08v6.6a21.48,21.48,0,0,0-3.86-2,8.9,8.9,0,0,0-3.1-.7,3.6,3.6,0,0,0-2.23.62,1.92,1.92,0,0,0-.82,1.65,2.22,2.22,0,0,0,.49,1.38,4.53,4.53,0,0,0,1.45,1.16l3.3,1.82A17.5,17.5,0,0,1,104,108.9a7.47,7.47,0,0,1,1.44,4.59,8.57,8.57,0,0,1-2.81,6.66,10.67,10.67,0,0,1-7.43,2.52,19.4,19.4,0,0,1-3.41-.33,33.5,33.5,0,0,1-4-1Z"/><path id="path1451" class="cls-1" d="M107.8,121.76l14-22.25H109.23l1.07-5.87h22.32l-14,22.16h14l-1.07,6Z"/><path id="path1453" class="cls-1" d="M143.05,112.82h7.39L146.79,104Zm-10.51,8.94,14.33-29h.43l14,29h-7l-1.79-4.1h-11.4l-1.82,4.1Z"/><path id="path1455" class="cls-1" d="M169.09,122.67l-11.75-29h6.79l5.47,15.16,5.87-16.07H176l5.92,16.07,5.41-15.16h6.26l-11.67,29h-.43l-6-16.08-5.87,16.08Z"/><path id="path1457" class="cls-1" d="M200,112.82h7.39L203.76,104Zm-10.51,8.94,14.33-29h.43l14,29h-7l-1.79-4.1h-11.4l-1.82,4.1Z"/></g></g></g></svg>