<svg xmlns="http://www.w3.org/2000/svg" viewBox="0 0 202.08 122.58"><defs><style>.cls-1{fill:#fff;}</style></defs><g id="Слой_2" data-name="Слой 2"><g id="Слой_1-2" data-name="Слой 1"><g id="g55"><path id="path4" class="cls-1" d="M20.1,18.82h9.83v28.3h7.56V18.82h9.83V12H20.1Z"/><path id="path6" class="cls-1" d="M11.23,57.58H140.36V1H11.23Zm87.06-54h39.23V55H98.29Zm-42.09,0H95.43V55H56.2Zm-42.1,0H53.33V55H14.1Z"/><path id="path8" class="cls-1" d="M116,12h-9.29V47.09h7.11V36.36l1.52.06c9.56,0,14.26-6.21,14.26-12.37S125.12,12,116,12Zm0,17.87h-2.21V18.82h2.57c4.07.06,6.1,1.44,6.37,5.47-.27,4.18-2.64,5.53-6.73,5.59Z"/><path id="path10" class="cls-1" d="M76.1,30.09l-.3,1.11-.27-1.11L67.46,11.62H59.58L75.8,48.16,92.05,11.62H84.16Z"/><path id="path12" class="cls-1" d="M184.52,26.68c5.77-1.73,8.7-6.39,8.7-12.1C193.22,5.85,186.5,0,174.6,0c-13,0-20.43,6.24-20.67,16.7h13.68c0-3.88,2.66-6.09,6.25-6S180,13,180.1,16.46c.27,7.71-3.94,9.12-6.9,10.58,3.2,2,8.13,2.66,8.16,12.7,0,4.09-2.6,7.11-7.35,7.11-4.52,0-6.9-2.6-6.9-7.53v-1H152.8v.77c0,11.86,8.3,19.48,21.45,19.48,12.52,0,21.12-7.53,21.12-18.53.06-7.47-3.73-12.22-10.85-13.41Z"/></g><g id="flowRoot17"><path id="path25" class="cls-1" d="M11.73,122.58,0,93.61H6.77l5.46,15.13,5.86-16h.53l5.9,16,5.4-15.13h6.25l-11.65,29h-.43l-6-16-5.86,16Z"/><path id="path27" class="cls-1" d="M46.66,98.72H45.55v7.78H47a6.22,6.22,0,0,0,3.87-1,3.47,3.47,0,0,0,1.33-2.94,3.25,3.25,0,0,0-1.3-2.9A7.47,7.47,0,0,0,46.66,98.72Zm-7.61,23V93.61h7.22a23.85,23.85,0,0,1,5.36.46A9.41,9.41,0,0,1,55,95.58a7.68,7.68,0,0,1,2.41,2.79,7.36,7.36,0,0,1,.87,3.48A8.1,8.1,0,0,1,57,106.5a8.79,8.79,0,0,1-3.87,3.11l8.55,12.06H54l-7.49-11h-1v11Z"/><path id="path29" class="cls-1" d="M69.43,107.64a9.06,9.06,0,0,0,2.13,6.13,6.91,6.91,0,0,0,10.57,0,10,10,0,0,0,0-12.29,6.89,6.89,0,0,0-10.57,0A9.07,9.07,0,0,0,69.43,107.64Zm-6.89,0a15.81,15.81,0,0,1,1.07-5.83,14.68,14.68,0,0,1,3.17-4.87,13.61,13.61,0,0,1,4.59-3.14,14.18,14.18,0,0,1,10.95,0A14.21,14.21,0,0,1,87,97a13.73,13.73,0,0,1,3.1,4.8,15.85,15.85,0,0,1,1.06,5.86,16.33,16.33,0,0,1-.73,5,13.9,13.9,0,0,1-2.19,4.24,14.33,14.33,0,0,1-5,4.24,14,14,0,0,1-16.39-2.77,14.76,14.76,0,0,1-3.17-4.84,15.72,15.72,0,0,1-1.07-5.82Z"/><path id="path31" class="cls-1" d="M116.59,102.49a13.29,13.29,0,0,0-3.7-2.79,8.81,8.81,0,0,0-3.9-.9,7.55,7.55,0,0,0-5.83,2.45,8.94,8.94,0,0,0-2.26,6.31,8.76,8.76,0,0,0,2.24,6.25,7.67,7.67,0,0,0,5.85,2.38,10.68,10.68,0,0,0,4.23-.89,16.37,16.37,0,0,0,4.24-2.67l-.42,7.45a14.46,14.46,0,0,1-4,1.86,15.56,15.56,0,0,1-4.43.64,14.62,14.62,0,0,1-4.76-.78,13.75,13.75,0,0,1-4.18-2.28,14.23,14.23,0,0,1-4.16-5.19,15.58,15.58,0,0,1-1.44-6.69,16,16,0,0,1,1.07-5.85A14.38,14.38,0,0,1,98.28,97a14,14,0,0,1,4.75-3.2,14.7,14.7,0,0,1,5.67-1.12,15,15,0,0,1,8.61,2.65Z"/><path id="path33" class="cls-1" d="M122.07,121.67V112l-3.49,2.42v-4.35l3.49-2.42v-14h6.69v10.26l5.9-4.17v4.42l-5.9,4.2v7.33h11v6Z"/><path id="path35" class="cls-1" d="M151.69,112.75h7.38L155.43,104Zm-10.49,8.92,14.31-28.93h.42l14,28.93h-7l-1.78-4.08H149.76l-1.82,4.08Z"/><path id="path37" class="cls-1" d="M177.64,122.58l-11.72-29h6.77l5.46,15.13,5.86-16h.52l5.9,16,5.4-15.13h6.25l-11.65,29H190l-6-16-5.86,16Z"/></g></g></g></svg>