<svg xmlns="http://www.w3.org/2000/svg" viewBox="0 0 143.03 93.55"><defs><style>.cls-1{fill:#fff;}</style></defs><g id="Слой_2" data-name="Слой 2"><g id="Слой_1-2" data-name="Слой 1"><path id="path4" class="cls-1" d="M6.89,14.62h7.64v22H20.4v-22H28V9.35H6.89Z"/><path id="path6" class="cls-1" d="M0,44.72H100.3V.79H0Zm67.63-42H98.1v40H67.63Zm-32.7,0H65.4v40H34.93Zm-32.7,0H32.7v40H2.23Z"/><path id="path8" class="cls-1" d="M81.41,9.33H74.19V36.57h5.53V28.24l1.18.05c7.43,0,11.07-4.83,11.07-9.61s-3.5-9.35-10.56-9.35Zm0,13.88H79.72V14.62h2c3.15.05,4.73,1.11,4.94,4.25-.21,3.25-2,4.29-5.22,4.34Z"/><path id="path10" class="cls-1" d="M50.38,23.37l-.23.86-.21-.86L43.68,9H37.55l12.6,28.38L62.78,9H56.65Z"/><path id="path12" class="cls-1" d="M134.6,20.72c4.48-1.34,6.76-5,6.76-9.4C141.36,4.55,136.14,0,126.9,0,116.76,0,111,4.85,110.84,13h10.63a4.44,4.44,0,0,1,4.85-4.68,4.59,4.59,0,0,1,4.85,4.5c.21,6-3.06,7.08-5.36,8.21,2.48,1.54,6.31,2.07,6.34,9.87,0,3.18-2,5.52-5.71,5.52-3.51,0-5.36-2-5.36-5.85V29.8H110v.6c0,9.22,6.45,15.13,16.66,15.13,9.73,0,16.41-5.85,16.41-14.39.05-5.8-2.9-9.49-8.42-10.42Z"/><path id="path14" class="cls-1" d="M60.29,73H60L49.83,93.53h4.8l1.3-2.9H64l1.27,2.9h5L60.3,73Zm-3,14.21,2.65-6.25,2.57,6.25Z"/><path id="path16" class="cls-1" d="M130.38,93.53h-6L117,84v9.54h-4.89V72.8H117v9l6.85-9h5.87l-7.82,9.86Z"/><path id="path18" class="cls-1" d="M107.26,87.21a6,6,0,0,1-1.88,4.55,7.2,7.2,0,0,1-5.17,1.79,17.42,17.42,0,0,1-5.13-.93l-.37-5.18a18,18,0,0,0,2.9,1.44,6.73,6.73,0,0,0,2.57.51,3.24,3.24,0,0,0,1.95-.55,1.63,1.63,0,0,0,.73-1.35,2.4,2.4,0,0,0-1.33-1.95l-1.9-1.09-1.32-.74c-2.49-1.4-3.74-3.25-3.74-5.53a4.89,4.89,0,0,1,1.74-3.83,6.6,6.6,0,0,1,4.57-1.51,11.23,11.23,0,0,1,2.28.26,26.12,26.12,0,0,1,2.62.74v4.55A14,14,0,0,0,103.06,77a6.5,6.5,0,0,0-2.09-.44,2.44,2.44,0,0,0-1.53.42,1.34,1.34,0,0,0-.58,1.13c0,.68.44,1.26,1.35,1.74l2.28,1.26A13.41,13.41,0,0,1,106,83.57a5.38,5.38,0,0,1,1.3,3.64Z"/><path id="path20" class="cls-1" d="M26.8,91.55a16.16,16.16,0,0,1-7.38,2,10.45,10.45,0,0,1-7.31-17.71,10.17,10.17,0,0,1,7.5-2.92,11.1,11.1,0,0,1,6.24,1.88l-.48,4.83A7.78,7.78,0,0,0,19.86,77a5.83,5.83,0,0,0-4.29,1.71,6,6,0,0,0-1.72,4.37,6.25,6.25,0,0,0,1.65,4.5,5.64,5.64,0,0,0,4.27,1.72,8.11,8.11,0,0,0,2.48-.42V86.06H18.58V82.12h8.24v9.44Z"/><path id="path22" class="cls-1" d="M46.18,75.61c-2.2-1.9-5.24-2.85-9.21-2.85h-5.5V93.51H37a21.32,21.32,0,0,0,4-.35A10.43,10.43,0,0,0,44.25,92a10.27,10.27,0,0,0,1.93-16.34ZM42.54,87.44a7.3,7.3,0,0,1-5.11,1.63H36.37V77.21h1.09a7.64,7.64,0,0,1,5.13,1.58,6.08,6.08,0,0,1-.05,8.65Z"/><path id="path24" class="cls-1" d="M85.4,67l-3.11,4.34H79.18L81.36,67Z"/><path id="path26" class="cls-1" d="M89.51,93.53h-.42L77,82.22V92.78H72.76v-20h.44l12,11.28V73.43h4.27Z"/></g></g></svg>