<svg xmlns="http://www.w3.org/2000/svg" viewBox="0 0 184.14 122.58"><defs><style>.cls-1{fill:#fff;}</style></defs><g id="Слой_2" data-name="Слой 2"><g id="Слой_1-2" data-name="Слой 1"><path id="path4" class="cls-1" d="M8.88,18.82H18.7v28.3h7.56V18.82h9.83V12H8.88Z"/><path id="path6" class="cls-1" d="M0,57.58H129.13V1H0Zm87.07-54h39.22V55H87.07ZM45,3.56H84.2V55H45Zm-42.1,0H42.1V55H2.87Z"/><path id="path8" class="cls-1" d="M104.81,12H95.52V47.09h7.11V36.36l1.53.06c9.56,0,14.25-6.21,14.25-12.37s-4.52-12-13.6-12Zm0,17.87h-2.21V18.82h2.57c4.07.06,6.1,1.44,6.37,5.47-.27,4.18-2.63,5.53-6.72,5.59Z"/><path id="path10" class="cls-1" d="M64.87,30.09l-.3,1.11-.27-1.11L56.23,11.62H48.35L64.57,48.16,80.82,11.62H72.93Z"/><path id="path12" class="cls-1" d="M173.29,26.68c5.77-1.73,8.7-6.39,8.7-12.1C182,5.85,175.27,0,163.37,0c-13.05,0-20.43,6.24-20.67,16.7h13.68c0-3.88,2.66-6.09,6.25-6s6.12,2.33,6.24,5.79c.27,7.71-3.94,9.12-6.9,10.58,3.2,2,8.13,2.66,8.16,12.7,0,4.09-2.6,7.11-7.35,7.11-4.51,0-6.9-2.6-6.9-7.53v-1H141.57v.77c0,11.86,8.3,19.48,21.45,19.48,12.52,0,21.12-7.53,21.12-18.53.06-7.47-3.73-12.22-10.84-13.41Z"/><path id="path1486" class="cls-1" d="M73.65,83.81l-3.26,6.66h4.8l4.53-6.66Zm-.41,8.89a14,14,0,0,0-5.48,1.1,13.48,13.48,0,0,0-4.58,3.14A14.56,14.56,0,0,0,60,101.81a16.54,16.54,0,0,0,0,11.65,14.63,14.63,0,0,0,3.18,4.84,14,14,0,0,0,16.39,2.77,14.33,14.33,0,0,0,5.05-4.24,14.09,14.09,0,0,0,2.18-4.24,16.33,16.33,0,0,0,.74-5,15.86,15.86,0,0,0-1.07-5.86A13.56,13.56,0,0,0,83.38,97a14.25,14.25,0,0,0-4.67-3.18A14,14,0,0,0,73.24,92.7Zm0,6.31a6.69,6.69,0,0,1,5.28,2.47,9.93,9.93,0,0,1,0,12.29,6.9,6.9,0,0,1-10.56,0,9.93,9.93,0,0,1,0-12.29A6.72,6.72,0,0,1,73.24,99Z"/><path id="path1457" class="cls-1" d="M98.88,115.65h1.47a10.2,10.2,0,0,0,6.87-2.13,8.23,8.23,0,0,0,0-11.78,10.1,10.1,0,0,0-6.87-2.15H98.88Zm-6.62,6V93.61h7.45q7.86,0,12.31,3.75a12.74,12.74,0,0,1,4.45,10.28,13,13,0,0,1-6.93,11.92,14.44,14.44,0,0,1-4.22,1.62,26.86,26.86,0,0,1-5.61.49Z"/><path id="path1459" class="cls-1" d="M132.19,83.81l-3.25,6.66h4.8l4.53-6.66Zm-11.1,9.8L120,99.47h12.52l-14,22.2h23.7l1.07-5.94H129.45l13.92-22.12Z"/><path id="path1453-2-6" class="cls-1" d="M39.74,121.67V111.9l-2.53,1.79v-5.91L39.74,106V93.61h6.7v8.61L51.1,98.9v6l-4.66,3.31v7.43h11v6Z"/></g></g></svg>