<svg xmlns="http://www.w3.org/2000/svg" viewBox="0 0 187.71 122.58"><defs><style>.cls-1{fill:#fff;}</style></defs><g id="Слой_2" data-name="Слой 2"><g id="Слой_1-2" data-name="Слой 1"><path id="path4" class="cls-1" d="M12.44,18.82h9.83v28.3h7.56V18.82h9.83V12H12.44Z"/><path id="path6" class="cls-1" d="M3.57,57.58H132.7V1H3.57Zm87.06-54h39.23V55H90.63Zm-42.09,0H87.77V55H48.54Zm-42.1,0H45.67V55H6.44Z"/><path id="path8" class="cls-1" d="M108.38,12H99.09V47.09h7.11V36.36l1.52.06c9.57,0,14.26-6.21,14.26-12.37s-4.52-12-13.6-12Zm0,17.87H106.2V18.82h2.57c4.07.06,6.1,1.44,6.37,5.47-.27,4.18-2.63,5.53-6.73,5.59Z"/><path id="path10" class="cls-1" d="M68.44,30.09l-.3,1.11-.27-1.11L59.8,11.62H51.92L68.14,48.16,84.39,11.62H76.5Z"/><path id="path12" class="cls-1" d="M176.86,26.68c5.77-1.73,8.7-6.39,8.7-12.1C185.56,5.85,178.84,0,166.94,0c-13.05,0-20.43,6.24-20.67,16.7H160c0-3.88,2.66-6.09,6.25-6s6.12,2.33,6.24,5.79c.27,7.71-3.94,9.12-6.9,10.58,3.2,2,8.13,2.66,8.16,12.7,0,4.09-2.6,7.11-7.35,7.11-4.51,0-6.9-2.6-6.9-7.53v-1H145.14v.77c0,11.86,8.3,19.48,21.45,19.48,12.52,0,21.12-7.53,21.12-18.53.06-7.47-3.73-12.22-10.84-13.41Z"/><g id="flowRoot21"><path id="path30" class="cls-1" d="M.23,113.66a25.1,25.1,0,0,0,4.35,2.21,10.68,10.68,0,0,0,3.51.63,4.62,4.62,0,0,0,2.77-.75,2.33,2.33,0,0,0,1.05-2q0-1.7-3.72-3.83l-.92-.54-1.88-1a12,12,0,0,1-4.07-3.51A7.77,7.77,0,0,1,0,100.43a6.89,6.89,0,0,1,2.53-5.51,9.78,9.78,0,0,1,6.54-2.15,16.54,16.54,0,0,1,3.21.35,30.31,30.31,0,0,1,3.83,1.07v6.52a22,22,0,0,0-3.82-1.95,8.84,8.84,0,0,0-3.06-.69A3.56,3.56,0,0,0,7,98.68a1.92,1.92,0,0,0-.81,1.63,2.19,2.19,0,0,0,.48,1.36,4.34,4.34,0,0,0,1.44,1.15l3.26,1.81a17,17,0,0,1,5.49,4.18,7.4,7.4,0,0,1,1.42,4.54,8.46,8.46,0,0,1-2.78,6.58,10.56,10.56,0,0,1-7.35,2.5,19,19,0,0,1-3.37-.33,32.39,32.39,0,0,1-4-1Z"/><path id="path32" class="cls-1" d="M20.62,121.52l13.83-22H22l1.05-5.81H45.17L31.38,115.64H45.17l-1.05,5.88Z"/><path id="path34" class="cls-1" d="M70,102.52a13.2,13.2,0,0,0-3.66-2.77,8.73,8.73,0,0,0-3.88-.9,7.48,7.48,0,0,0-5.77,2.44,8.84,8.84,0,0,0-2.24,6.25,8.72,8.72,0,0,0,2.22,6.2,7.6,7.6,0,0,0,5.79,2.36,10.67,10.67,0,0,0,4.2-.89,16.14,16.14,0,0,0,4.2-2.64L70.43,120a13.89,13.89,0,0,1-3.91,1.84,15.28,15.28,0,0,1-4.39.64,14.64,14.64,0,0,1-4.72-.77,13.93,13.93,0,0,1-4.14-2.26,14.31,14.31,0,0,1-4.13-5.15,16.26,16.26,0,0,1-.36-12.42,14.06,14.06,0,0,1,7.77-8,14.45,14.45,0,0,1,5.62-1.11A14.72,14.72,0,0,1,70.7,95.4Z"/><path id="path36" class="cls-1" d="M72.64,121.52l13.83-22H74.06l1-5.81H97.19L83.4,115.64H97.19l-1.06,5.88Z"/><path id="path38" class="cls-1" d="M101.47,121.52V93.71H118.6v5.74H107.91v5h9.15v5.7h-9.15v5.5h10.84v5.85Z"/><path id="path40" class="cls-1" d="M144.34,102.52a13.38,13.38,0,0,0-3.67-2.77,8.69,8.69,0,0,0-3.87-.9,7.5,7.5,0,0,0-5.78,2.44,8.89,8.89,0,0,0-2.24,6.25,8.69,8.69,0,0,0,2.23,6.2,7.6,7.6,0,0,0,5.79,2.36,10.75,10.75,0,0,0,4.2-.89,16.14,16.14,0,0,0,4.2-2.64l-.42,7.38a14,14,0,0,1-3.92,1.84,15.23,15.23,0,0,1-4.39.64,14.68,14.68,0,0,1-4.72-.77,14.37,14.37,0,0,1-8.26-7.41,15.44,15.44,0,0,1-1.42-6.63,15.83,15.83,0,0,1,1.05-5.79,14.25,14.25,0,0,1,3.07-4.78,14,14,0,0,1,4.7-3.17,14.48,14.48,0,0,1,5.62-1.11,14.72,14.72,0,0,1,8.54,2.63Z"/><path id="path42" class="cls-1" d="M149.57,121.52V93.71h6.64v27.81Z"/><path id="path44" class="cls-1" d="M162.69,121.52V92.81h.64L180.65,109V93.71h6.11v28.87h-.57l-17.38-16.23v15.17Z"/></g></g></g></svg>