<svg xmlns="http://www.w3.org/2000/svg" viewBox="0 0 481 137"><defs><style>.cls-1{fill:#000;}</style></defs><g id="Слой_2" data-name="Слой 2"><g id="Слой_1-2" data-name="Слой 1"><path id="path5732" class="cls-1" d="M459,137a22,22,0,0,0,19.5-32.12L432.34,12.27a21.93,21.93,0,0,0-39.36,0l-46.25,92.59A22,22,0,0,0,366.32,137H459"/><path id="path5734" class="cls-1" d="M229.53,137A22,22,0,0,0,249,104.88L202.85,12.27a21.93,21.93,0,0,0-39.36,0l-46.25,92.59A22,22,0,0,0,136.83,137h92.7"/><path id="path5736" class="cls-1" d="M251.47,0A22,22,0,0,0,232,32.11l46.19,92.62a21.93,21.93,0,0,0,39.36,0l46.25-92.58A22,22,0,0,0,344.17,0h-92.7"/><path id="path5738" class="cls-1" d="M22,0A22,22,0,0,0,0,22,21.74,21.74,0,0,0,2.48,32.11l46.18,92.62a21.93,21.93,0,0,0,39.36,0l46.24-92.58A22,22,0,0,0,114.68,0H22"/></g></g></svg>