<svg xmlns="http://www.w3.org/2000/svg" viewBox="0 0 1000 290.62"><defs><style>.cls-1{fill:#fff;}</style></defs><g id="Слой_2" data-name="Слой 2"><g id="Слой_1-2" data-name="Слой 1"><path id="path3491" class="cls-1" d="M611.17,290.62h73.11V197.1h5.59c8.33,0,29.32-.47,40.73,18l44.93,75.52H854.2l-40.93-68.76c-13.52-23.05-24.64-35.39-33.38-41.74v-.76c24.66-8.74,51.66-29.83,51.66-72.79,0-53.23-38.14-80.67-105.7-80.67H611.17v91.88h-.74C596.54,62.35,549.78,25.9,464.37,25.9H302.66L278,134c-5.17,22.27-9.56,50.51-9.56,50.51h-.78s-5.56-31.4-10.73-53.69L235.86,25.9H147.09L126,130.82c-5.17,22.29-10.73,53.69-10.73,53.69h-.81s-4.36-28.24-9.52-50.51L80.29,25.9H0L70.74,290.62H151.5l40.15-169.73h.78l40.15,169.73h79.48L371,70.83h.78V290.62H462c86.61,0,134.4-39.73,148.46-96.54h.71v96.54ZM468,230.61H445.71V85.92H466c48.5,0,70.35,21.45,70.35,70.76,0,48.48-21.85,73.93-68.36,73.93m256.31-89.46h-40V82h37.58c25.06,0,35.39,9.92,35.39,29.78,0,18.3-10.73,29.42-33,29.42"/><path id="path3495" class="cls-1" d="M959.46,95.75V27.51L891.22,52.15V69.1l22.58-8.21v51.27ZM932.22,0a68.15,68.15,0,1,1-67.77,68.14C864.45,30.52,894.8,0,932.22,0m0,10a58.15,58.15,0,1,0,57.86,58.15A58,58,0,0,0,932.22,10"/></g></g></svg>