<svg xmlns="http://www.w3.org/2000/svg" viewBox="0 0 349.76 109.74"><defs><style>.cls-1{fill:#1198d6;}.cls-2{fill:#fff;}</style></defs><g id="Слой_2" data-name="Слой 2"><g id="Слой_1-2" data-name="Слой 1"><g id="layer1"><g id="g4148"><path class="cls-1" d="M50.32,33A50.6,50.6,0,0,1,49,40.5L34.76,98.17c-.65,1.66-3.11,11.57-18.41,11.57-9,0-15.07-.71-15.07-4.82v-3.35c0-3.38,2.42-3.44,3.58-3.44,3.26,0,6,.79,10.37.79,9.09,0,9.32-4.56,11.58-14.9H22.59C12.07,84,11.32,75.49,9.75,70L.83,38A22.8,22.8,0,0,1,0,33.11c0-3.55,2.46-4.26,4.71-4.26H7.4c3.18,0,3.88,1,5.48,6.54l8.55,32.66c1.15,3.87.58,5.75,7.39,5.75l9.48-41c.54-2.27,1.75-4,4.67-4h3.32C49,28.85,50.32,30.41,50.32,33Z"/><path class="cls-1" d="M76,9.11V80c0,1.76-.39,4.56-4.57,4.56H68.66c-2.73,0-4.44-1-4.44-4.54V11.43H61.53c-2.66,0-5.07-1.08-5.07-3.75V3.51C56.46,1.44,58.09,0,60.85,0h9.79C75.88,0,76,5.21,76,9.11Z"/><path class="cls-1" d="M114.22,27.32c-14.11,0-24.71,6.24-24.71,27.75v4.79c0,19.33,9.93,25.48,23.29,25.48H119c9.59,0,15.63-2.27,15.63-5.12V76.83a3.19,3.19,0,0,0-3.24-3.42c-2.78,0-5.76,1.45-13.55,1.45-11.64,0-16.36-1.38-16.36-14.44h27.89c3.55,0,7.63-1.4,7.63-6.89V51C137,35.55,129.28,27.32,114.22,27.32ZM101.76,50.81c0-7.7,3-14.46,12.64-14.46,9,0,11.88,6.44,11.88,14.46Z"/><g id="g4002"><path class="cls-2" d="M50.32,33A50.6,50.6,0,0,1,49,40.5L34.76,98.17c-.65,1.66-3.11,11.57-18.41,11.57-9,0-15.07-.71-15.07-4.82v-3.35c0-3.38,2.42-3.44,3.58-3.44,3.26,0,6,.79,10.37.79,9.09,0,9.32-4.56,11.58-14.9H22.59C12.07,84,11.32,75.49,9.75,70L.83,38A22.8,22.8,0,0,1,0,33.11c0-3.55,2.46-4.26,4.71-4.26H7.4c3.18,0,3.88,1,5.48,6.54l8.55,32.66c1.15,3.87.58,5.75,7.39,5.75l9.48-41c.54-2.27,1.75-4,4.67-4h3.32C49,28.85,50.32,30.41,50.32,33Z"/><path class="cls-2" d="M76,9.11V80c0,1.76-.39,4.56-4.57,4.56H68.66c-2.73,0-4.44-1-4.44-4.54V11.43H61.53c-2.66,0-5.07-1.08-5.07-3.75V3.51C56.46,1.44,58.09,0,60.85,0h9.79C75.88,0,76,5.21,76,9.11Z"/></g><path id="path4008" class="cls-2" d="M114.22,27.32c-14.11,0-24.71,6.24-24.71,27.75v4.79c0,19.33,9.93,25.48,23.29,25.48H119c9.59,0,15.63-2.27,15.63-5.12V76.83a3.19,3.19,0,0,0-3.24-3.42c-2.78,0-5.76,1.45-13.55,1.45-11.64,0-16.36-1.38-16.36-14.44h27.89c3.55,0,7.63-1.4,7.63-6.89V51C137,35.55,129.28,27.32,114.22,27.32ZM101.76,50.81c0-7.7,3-14.46,12.64-14.46,9,0,11.88,6.44,11.88,14.46Z"/><polygon class="cls-2" points="206.99 23.82 258.83 23.82 258.83 31.76 237.5 31.76 237.5 90.08 228.1 90.08 228.1 31.76 206.99 31.76 206.99 23.82"/><polygon class="cls-2" points="309.56 23.82 319.83 23.82 297.36 90.29 284.25 90.29 263.66 23.82 274.29 23.82 291.13 82.61 309.56 23.82"/><polygon class="cls-2" points="349.76 23.61 349.76 90.08 340.35 90.08 340.35 32.18 325.78 35.14 324.29 28.04 345.78 23.61 349.76 23.61"/></g></g></g></g></svg>