<svg xmlns="http://www.w3.org/2000/svg" viewBox="0 0 366.26 109.74"><defs><style>.cls-1{fill:#903d8f;}.cls-2{fill:#fff;}</style></defs><g id="Слой_2" data-name="Слой 2"><g id="Слой_1-2" data-name="Слой 1"><g id="layer1"><g id="g4179"><path class="cls-1" d="M50.32,33A50.2,50.2,0,0,1,49,40.5L34.75,98.17c-.64,1.66-3.1,11.57-18.4,11.57-9,0-15.07-.71-15.07-4.82v-3.35c0-3.38,2.42-3.44,3.57-3.44,3.27,0,6,.79,10.38.79,9.09,0,9.32-4.56,11.57-14.9H22.58C12.07,84,11.32,75.49,9.74,70L.82,38A23.05,23.05,0,0,1,0,33.11c0-3.55,2.46-4.26,4.7-4.26H7.39c3.18,0,3.88,1,5.49,6.53l8.55,32.67c1.14,3.87.58,5.74,7.39,5.74l9.48-41c.54-2.27,1.74-4,4.66-4h3.33C48.94,28.85,50.32,30.41,50.32,33Z"/><path class="cls-1" d="M76,9.11V80c0,1.77-.39,4.57-4.57,4.57H68.65c-2.72,0-4.43-1.06-4.43-4.54V11.43H61.53c-2.66,0-5.07-1.08-5.07-3.75V3.51C56.46,1.43,58.08,0,60.84,0h9.79C75.88,0,76,5.21,76,9.11Z"/><path class="cls-1" d="M114.21,27.32c-14.11,0-24.7,6.24-24.7,27.75v4.79c0,19.33,9.93,25.48,23.28,25.48H119c9.58,0,15.62-2.27,15.62-5.13V76.83a3.18,3.18,0,0,0-3.24-3.42c-2.77,0-5.76,1.45-13.55,1.45-11.64,0-16.35-1.38-16.35-14.44h27.89c3.54,0,7.63-1.41,7.63-6.9V51C137,35.55,129.27,27.32,114.21,27.32ZM101.75,50.81c0-7.71,3-14.47,12.65-14.47,9,0,11.87,6.44,11.87,14.47Z"/><g id="g4183"><path class="cls-2" d="M50.32,33A50.2,50.2,0,0,1,49,40.5L34.75,98.17c-.64,1.66-3.1,11.57-18.4,11.57-9,0-15.07-.71-15.07-4.82v-3.35c0-3.38,2.42-3.44,3.57-3.44,3.27,0,6,.79,10.38.79,9.09,0,9.32-4.56,11.57-14.9H22.58C12.07,84,11.32,75.49,9.74,70L.82,38A23.05,23.05,0,0,1,0,33.11c0-3.55,2.46-4.26,4.7-4.26H7.39c3.18,0,3.88,1,5.49,6.53l8.55,32.67c1.14,3.87.58,5.74,7.39,5.74l9.48-41c.54-2.27,1.74-4,4.66-4h3.33C48.94,28.85,50.32,30.41,50.32,33Z"/><path class="cls-2" d="M76,9.11V80c0,1.77-.39,4.57-4.57,4.57H68.65c-2.72,0-4.43-1.06-4.43-4.54V11.43H61.53c-2.66,0-5.07-1.08-5.07-3.75V3.51C56.46,1.43,58.08,0,60.84,0h9.79C75.88,0,76,5.21,76,9.11Z"/></g><path id="path4189" class="cls-2" d="M114.21,27.32c-14.11,0-24.7,6.24-24.7,27.75v4.79c0,19.33,9.93,25.48,23.28,25.48H119c9.58,0,15.62-2.27,15.62-5.13V76.83a3.18,3.18,0,0,0-3.24-3.42c-2.77,0-5.76,1.45-13.55,1.45-11.64,0-16.35-1.38-16.35-14.44h27.89c3.54,0,7.63-1.41,7.63-6.9V51C137,35.55,129.27,27.32,114.21,27.32ZM101.75,50.81c0-7.71,3-14.47,12.65-14.47,9,0,11.87,6.44,11.87,14.47Z"/><path class="cls-2" d="M366.26,82.36l-.07,8H325.64l-1-8.18L341.6,66.06C343.28,64.47,356,53,356,41.89c0-6.09-3.22-11.09-11.83-11.09-7.56,0-18.18,4-18.18,4l-1.87-7.47a60.73,60.73,0,0,1,21.76-4.59c14.35,0,19.64,10.11,19.64,19.82,0,8.17-5.11,17.8-16.84,28.56-3,2.8-7.67,7-12.62,11.28Z"/><polygon class="cls-2" points="206.98 23.82 258.82 23.82 258.82 31.76 237.5 31.76 237.5 90.08 228.09 90.08 228.09 31.76 206.98 31.76 206.98 23.82"/><polygon class="cls-2" points="309.56 23.82 319.82 23.82 297.36 90.29 284.25 90.29 263.65 23.82 274.29 23.82 291.12 82.61 309.56 23.82"/></g></g></g></g></svg>