<svg xmlns="http://www.w3.org/2000/svg" viewBox="0 0 2182.85 302.55"><defs><style>.cls-1{fill:#fff;}</style></defs><g id="Слой_2" data-name="Слой 2"><g id="Слой_1-2" data-name="Слой 1"><g id="Шар_1" data-name="Шар 1"><path class="cls-1" d="M0,259.84V105.74a11.33,11.33,0,0,1,11.4-11.4H116.9a11.33,11.33,0,0,1,11.4,11.4v154.1a6.06,6.06,0,0,1-6.1,6.1H98.1a6.06,6.06,0,0,1-6.1-6.1v-142a4.65,4.65,0,0,0-4.6-4.6H41.1a4.65,4.65,0,0,0-4.6,4.6v142a6.06,6.06,0,0,1-6.1,6.1H6.1A6,6,0,0,1,0,259.84Z"/><path class="cls-1" d="M161.3,257.54v-154a8.86,8.86,0,0,1,8.9-8.9h83.1a5,5,0,0,1,4.9,6.2l-1.4,6a9,9,0,0,1-8.7,6.8H202.8a5.08,5.08,0,0,0-5,5v48.9a2.54,2.54,0,0,0,2.5,2.5h42.3a4.65,4.65,0,0,1,4.6,4.6v9.3a4.65,4.65,0,0,1-4.6,4.6H200.3a2.54,2.54,0,0,0-2.5,2.5v51a5.08,5.08,0,0,0,5,5h54.7a3.93,3.93,0,0,1,3.6,5.5l-3.5,8a9.18,9.18,0,0,1-8.5,5.6H170.2A8.43,8.43,0,0,1,161.3,257.54Z"/><path class="cls-1" d="M423.4,259.44V100.54a5.8,5.8,0,0,1,5.8-5.8h24.9a5.8,5.8,0,0,1,5.8,5.8v143.7a3.27,3.27,0,0,0,3.3,3.3h33.4a3.27,3.27,0,0,0,3.3-3.3V100.54a5.8,5.8,0,0,1,5.8-5.8h24.9a5.8,5.8,0,0,1,5.8,5.8v143.7a3.27,3.27,0,0,0,3.3,3.3h33.2a3.27,3.27,0,0,0,3.3-3.3V100.54a5.8,5.8,0,0,1,5.8-5.8h25.2a5.8,5.8,0,0,1,5.8,5.8v158.9a7.09,7.09,0,0,1-7,7H430.9A7.21,7.21,0,0,1,423.4,259.44Z"/><path class="cls-1" d="M642.9,261V98.74a3.86,3.86,0,0,1,3.8-3.8h27.5a3.86,3.86,0,0,1,3.8,3.8l-.1,117.5a1.22,1.22,0,0,0,2.3.5l62.7-117.6a8.22,8.22,0,0,1,7.1-4.3h21.1a4.91,4.91,0,0,1,4.9,4.9v160.9a5.59,5.59,0,0,1-5.6,5.6H746.3a5.59,5.59,0,0,1-5.6-5.6l.1-117.4a1.11,1.11,0,0,0-2.1-.5l-60.6,114.4-2.6,6a5.23,5.23,0,0,1-4.7,3.1H648.1A5.16,5.16,0,0,1,642.9,261Z"/><path class="cls-1" d="M808.8,260.64V98.34a3.86,3.86,0,0,1,3.8-3.8h27.5a3.86,3.86,0,0,1,3.8,3.8l-.1,117.5a1.22,1.22,0,0,0,2.3.5l62.7-117.6a8.22,8.22,0,0,1,7.1-4.3H937a4.91,4.91,0,0,1,4.9,4.9v160.9a5.59,5.59,0,0,1-5.6,5.6H912.2a5.59,5.59,0,0,1-5.6-5.6l.1-117.4a1.11,1.11,0,0,0-2.1-.5l-60.8,114.4-2.6,6a5.23,5.23,0,0,1-4.7,3.1H813.8A5.12,5.12,0,0,1,808.8,260.64Z"/><path class="cls-1" d="M1883.15,260.55V98.25a3.86,3.86,0,0,1,3.8-3.8h27.5a3.86,3.86,0,0,1,3.8,3.8l-.1,117.5a1.22,1.22,0,0,0,2.3.5l62.7-117.6a8.22,8.22,0,0,1,7.1-4.3h21.1a4.91,4.91,0,0,1,4.9,4.9v161a5.59,5.59,0,0,1-5.6,5.6h-24.1a5.59,5.59,0,0,1-5.6-5.6l.1-117.4a1.11,1.11,0,0,0-2.1-.5l-60.8,114.4-2.6,6a5.23,5.23,0,0,1-4.7,3.1h-22.7A5.35,5.35,0,0,1,1883.15,260.55Z"/><path class="cls-1" d="M2049.75,260.15V97.75a3.86,3.86,0,0,1,3.8-3.8h27.5a3.86,3.86,0,0,1,3.8,3.8l-.1,117.5a1.22,1.22,0,0,0,2.3.5l62.7-117.6a8.22,8.22,0,0,1,7.1-4.3H2178a4.91,4.91,0,0,1,4.9,4.9v160.9a5.59,5.59,0,0,1-5.6,5.6h-24.1a5.59,5.59,0,0,1-5.6-5.6l.1-117.4a1.11,1.11,0,0,0-2.1-.5L2085,256.15l-2.6,6a5.23,5.23,0,0,1-4.7,3.1H2055A5.14,5.14,0,0,1,2049.75,260.15Z"/><path class="cls-1" d="M1088.05,261.75c-8.2-4.1-14.1-8.3-17.7-12.9q-1.8-2.25-3-3.9a6.61,6.61,0,0,1,.2-8l3.9-4.9c2.3-2.8,5.6-3,7.4-.8.5.5,1.1,1.2,1.8,2,3.3,3.8,8,7.2,14,10.4s13.1,4.7,21.4,4.7c18.5,0,27.8-10.7,27.8-32.2,0-11.3-1.9-19.1-5.5-23.5s-9.2-6.6-16.8-6.6l-19.6,1.6a4.49,4.49,0,0,1-4.8-4.5v-10.5a4.58,4.58,0,0,1,4.9-4.5l21.9,2c4.6-.2,8.5-3,11.8-8.2s4.9-13.4,4.9-24.3c0-10.4-1.9-17.7-5.6-22s-10-6.5-18.6-6.5a34.39,34.39,0,0,0-14.3,3.2c-3.4,1.4-9.7,5-15.4,8-2.7,1.4-6.6-2.3-7.3-5.4-.4-1.8-1.5-5.3-1.8-7.1a7.76,7.76,0,0,1,3.9-7.1c5.8-2.3,16-6.2,20.8-7.4a81.44,81.44,0,0,1,20.9-2.6c17.5,0,31.1,4.1,40.6,12.2s14.3,19.1,14.3,33c0,9.9-2.5,18.1-7.6,24.8a57.36,57.36,0,0,1-19.1,16c21.1,5.3,31.7,18.6,31.7,40.2a46.12,46.12,0,0,1-7.9,26.7c-5.3,7.8-12.7,13.8-22.3,18.1s-20.6,6.5-32.9,6.5C1107.05,267.75,1096.25,265.85,1088.05,261.75Z"/><path class="cls-1" d="M1191.45,260.85,1243,99.45a6.85,6.85,0,0,1,6.4-4.8h28.3a6.84,6.84,0,0,1,6.5,4.9l47.1,158.4a5.2,5.2,0,0,1-4.8,6.8h-25.7a5,5,0,0,1-4.8-3.7l-13.3-44.8h-56.3l-14.5,46.4a2.67,2.67,0,0,1-2.6,2h-15A2.84,2.84,0,0,1,1191.45,260.85Zm39.8-61h46.6l-22.1-79.5h-.5Z"/><path class="cls-1" d="M1342.15,258.55l45.3-74.7a4,4,0,0,0,.1-4.1l-43.7-79.5a4.45,4.45,0,0,1,3.9-6.6h33.3a4,4,0,0,1,3.6,2.3l29,59.3h.8l33.4-58.8a5.41,5.41,0,0,1,4.6-2.6h15.3a3.51,3.51,0,0,1,3,5.3l-43.4,72.1a3.52,3.52,0,0,0,0,3.7l52.4,90.6h-43.2l-34.8-65.5h-.8l-35.7,63.4a4.17,4.17,0,0,1-3.5,2.1H1346A4.69,4.69,0,0,1,1342.15,258.55Z"/><path class="cls-1" d="M1494.05,257.65V101.35a7.64,7.64,0,0,1,7.7-7.7h21a7.64,7.64,0,0,1,7.7,7.7v156.3a7.64,7.64,0,0,1-7.7,7.7h-21A7.7,7.7,0,0,1,1494.05,257.65Z"/><path class="cls-1" d="M1552.45,246.35h7.7a5.5,5.5,0,0,0,5.1-3.3q9.9-22.35,14.2-53.7c2.8-20.6,4.4-49.2,4.6-85.8a10.05,10.05,0,0,1,10.1-10h79.1a10.07,10.07,0,0,1,10.1,10.1v137.9a4.87,4.87,0,0,0,4.8,4.8h9.9a6.09,6.09,0,0,1,6.1,6.7l-5.1,44.3a5.68,5.68,0,0,1-5.8,5.1h-10.5a5.8,5.8,0,0,1-5.7-4.9l-4.4-27.7a5.24,5.24,0,0,0-5.1-4.4h-85.4a5.64,5.64,0,0,0-5.4,4.1l-8.2,28.8a5.79,5.79,0,0,1-5.6,4.2h-8.3a5.81,5.81,0,0,1-5.8-5.5l-2.3-44.3A5.81,5.81,0,0,1,1552.45,246.35Zm94.3-3v-125a5.63,5.63,0,0,0-5.7-5.7h-29.9a5.63,5.63,0,0,0-5.7,5.7q-.6,47-5.3,75.6c-2.8,18.3-7.2,34.4-13,48.3a2.94,2.94,0,0,0,2.7,4.2h53.8A3.18,3.18,0,0,0,1646.75,243.35Z"/><path class="cls-1" d="M1720,258.75V100.35a6.7,6.7,0,0,1,6.7-6.7h23.1a6.7,6.7,0,0,1,6.7,6.7v65.4a3,3,0,0,0,3,3h53.6a3,3,0,0,0,3-3v-65.4a6.7,6.7,0,0,1,6.7-6.7h23.1a6.7,6.7,0,0,1,6.7,6.7v158.4a6.7,6.7,0,0,1-6.7,6.7h-23.2a6.7,6.7,0,0,1-6.7-6.7v-68.6a3,3,0,0,0-3-3h-53.6a3,3,0,0,0-3,3v68.6a6.7,6.7,0,0,1-6.7,6.7h-23.1A6.81,6.81,0,0,1,1720,258.75Z"/><path class="cls-1" d="M865,65.94h0c6.5,5.3,16.5,3.7,22.3-3.4L918,25.44c5.9-7.1,5.4-17.1-1.1-22.3h0c-6.5-5.3-16.5-3.7-22.3,3.4l-30.7,37.1C858,50.64,858.5,60.74,865,65.94Z"/><path class="cls-1" d="M2111.85,73.05h0c6.5,5.3,16.5,3.7,22.3-3.4l30.7-37.1c5.9-7.1,5.4-17.1-1.1-22.3h0c-6.5-5.3-16.5-3.7-22.3,3.4l-30.7,37.1C2104.85,57.85,2105.45,67.85,2111.85,73.05Z"/><path class="cls-1" d="M388.8,108.24c-23.5-23.4-58.9-16.8-62.9-16.1-20.7,3.7-39.1,19.6-39.1,40.6v128.6a4.91,4.91,0,0,0,4.9,4.9h26.6a4.91,4.91,0,0,0,4.9-4.9v-41.7h0v-40h0v-55.3c1.5-16.6,22.3-17,29.6-13.7,14.7,6.8,14.2,28.3,14.2,43.9,0,15.4-2,24.4-6.9,30.5-4.7,5.8-14.6,5.9-20.8,5.7-3.8-.2-6.5,2.3-6.8,4.2-1,5.9,1.4,8,9.4,9.4a69.16,69.16,0,0,0,12,.8c17.4-1,33.2-12.3,39.2-21.2s7.3-15.1,8-28.9C402.4,135.64,399.2,118.54,388.8,108.24Z"/></g></g></g></svg>