<svg xmlns="http://www.w3.org/2000/svg" viewBox="0 0 554.5 557"><defs><style>.cls-1{fill:#fff;}</style></defs><g id="Слой_2" data-name="Слой 2"><g id="Слой_1-2" data-name="Слой 1"><path class="cls-1" d="M229,2.2H27.8A27.87,27.87,0,0,0,0,30V231.2A27.8,27.8,0,0,0,27.8,259h9.3V49.2a9.71,9.71,0,0,1,9.7-9.7h210V30.1A27.76,27.76,0,0,0,229,2.2Z"/><path class="cls-1" d="M526.7,297.9h-9.3V507.8a9.71,9.71,0,0,1-9.7,9.7h-210v9.4a27.8,27.8,0,0,0,27.8,27.8H526.7a27.8,27.8,0,0,0,27.8-27.8V325.7A27.68,27.68,0,0,0,526.7,297.9Z"/><path class="cls-1" d="M526.7,0H325.5a27.8,27.8,0,0,0-27.8,27.8V229a27.8,27.8,0,0,0,27.8,27.8H526.7A27.8,27.8,0,0,0,554.5,229V27.9A27.76,27.76,0,0,0,526.7,0Z"/><path class="cls-1" d="M229,300.2H27.8A27.8,27.8,0,0,0,0,328V529.2A27.8,27.8,0,0,0,27.8,557H229a27.8,27.8,0,0,0,27.8-27.8V328A27.68,27.68,0,0,0,229,300.2Z"/><path class="cls-1" d="M205.4,51.9,169.9,81.7v156a21.42,21.42,0,0,0,21.4,21.4h.6a21.42,21.42,0,0,0,21.4-21.4V55.7A4.85,4.85,0,0,0,205.4,51.9Z"/><path class="cls-1" d="M117.4,213.9v-90a3.46,3.46,0,0,0-5.7-2.6L59.8,165.2a5,5,0,0,0,0,7.6l51.9,43.9A3.58,3.58,0,0,0,117.4,213.9Z"/><path class="cls-1" d="M477.2,412.1l-57.1,66.2a5.13,5.13,0,0,0,3.9,8.5l58.4-.2a3.8,3.8,0,0,0,3.8-3.8V415.5C486.4,410.7,480.4,408.5,477.2,412.1Z"/><path class="cls-1" d="M320.4,467a22.3,22.3,0,0,0,19.3,19.6,22.06,22.06,0,0,0,21.8-10.8l111-129.7c.7-.9,2.8-3.2,5.1-6.1,1.7-2.1,3.5-4.5,5-6.8a22.31,22.31,0,0,0-14.7-31.3,35,35,0,0,0-4.8-.6c-1.7-.1-3.6-.2-5.6-.2H371.1v.1H338.9a22.29,22.29,0,0,0-18.2,19.4l-.2.2v4.6l.2.2A22.18,22.18,0,0,0,339.2,345h33.6v.1h42.9l-88,102.8A22.62,22.62,0,0,0,320.4,467Z"/></g></g></svg>