<svg xmlns="http://www.w3.org/2000/svg" viewBox="0 0 998 583.27"><defs><style>.cls-1{fill:#fff;}</style></defs><g id="Слой_2" data-name="Слой 2"><g id="Слой_1-2" data-name="Слой 1"><path id="path10186" class="cls-1" d="M900.62,207.87H998V161.74H880.76c-63.07,0-88.94,35.28-88.94,90.56l0,5.43c-10.57-65.07-49.27-96-120.18-96H552.82C505,65.84,406.07,0,291.65,0,130.68,0,0,130.59,0,291.73S130.68,583.27,291.65,583.27A291.46,291.46,0,0,0,551.84,423.56H673c29,0,55-1.73,81.68-22.94,19.15-15.25,31.22-36.67,36.77-64.8v87.4h55.56l.05-102.86H978.27V274.57H847l.74-18.54C847.77,226,856.8,207.87,900.62,207.87ZM551.93,378.53v44.69h-220v-65c0-55.22,26-88.1,88.95-88.1H457c28.78,0,45.76-5.76,45.76-30.19,0-25.09-17-32.1-46.47-32.1H333.5V161.74H476.4c72.48,0,82.72,50.74,82.72,79,0,30.1-12.26,77.89-82.83,77.89H441.24c-43.89,0-53.34,15.87-53.34,45.87v14Zm118.57-1.12H609.18V207.87H670.5c48.19,0,65.48,20.6,65.48,84.77S718.69,377.41,670.5,377.41Z"/></g></g></svg>