<svg xmlns="http://www.w3.org/2000/svg" viewBox="0 0 666.12 261.84"><defs><style>.cls-1{fill:#fff;}</style></defs><g id="Слой_2" data-name="Слой 2"><g id="Слой_1-2" data-name="Слой 1"><path class="cls-1" d="M568.74,46.13h97.38V0H548.88c-63.07,0-88.94,35.28-88.94,90.56l0,5.43C449.35,30.92,410.65,0,339.74,0H220.94a937.44,937.44,0,0,1,8.5,147.82,938.2,938.2,0,0,1-9.39,113.66H220v.34H341.16c29,0,55-1.73,81.68-22.94,19.15-15.25,31.22-36.67,36.77-64.8v87.4h55.56l.05-102.86H646.39V112.83H515.15l.74-18.54C515.89,64.26,524.92,46.13,568.74,46.13ZM338.62,215.67H277.3V46.13h61.32c48.19,0,65.48,20.6,65.48,84.77S386.81,215.67,338.62,215.67Z"/><path class="cls-1" d="M56,202.76v14h164L220,261.48v.36H220L0,261.48v-65c0-55.22,26-88.1,89-88.1h36.2c28.78,0,45.76-5.76,45.76-30.19,0-25.09-17-32.1-46.47-32.1H1.62V0h142.9c46.32,0,67.22,20.72,76.27,43.06,5.12,12.61,6.45,25.74,6.45,35.94,0,10.69-1.54,23.6-6.69,35.81-9.36,22.2-30.62,42.08-76.14,42.08h-35C65.47,156.89,56,172.76,56,202.76Z"/></g></g></svg>