<svg xmlns="http://www.w3.org/2000/svg" viewBox="0 0 188.36 153.28"><defs><style>.cls-1{fill:#4c4e9c;}.cls-2{fill:#646cb1;}.cls-3{isolation:isolate;opacity:0.3;}.cls-4{fill:#fff;}.cls-5{fill:#f7f7fc;}</style></defs><g id="Слой_2" data-name="Слой 2"><g id="Слой_1-2" data-name="Слой 1"><path class="cls-1" d="M188.36,73.89q0,3.36-.07,6.54c.05,1.89.07,3.83.07,5.84v.41q0,4.42-.15,8.47.15,3.5.15,7.37v.31c0,41.39-11.72,50.45-63.51,50.45h-.38q-4.71,0-9-.11-4.89.11-10.2.1h-.49q-3.43,0-6.67-.05-3.91,0-8,.05h-.57C15.53,153.21,0,140.2,0,80.83v-.45C0,21,15.53,6.86,89.54,1.32l.57,0c79.87-5.89,98.2,7,98.25,72.12Z"/><path class="cls-2" d="M171.69,74v.41c0,53.59-15.12,65.32-80.86,65.33h-.47C29.45,139.66,16.7,129,16.66,80.09v-.37c0-48.87,12.79-60.52,73.7-65.07l.47,0C156.57,9.76,171.66,20.37,171.69,74Z"/><g class="cls-3"><path class="cls-4" d="M171.69,84.56v.34c0,45-12.7,54.81-68.34,54.81H103c-52.18,0-63.17-9.15-63.2-50.74v-.31c0-41.6,11-51.39,63.2-54.66l.4,0C159,30.54,171.66,39.59,171.69,84.56Z"/></g><path class="cls-5" d="M171.69,97.94v.25c0,34.07-9.64,41.53-52.27,41.53h-.31c-40.58,0-49.2-7.07-49.23-39.16v-.24c0-32.09,8.65-39.52,49.23-41.45l.31,0C162.05,56.86,171.67,63.87,171.69,97.94Z"/></g></g></svg>