<svg xmlns="http://www.w3.org/2000/svg" viewBox="0 0 637.97 236.46"><defs><style>.cls-1{fill:#1d1d1b;}.cls-2{fill:#4c4e9c;}.cls-3{fill:#646cb1;}.cls-4{isolation:isolate;opacity:0.3;}.cls-5{fill:#fff;}.cls-6{fill:#f7f7fc;}</style></defs><g id="Слой_2" data-name="Слой 2"><g id="Слой_1-2" data-name="Слой 1"><path class="cls-1" d="M322.91,116.78H281.74v37h46.17v18H260.18V48.88h65.18v18H281.74V99.09h41.17Z"/><path class="cls-1" d="M369.53,58.08V83h20.11V98.93H369.53v41.21c0,10.86,3.29,15.55,10.76,15.55a32.66,32.66,0,0,0,7.91-.85l.43,16.49a48.42,48.42,0,0,1-15.24,2.06c-7.66,0-14.13-2.43-18.21-6.77-4.66-4.88-6.87-12.53-6.87-24.62V98.93H336.26V83h12.05V63.29Z"/><path class="cls-1" d="M404.92,43.31h21.55v51h.36a29.83,29.83,0,0,1,10.09-9.4,28.8,28.8,0,0,1,14.3-3.72c14.77,0,28.25,10.5,28.25,37.18v53.38H457.92V120.26c0-11.89-3.84-21.38-15-21.38-7.69,0-13.22,5.15-15.53,12.1a22.16,22.16,0,0,0-.92,6.74v54H404.92Z"/><path class="cls-1" d="M517.2,133.27c.48,17.2,11.95,23.74,25.11,23.74a59.51,59.51,0,0,0,21.92-3.82l3.15,15c-7,3-16.92,5.19-28.36,5.19-27,0-42.52-17.44-42.52-44.71,0-25.95,14.61-47.52,40.27-47.52S572,102.81,572,123.56a53.34,53.34,0,0,1-.71,9.71Zm34.56-15.1c.11-10-3.79-21.94-16.38-21.94-12.2,0-17.36,12.47-18.18,21.94Z"/><path class="cls-1" d="M588.77,110.46c0-10.78-.31-19.67-.73-27.46h18.7l.88,15.82h.61c4.09-11.45,13.54-17.66,22.41-17.66a21.38,21.38,0,0,1,4.93.43v20.63a27.94,27.94,0,0,0-5.85-.51c-9.5,0-16.73,6.45-18.76,16.45a38.15,38.15,0,0,0-.64,7.29v46.27H588.77Z"/><path class="cls-2" d="M236.46,117.87v.73c-.05,96.64-21.21,117.81-117.87,117.86h-.72C21.22,236.41.06,215.24,0,118.6v-.73C.06,21.22,21.22.06,117.87,0h.72C215.25.06,236.41,21.22,236.46,117.87Z"/><path class="cls-3" d="M195.74,115.56V116c0,53.59-15.12,65.33-80.85,65.33h-.48c-60.91-.05-73.66-10.76-73.69-59.62v-.37c0-48.87,12.78-60.52,73.69-65.07l.48,0C180.62,51.35,195.71,62,195.74,115.56Z"/><g class="cls-4"><path class="cls-5" d="M195.74,126.15v.34c0,45-12.7,54.81-68.34,54.81H127c-52.17,0-63.17-9.15-63.2-50.74v-.31c0-41.59,11-51.38,63.2-54.66l.4,0C183,72.13,195.71,81.19,195.74,126.15Z"/></g><path class="cls-6" d="M195.74,139.53v.26c0,34.06-9.64,41.52-52.27,41.52h-.31c-40.57,0-49.2-7.07-49.23-39.15v-.25c0-32.09,8.66-39.52,49.23-41.45l.31,0C186.1,98.46,195.72,105.46,195.74,139.53Z"/></g></g></svg>