<svg xmlns="http://www.w3.org/2000/svg" viewBox="0 0 236.46 236.46"><defs><style>.cls-1{fill:#4c4e9c;}.cls-2{fill:#646cb1;}.cls-3{isolation:isolate;opacity:0.3;}.cls-4{fill:#fff;}.cls-5{fill:#f7f7fc;}</style></defs><g id="Слой_2" data-name="Слой 2"><g id="Слой_1-2" data-name="Слой 1"><path class="cls-1" d="M236.46,117.87v.73c-.05,96.64-21.21,117.81-117.87,117.86h-.72C21.22,236.41.06,215.24,0,118.6v-.73C.06,21.22,21.22.06,117.87,0h.72C215.25.06,236.41,21.22,236.46,117.87Z"/><path class="cls-2" d="M195.74,115.56V116c0,53.59-15.12,65.33-80.85,65.33h-.48c-60.91-.05-73.66-10.76-73.69-59.62v-.37c0-48.87,12.78-60.52,73.69-65.07l.48,0C180.62,51.35,195.71,62,195.74,115.56Z"/><g class="cls-3"><path class="cls-4" d="M195.74,126.15v.34c0,45-12.7,54.81-68.34,54.81H127c-52.17,0-63.17-9.15-63.2-50.74v-.31c0-41.59,11-51.38,63.2-54.66l.4,0C183,72.13,195.71,81.19,195.74,126.15Z"/></g><path class="cls-5" d="M195.74,139.53v.26c0,34.06-9.64,41.52-52.27,41.52h-.31c-40.57,0-49.2-7.07-49.23-39.15v-.25c0-32.09,8.66-39.52,49.23-41.45l.31,0C186.1,98.46,195.72,105.46,195.74,139.53Z"/></g></g></svg>