<svg xmlns="http://www.w3.org/2000/svg" viewBox="0 0 213.94 213.94"><g id="Слой_2" data-name="Слой 2"><g id="Слой_1-2" data-name="Слой 1"><path d="M160.45,53.49a51.48,51.48,0,0,1-15.71,37.77A51.5,51.5,0,0,1,107,107,51.5,51.5,0,0,1,69.2,91.26,51.48,51.48,0,0,1,53.49,53.49,51.5,51.5,0,0,1,69.2,15.71,51.5,51.5,0,0,1,107,0a51.5,51.5,0,0,1,37.77,15.71A51.5,51.5,0,0,1,160.45,53.49Z"/><path d="M213.94,176.5v37.44H0V176.5a39.86,39.86,0,0,1,21.4-35.43,198.61,198.61,0,0,1,42.11-15.55,184.9,184.9,0,0,1,86.92,0,198.61,198.61,0,0,1,42.11,15.55,39.86,39.86,0,0,1,21.4,35.43Z"/></g></g></svg>