<svg xmlns="http://www.w3.org/2000/svg" viewBox="0 0 622.4 167.84"><defs><style>.cls-1{fill:#fff;}</style></defs><g id="Слой_2" data-name="Слой 2"><g id="Слой_1-2" data-name="Слой 1"><path class="cls-1" d="M92.58,5.3q32,0,52.2,20.58T165,77.73q0,24-10.87,37.64t-25,13.6q-10.26,0-14.76-6.27t-3.79-15.81a47.52,47.52,0,0,1-16.35,16.6,41.46,41.46,0,0,1-22,6.19,31.65,31.65,0,0,1-23.94-10.16q-9.63-10.15-9.63-25.88A45.72,45.72,0,0,1,52.38,60.33,44.66,44.66,0,0,1,85.33,46.46a30.79,30.79,0,0,1,20,7A32.42,32.42,0,0,1,116.6,71.9l4.24-23.85h9l-9.71,55.3q-1.24,7.07,1,12t8.74,4.94q10.08,0,18.11-11.22t8-31.36Q156,50,138.16,31.8T92.4,13.6A84,84,0,0,0,50.7,24.38,81.16,81.16,0,0,0,20.14,54.15,79.5,79.5,0,0,0,8.83,95.58q0,27.56,17.85,45.67t45.75,18.11a88,88,0,0,0,47.53-14l4.06,7.24a93.65,93.65,0,0,1-51.59,15.2q-31.8,0-52.11-20.59T0,95.58A87.19,87.19,0,0,1,12.46,50,89.58,89.58,0,0,1,46.2,17.23,93.31,93.31,0,0,1,92.58,5.3ZM75.44,121a38,38,0,0,0,23.67-8.13,37.73,37.73,0,0,0,14-20.49L114.13,86a22.06,22.06,0,0,0,.18-3.18q0-12-7.6-19.88T87.1,55.12A37.92,37.92,0,0,0,59.8,66.34,36.2,36.2,0,0,0,48.23,93.28q0,12,7.51,19.88T75.44,121Z"/><path class="cls-1" d="M288.32,40.1a30.11,30.11,0,0,1,23.85,11.13q9.54,11.13,9.55,27.74v51.77H312V79.68q0-12.9-7.6-21.64T286,49.29A25.7,25.7,0,0,0,266.15,58q-7.86,8.65-7.86,21.73v51.06h-9.72V79.68q0-12.9-7.5-21.64T222.6,49.29A25.41,25.41,0,0,0,202.82,58Q195,66.6,195,79.68v51.06h-9.71V41.87H195V63.25a35.82,35.82,0,0,1,11.75-16.87,28.94,28.94,0,0,1,18.29-6.28,29.74,29.74,0,0,1,19.78,7.16,36.41,36.41,0,0,1,11.66,18.81,36,36,0,0,1,11.84-18.81A30.43,30.43,0,0,1,288.32,40.1Z"/><path class="cls-1" d="M380,40.1q14.48,0,23.76,7.69t9.27,21.29v61.66h-9.71V105.65q-9.54,26.85-36.22,26.85-12.37,0-20.05-6.45t-7.69-17.4q0-11.48,8.22-17.84t21.81-8l21.74-2.47Q403.33,79,403.34,68.9q0-9.36-6.45-14.66t-17.05-5.3a32.34,32.34,0,0,0-18.11,5q-7.68,5-10.34,16.17L342,67.31Q345.39,53.89,355.81,47A42.92,42.92,0,0,1,380,40.1Zm-11.31,83.75q15,0,24.82-9.9a32.21,32.21,0,0,0,9.81-23.49v-9.9q-2.31,7.25-13.61,8.31l-20.32,2.47q-9.18,1.06-14.75,5.21T349.1,108.3a13.59,13.59,0,0,0,5.47,11.31Q360,123.84,368.71,123.85Z"/><path class="cls-1" d="M436,19.61a6.45,6.45,0,0,1-1.94-4.77,6.71,6.71,0,1,1,13.42,0A6.75,6.75,0,0,1,436,19.61Zm9.72,111.13H436V41.87h9.72Z"/><path class="cls-1" d="M479.3,130.74h-9.72V0h9.72Z"/><path class="cls-1" d="M501.21,124.73a6.93,6.93,0,0,1,6.89-6.89,6.84,6.84,0,0,1,5,2,6.67,6.67,0,0,1,2,4.86,7.25,7.25,0,0,1-7.06,7.07,6.6,6.6,0,0,1-4.86-2A6.8,6.8,0,0,1,501.21,124.73Z"/><path class="cls-1" d="M537.24,19.61a6.49,6.49,0,0,1-1.94-4.77,6.72,6.72,0,1,1,13.43,0,6.75,6.75,0,0,1-11.49,4.77ZM547,130.74h-9.72V41.87H547Z"/><path class="cls-1" d="M584.41,50.88H563.74v-9h20.67V8.3l9.72-3V41.87H622.4v9H594.13v50.71q0,10.95,4.59,15.54t15.37,4.6h8.31v9h-8.31q-15.2,0-22.43-7.16t-7.25-22.17Z"/></g></g></svg>