<svg xmlns="http://www.w3.org/2000/svg" viewBox="0 0 226.32 226.32"><defs><style>.cls-1{fill:#FFF;}</style></defs><g id="Слой_2" data-name="Слой 2"><g id="Слой_1-2" data-name="Слой 1"><path class="cls-1" d="M152.76,101.84a16.9,16.9,0,0,0,17-17,17,17,0,1,0-29,12A16.37,16.37,0,0,0,152.76,101.84Zm-79.21,0a16.9,16.9,0,0,0,17-17,16.9,16.9,0,0,0-17-17,16.9,16.9,0,0,0-17,17,16.9,16.9,0,0,0,17,17Zm39.61,28.29A59.92,59.92,0,0,0,78.22,141a62.08,62.08,0,0,0-22.77,28.72H74.12a46.3,46.3,0,0,1,16.55-16.55,44.64,44.64,0,0,1,45,0,46.37,46.37,0,0,1,16.55,16.55h18.67A62.14,62.14,0,0,0,148.1,141,59.94,59.94,0,0,0,113.16,130.13Zm0,96.19A110.18,110.18,0,0,1,69,217.41,113,113,0,0,1,8.91,157.29,110.21,110.21,0,0,1,0,113.16,110.18,110.18,0,0,1,8.91,69,113,113,0,0,1,69,8.91,110.18,110.18,0,0,1,113.16,0a110.21,110.21,0,0,1,44.13,8.91A113,113,0,0,1,217.41,69a110.18,110.18,0,0,1,8.91,44.13,110.21,110.21,0,0,1-8.91,44.13,113,113,0,0,1-60.12,60.12A110.21,110.21,0,0,1,113.16,226.32Zm0-22.63q37.91,0,64.22-26.31t26.31-64.22q0-37.9-26.31-64.22T113.16,22.63q-37.9,0-64.22,26.31T22.63,113.16q0,37.91,26.31,64.22T113.16,203.69Z"/></g></g></svg>