<svg xmlns="http://www.w3.org/2000/svg" viewBox="0 0 197.82 163.9"><defs><style>.cls-1{fill:#fff;fill-rule:evenodd;}</style></defs><g id="Слой_2" data-name="Слой 2"><g id="Слой_1-2" data-name="Слой 1"><path class="cls-1" d="M13.54,70.69Q93.19,36.1,119.73,24.88C170.24,3.79,180.86.15,187.68,0c1.52,0,4.86.3,7.13,2.12a8,8,0,0,1,2.58,5,26.11,26.11,0,0,1,.3,7.13C195,43.08,183.13,113,177.07,145.17c-2.58,13.65-7.59,18.2-12.44,18.65-10.62.91-18.66-7-28.82-13.65-16.08-10.46-25-17-40.66-27.3C77.1,111,88.78,104.51,99.1,93.9c2.73-2.73,49.3-45.21,50.21-49a3.63,3.63,0,0,0-.91-3.19c-1.07-.91-2.58-.6-3.8-.3-1.66.3-27.15,17.29-76.75,50.82-7.28,5-13.8,7.43-19.72,7.28-6.52-.15-19-3.64-28.37-6.68C8.39,89.19-.71,87.22,0,80.85.5,77.51,5.05,74.18,13.54,70.69Z"/></g></g></svg>