<svg xmlns="http://www.w3.org/2000/svg" viewBox="0 0 1390 1129"><defs><style>.cls-1{fill:#fff;}</style></defs><g id="Слой_2" data-name="Слой 2"><g id="Слой_1-2" data-name="Слой 1"><g id="layer1"><g id="layer1-0"><path id="path3611" class="cls-1" d="M437.14,1129c524.57,0,811.41-434.32,811.41-810.93q0-18.51-.8-36.84A579.78,579.78,0,0,0,1390,133.64a569,569,0,0,1-163.77,44.87A286.06,286.06,0,0,0,1351.64,20.87a572.33,572.33,0,0,1-181.1,69.18A284.92,284.92,0,0,0,962.38,0C804.89,0,677.17,127.64,677.17,285a284.54,284.54,0,0,0,7.4,65c-237-11.92-447.2-125.34-587.84-297.79A285.17,285.17,0,0,0,185,432.68,283.25,283.25,0,0,1,55.86,397c0,1.2,0,2.36,0,3.64,0,138,98.3,253.28,228.8,279.4A284.88,284.88,0,0,1,155.82,685c36.31,113.24,141.59,195.65,266.41,198a572.34,572.34,0,0,1-354.2,122A579.27,579.27,0,0,1,0,1001a807.61,807.61,0,0,0,437.16,128"/></g></g></g></g></svg>